WorkSans-ExtraBold.ufo
<glyph name="exclam" format="2">
  <advance width="312"/>
  <unicode hex="0021"/>
  <outline>
    <contour>
      <point x="50" y="660" type="line"/>
      <point x="50" y="473" type="line"/>
      <point x="72" y="218" type="line"/>
      <point x="239" y="218" type="line"/>
      <point x="261" y="473" type="line"/>
      <point x="261" y="660" type="line"/>
    </contour>
    <contour>
      <point x="48" y="83" type="curve" smooth="yes"/>
      <point x="48" y="26"/>
      <point x="88" y="-8"/>
      <point x="156" y="-8" type="curve" smooth="yes"/>
      <point x="223" y="-8"/>
      <point x="263" y="26"/>
      <point x="263" y="83" type="curve" smooth="yes"/>
      <point x="263" y="140"/>
      <point x="223" y="173"/>
      <point x="156" y="173" type="curve" smooth="yes"/>
      <point x="88" y="173"/>
      <point x="48" y="140"/>
    </contour>
  </outline>
</glyph>
<glyph name="dollar" format="2">
  <advance width="646"/>
  <unicode hex="0024"/>
  <outline>
    <contour>
      <point x="385" y="-84" type="line"/>
      <point x="385" y="3" type="line"/>
      <point x="523" y="15"/>
      <point x="623" y="82"/>
      <point x="623" y="194" type="curve" smooth="yes"/>
      <point x="623" y="337"/>
      <point x="497" y="372"/>
      <point x="385" y="394" type="curve"/>
      <point x="385" y="524" type="line"/>
      <point x="451" y="517"/>
      <point x="499" y="490"/>
      <point x="539" y="434" type="curve"/>
      <point x="631" y="546" type="line"/>
      <point x="575" y="606"/>
      <point x="511" y="649"/>
      <point x="385" y="658" type="curve"/>
      <point x="385" y="744" type="line"/>
      <point x="279" y="744" type="line"/>
      <point x="279" y="657" type="line"/>
      <point x="124" y="642"/>
      <point x="38" y="561"/>
      <point x="38" y="454" type="curve" smooth="yes"/>
      <point x="38" y="314"/>
      <point x="167" y="281"/>
      <point x="279" y="260" type="curve"/>
      <point x="279" y="135" type="line"/>
      <point x="203" y="144"/>
      <point x="142" y="176"/>
      <point x="106" y="230" type="curve"/>
      <point x="18" y="110" type="line"/>
      <point x="77" y="47"/>
      <point x="152" y="9"/>
      <point x="279" y="2" type="curve"/>
      <point x="279" y="-84" type="line"/>
    </contour>
    <contour>
      <point x="385" y="236" type="line"/>
      <point x="418" y="226"/>
      <point x="441" y="212"/>
      <point x="441" y="186" type="curve" smooth="yes"/>
      <point x="441" y="161"/>
      <point x="422" y="146"/>
      <point x="385" y="139" type="curve"/>
    </contour>
    <contour>
      <point x="221" y="466" type="curve" smooth="yes"/>
      <point x="221" y="492"/>
      <point x="242" y="511"/>
      <point x="279" y="519" type="curve"/>
      <point x="279" y="417" type="line"/>
      <point x="245" y="427"/>
      <point x="221" y="440"/>
    </contour>
  </outline>
</glyph>
<glyph name="percent" format="2">
  <advance width="967"/>
  <unicode hex="0025"/>
  <outline>
    <contour>
      <point x="548" y="180" type="curve" smooth="yes"/>
      <point x="548" y="65"/>
      <point x="627" y="-10"/>
      <point x="744" y="-10" type="curve" smooth="yes"/>
      <point x="861" y="-10"/>
      <point x="940" y="65"/>
      <point x="940" y="180" type="curve" smooth="yes"/>
      <point x="940" y="295"/>
      <point x="861" y="370"/>
      <point x="744" y="370" type="curve" smooth="yes"/>
      <point x="627" y="370"/>
      <point x="548" y="295"/>
    </contour>
    <contour>
      <point x="27" y="480" type="curve" smooth="yes"/>
      <point x="27" y="365"/>
      <point x="105" y="290"/>
      <point x="223" y="290" type="curve" smooth="yes"/>
      <point x="340" y="290"/>
      <point x="418" y="365"/>
      <point x="418" y="480" type="curve" smooth="yes"/>
      <point x="418" y="595"/>
      <point x="340" y="670"/>
      <point x="223" y="670" type="curve" smooth="yes"/>
      <point x="105" y="670"/>
      <point x="27" y="595"/>
    </contour>
    <contour>
      <point x="272" y="480" type="curve" smooth="yes"/>
      <point x="272" y="443"/>
      <point x="254" y="422"/>
      <point x="223" y="422" type="curve" smooth="yes"/>
      <point x="191" y="422"/>
      <point x="173" y="443"/>
      <point x="173" y="480" type="curve" smooth="yes"/>
      <point x="173" y="517"/>
      <point x="191" y="538"/>
      <point x="223" y="538" type="curve" smooth="yes"/>
      <point x="254" y="538"/>
      <point x="272" y="517"/>
    </contour>
    <contour>
      <point x="794" y="180" type="curve" smooth="yes"/>
      <point x="794" y="143"/>
      <point x="776" y="122"/>
      <point x="744" y="122" type="curve" smooth="yes"/>
      <point x="712" y="122"/>
      <point x="694" y="143"/>
      <point x="694" y="180" type="curve" smooth="yes"/>
      <point x="694" y="217"/>
      <point x="712" y="238"/>
      <point x="744" y="238" type="curve" smooth="yes"/>
      <point x="776" y="238"/>
      <point x="794" y="217"/>
    </contour>
    <contour>
      <point x="322" y="0" type="line"/>
      <point x="796" y="661" type="line"/>
      <point x="646" y="661" type="line"/>
      <point x="173" y="0" type="line"/>
    </contour>
  </outline>
</glyph>
<glyph name="ampersand" format="2">
  <advance width="655"/>
  <unicode hex="0026"/>
  <outline>
    <contour>
      <point x="491" y="99" type="curve"/>
      <point x="570" y="148"/>
      <point x="609" y="230"/>
      <point x="612" y="332" type="curve"/>
      <point x="481" y="334" type="line"/>
      <point x="482" y="255"/>
      <point x="462" y="207"/>
      <point x="430" y="164" type="curve"/>
      <point x="386" y="137"/>
      <point x="338" y="118"/>
      <point x="281" y="118" type="curve" smooth="yes"/>
      <point x="223" y="118"/>
      <point x="188" y="146"/>
      <point x="188" y="187" type="curve" smooth="yes"/>
      <point x="188" y="230"/>
      <point x="204" y="254"/>
      <point x="288" y="306" type="curve" smooth="yes"/>
      <point x="438" y="333"/>
      <point x="509" y="409"/>
      <point x="509" y="506" type="curve" smooth="yes"/>
      <point x="509" y="589"/>
      <point x="448" y="670"/>
      <point x="296" y="670" type="curve" smooth="yes"/>
      <point x="146" y="670"/>
      <point x="79" y="581"/>
      <point x="79" y="494" type="curve" smooth="yes"/>
      <point x="79" y="407"/>
      <point x="110" y="364"/>
      <point x="310" y="168" type="curve" smooth="yes"/>
      <point x="468" y="10"/>
      <point x="515" y="-10"/>
      <point x="634" y="-10" type="curve"/>
      <point x="647" y="131" type="line"/>
      <point x="563" y="117"/>
      <point x="529" y="156"/>
      <point x="403" y="287" type="curve" smooth="yes"/>
      <point x="272" y="422"/>
      <point x="249" y="448"/>
      <point x="249" y="486" type="curve" smooth="yes"/>
      <point x="249" y="522"/>
      <point x="269" y="543"/>
      <point x="301" y="543" type="curve" smooth="yes"/>
      <point x="331" y="543"/>
      <point x="352" y="526"/>
      <point x="352" y="495" type="curve" smooth="yes"/>
      <point x="352" y="453"/>
      <point x="338" y="420"/>
      <point x="242" y="363" type="curve" smooth="yes"/>
      <point x="57" y="350"/>
      <point x="16" y="243"/>
      <point x="17" y="172" type="curve" smooth="yes"/>
      <point x="18" y="49"/>
      <point x="118" y="-10"/>
      <point x="257" y="-10" type="curve" smooth="yes"/>
      <point x="369" y="-10"/>
      <point x="450" y="32"/>
    </contour>
  </outline>
</glyph>
<glyph name="quotesingle" format="2">
  <advance width="255"/>
  <unicode hex="0027"/>
  <outline>
    <contour>
      <point x="56" y="674" type="line"/>
      <point x="56" y="386" type="line"/>
      <point x="187" y="386" type="line"/>
      <point x="218" y="674" type="line"/>
    </contour>
  </outline>
</glyph>
<glyph name="plus" format="2">
  <advance width="604"/>
  <unicode hex="002B"/>
  <outline>
    <contour>
      <point x="224" y="598" type="line"/>
      <point x="224" y="57" type="line"/>
      <point x="381" y="57" type="line"/>
      <point x="381" y="598" type="line"/>
    </contour>
    <contour>
      <point x="48" y="397" type="line"/>
      <point x="48" y="259" type="line"/>
      <point x="556" y="259" type="line"/>
      <point x="556" y="397" type="line"/>
    </contour>
  </outline>
</glyph>
<glyph name="comma" format="2">
  <advance width="299"/>
  <unicode hex="002C"/>
  <outline>
    <contour>
      <point x="33" y="87" type="curve" smooth="yes"/>
      <point x="33" y="24"/>
      <point x="81" y="-5"/>
      <point x="126" y="-5" type="curve" smooth="yes"/>
      <point x="140" y="-5"/>
      <point x="149" y="-1"/>
      <point x="158" y="8" type="curve"/>
      <point x="162" y="4" type="line"/>
      <point x="142" y="-46"/>
      <point x="92" y="-79"/>
      <point x="29" y="-105" type="curve"/>
      <point x="115" y="-162" type="line"/>
      <point x="214" y="-121"/>
      <point x="265" y="-41"/>
      <point x="265" y="51" type="curve" smooth="yes"/>
      <point x="265" y="127"/>
      <point x="228" y="190"/>
      <point x="145" y="190" type="curve" smooth="yes"/>
      <point x="78" y="190"/>
      <point x="33" y="157"/>
    </contour>
  </outline>
</glyph>
<glyph name="zero" format="2">
  <advance width="651"/>
  <unicode hex="0030"/>
  <outline>
    <contour>
      <point x="610" y="330" type="curve" smooth="yes"/>
      <point x="610" y="556"/>
      <point x="518" y="670"/>
      <point x="326" y="670" type="curve" smooth="yes"/>
      <point x="133" y="670"/>
      <point x="41" y="556"/>
      <point x="41" y="330" type="curve" smooth="yes"/>
      <point x="41" y="104"/>
      <point x="133" y="-10"/>
      <point x="326" y="-10" type="curve" smooth="yes"/>
      <point x="518" y="-10"/>
      <point x="610" y="104"/>
    </contour>
    <contour>
      <point x="242" y="330" type="curve" smooth="yes"/>
      <point x="242" y="468"/>
      <point x="264" y="514"/>
      <point x="326" y="514" type="curve" smooth="yes"/>
      <point x="387" y="514"/>
      <point x="409" y="468"/>
      <point x="409" y="330" type="curve" smooth="yes"/>
      <point x="409" y="192"/>
      <point x="387" y="146"/>
      <point x="326" y="146" type="curve" smooth="yes"/>
      <point x="264" y="146"/>
      <point x="242" y="192"/>
    </contour>
  </outline>
</glyph>
<glyph name="two" format="2">
  <advance width="601"/>
  <unicode hex="0032"/>
  <outline>
    <contour>
      <point x="568" y="0" type="line"/>
      <point x="568" y="151" type="line"/>
      <point x="441" y="151" type="line" smooth="yes"/>
      <point x="391" y="151"/>
      <point x="332" y="149"/>
      <point x="295" y="146" type="curve"/>
      <point x="295" y="148" type="line"/>
      <point x="454" y="232"/>
      <point x="562" y="326"/>
      <point x="562" y="456" type="curve" smooth="yes"/>
      <point x="562" y="552"/>
      <point x="492" y="670"/>
      <point x="303" y="670" type="curve" smooth="yes"/>
      <point x="151" y="670"/>
      <point x="33" y="592"/>
      <point x="33" y="435" type="curve"/>
      <point x="208" y="388" type="line"/>
      <point x="208" y="472"/>
      <point x="236" y="514"/>
      <point x="290" y="514" type="curve" smooth="yes"/>
      <point x="338" y="514"/>
      <point x="360" y="481"/>
      <point x="360" y="440" type="curve" smooth="yes"/>
      <point x="360" y="356"/>
      <point x="268" y="248"/>
      <point x="55" y="126" type="curve"/>
      <point x="55" y="0" type="line"/>
    </contour>
  </outline>
</glyph>
<glyph name="four" format="2">
  <advance width="659"/>
  <unicode hex="0034"/>
  <outline>
    <contour>
      <point x="543" y="270" type="line"/>
      <point x="543" y="660" type="line"/>
      <point x="305" y="660" type="line"/>
      <point x="29" y="224" type="line"/>
      <point x="29" y="135" type="line"/>
      <point x="365" y="135" type="line"/>
      <point x="365" y="0" type="line"/>
      <point x="543" y="0" type="line"/>
      <point x="543" y="135" type="line"/>
      <point x="637" y="135" type="line"/>
      <point x="637" y="270" type="line"/>
    </contour>
    <contour>
      <point x="366" y="530" type="curve"/>
      <point x="368" y="530" type="line"/>
      <point x="365" y="421" type="line"/>
      <point x="365" y="270" type="line"/>
      <point x="216" y="270" type="line"/>
      <point x="312" y="422" type="line" smooth="yes"/>
      <point x="333" y="456"/>
      <point x="353" y="494"/>
    </contour>
  </outline>
</glyph>
<glyph name="five" format="2">
  <advance width="583"/>
  <unicode hex="0035"/>
  <outline>
    <contour>
      <point x="217" y="383" type="curve"/>
      <point x="216" y="383" type="line"/>
      <point x="217" y="386"/>
      <point x="219" y="396"/>
      <point x="222" y="413" type="curve"/>
      <point x="234" y="507" type="line"/>
      <point x="515" y="507" type="line"/>
      <point x="515" y="660" type="line"/>
      <point x="89" y="660" type="line"/>
      <point x="45" y="288" type="line"/>
      <point x="197" y="262" type="line"/>
      <point x="217" y="283"/>
      <point x="248" y="293"/>
      <point x="287" y="293" type="curve" smooth="yes"/>
      <point x="346" y="293"/>
      <point x="373" y="264"/>
      <point x="373" y="217" type="curve" smooth="yes"/>
      <point x="374" y="164"/>
      <point x="340" y="139"/>
      <point x="288" y="139" type="curve" smooth="yes"/>
      <point x="225" y="139"/>
      <point x="204" y="167"/>
      <point x="195" y="217" type="curve"/>
      <point x="18" y="115" type="line"/>
      <point x="83" y="18"/>
      <point x="172" y="-10"/>
      <point x="286" y="-10" type="curve" smooth="yes"/>
      <point x="427" y="-10"/>
      <point x="554" y="61"/>
      <point x="554" y="231" type="curve" smooth="yes"/>
      <point x="554" y="344"/>
      <point x="479" y="427"/>
      <point x="348" y="427" type="curve" smooth="yes"/>
      <point x="292" y="427"/>
      <point x="242" y="412"/>
    </contour>
  </outline>
</glyph>
<glyph name="six" format="2">
  <advance width="616"/>
  <unicode hex="0036"/>
  <outline>
    <contour>
      <point x="43" y="330" type="curve" smooth="yes"/>
      <point x="43" y="99"/>
      <point x="145" y="-10"/>
      <point x="324" y="-10" type="curve" smooth="yes"/>
      <point x="493" y="-10"/>
      <point x="588" y="75"/>
      <point x="588" y="206" type="curve" smooth="yes"/>
      <point x="588" y="329"/>
      <point x="497" y="408"/>
      <point x="377" y="408" type="curve" smooth="yes"/>
      <point x="298" y="408"/>
      <point x="248" y="381"/>
      <point x="225" y="334" type="curve"/>
      <point x="223" y="334" type="line"/>
      <point x="223" y="341"/>
      <point x="223" y="344"/>
      <point x="223" y="349" type="curve" smooth="yes"/>
      <point x="223" y="457"/>
      <point x="269" y="512"/>
      <point x="331" y="512" type="curve" smooth="yes"/>
      <point x="378" y="512"/>
      <point x="405" y="487"/>
      <point x="416" y="444" type="curve"/>
      <point x="580" y="521" type="line"/>
      <point x="546" y="631"/>
      <point x="450" y="670"/>
      <point x="344" y="670" type="curve" smooth="yes"/>
      <point x="172" y="670"/>
      <point x="43" y="569"/>
    </contour>
    <contour>
      <point x="406" y="208" type="curve" smooth="yes"/>
      <point x="406" y="163"/>
      <point x="378" y="137"/>
      <point x="329" y="137" type="curve" smooth="yes"/>
      <point x="281" y="137"/>
      <point x="253" y="163"/>
      <point x="253" y="208" type="curve" smooth="yes"/>
      <point x="253" y="252"/>
      <point x="281" y="279"/>
      <point x="329" y="279" type="curve" smooth="yes"/>
      <point x="378" y="279"/>
      <point x="406" y="253"/>
    </contour>
  </outline>
</glyph>
<glyph name="nine" format="2">
  <advance width="612"/>
  <unicode hex="0039"/>
  <outline>
    <contour>
      <point x="30" y="443" type="curve" smooth="yes"/>
      <point x="30" y="315"/>
      <point x="130" y="234"/>
      <point x="242" y="234" type="curve" smooth="yes"/>
      <point x="314" y="234"/>
      <point x="374" y="263"/>
      <point x="390" y="308" type="curve"/>
      <point x="394" y="308" type="line"/>
      <point x="394" y="300"/>
      <point x="394" y="295"/>
      <point x="394" y="289" type="curve" smooth="yes"/>
      <point x="394" y="190"/>
      <point x="358" y="140"/>
      <point x="293" y="140" type="curve" smooth="yes"/>
      <point x="249" y="140"/>
      <point x="230" y="162"/>
      <point x="222" y="200" type="curve"/>
      <point x="41" y="132" type="line"/>
      <point x="84" y="31"/>
      <point x="169" y="-10"/>
      <point x="289" y="-10" type="curve" smooth="yes"/>
      <point x="465" y="-10"/>
      <point x="578" y="84"/>
      <point x="578" y="325" type="curve" smooth="yes"/>
      <point x="578" y="560"/>
      <point x="476" y="670"/>
      <point x="298" y="670" type="curve" smooth="yes"/>
      <point x="127" y="670"/>
      <point x="30" y="585"/>
    </contour>
    <contour>
      <point x="368" y="444" type="curve" smooth="yes"/>
      <point x="368" y="399"/>
      <point x="340" y="373"/>
      <point x="291" y="373" type="curve" smooth="yes"/>
      <point x="242" y="373"/>
      <point x="215" y="399"/>
      <point x="215" y="444" type="curve" smooth="yes"/>
      <point x="215" y="489"/>
      <point x="242" y="515"/>
      <point x="291" y="515" type="curve" smooth="yes"/>
      <point x="340" y="515"/>
      <point x="368" y="488"/>
    </contour>
  </outline>
</glyph>
<glyph name="less" format="2">
  <advance width="604"/>
  <unicode hex="003C"/>
  <outline>
    <contour>
      <point x="555" y="405" type="line"/>
      <point x="555" y="594" type="line"/>
      <point x="60" y="379" type="line"/>
      <point x="60" y="249" type="line"/>
    </contour>
    <contour>
      <point x="60" y="342" type="line"/>
      <point x="60" y="212" type="line"/>
      <point x="555" y="-3" type="line"/>
      <point x="555" y="186" type="line"/>
    </contour>
  </outline>
</glyph>
<glyph name="equal" format="2">
  <advance width="604"/>
  <unicode hex="003D"/>
  <outline>
    <contour>
      <point x="65" y="498" type="line"/>
      <point x="65" y="366" type="line"/>
      <point x="539" y="366" type="line"/>
      <point x="539" y="498" type="line"/>
    </contour>
    <contour>
      <point x="65" y="276" type="line"/>
      <point x="65" y="144" type="line"/>
      <point x="539" y="144" type="line"/>
      <point x="539" y="276" type="line"/>
    </contour>
  </outline>
</glyph>
<glyph name="question" format="2">
  <advance width="631"/>
  <unicode hex="003F"/>
  <outline>
    <contour>
      <point x="30" y="492" type="curve"/>
      <point x="227" y="422" type="line"/>
      <point x="230" y="482"/>
      <point x="260" y="510"/>
      <point x="307" y="510" type="curve" smooth="yes"/>
      <point x="351" y="510"/>
      <point x="372" y="490"/>
      <point x="372" y="453" type="curve" smooth="yes"/>
      <point x="372" y="408"/>
      <point x="331" y="376"/>
      <point x="206" y="369" type="curve"/>
      <point x="219" y="216" type="line"/>
      <point x="386" y="216" type="line"/>
      <point x="400" y="295" type="line"/>
      <point x="509" y="306"/>
      <point x="591" y="355"/>
      <point x="591" y="485" type="curve" smooth="yes"/>
      <point x="591" y="618"/>
      <point x="478" y="670"/>
      <point x="320" y="670" type="curve" smooth="yes"/>
      <point x="120" y="670"/>
      <point x="41" y="591"/>
    </contour>
    <component base="period" xScale="0.9593333333333333" yScale="0.9186666666666667" xOffset="161"/>
  </outline>
</glyph>
<glyph name="at" format="2">
  <advance width="932"/>
  <unicode hex="0040"/>
  <outline>
    <contour>
      <point x="43" y="223" type="curve" smooth="yes"/>
      <point x="43" y="-35"/>
      <point x="217" y="-180"/>
      <point x="444" y="-180" type="curve" smooth="yes"/>
      <point x="574" y="-180"/>
      <point x="633" y="-151"/>
      <point x="690" y="-111" type="curve"/>
      <point x="645" y="-47" type="line"/>
      <point x="603" y="-79"/>
      <point x="556" y="-100"/>
      <point x="448" y="-100" type="curve" smooth="yes"/>
      <point x="287" y="-100"/>
      <point x="135" y="8"/>
      <point x="135" y="223" type="curve" smooth="yes"/>
      <point x="135" y="448"/>
      <point x="280" y="579"/>
      <point x="488" y="579" type="curve" smooth="yes"/>
      <point x="677" y="579"/>
      <point x="804" y="477"/>
      <point x="804" y="260" type="curve" smooth="yes"/>
      <point x="804" y="152"/>
      <point x="764" y="98"/>
      <point x="715" y="98" type="curve" smooth="yes"/>
      <point x="670" y="98"/>
      <point x="659" y="122"/>
      <point x="668" y="180" type="curve" smooth="yes"/>
      <point x="714" y="457" type="line"/>
      <point x="567" y="457" type="line"/>
      <point x="546" y="394" type="line"/>
      <point x="540" y="424"/>
      <point x="514" y="468"/>
      <point x="448" y="468" type="curve" smooth="yes"/>
      <point x="320" y="468"/>
      <point x="217" y="377"/>
      <point x="217" y="187" type="curve" smooth="yes"/>
      <point x="217" y="82"/>
      <point x="275" y="3"/>
      <point x="376" y="3" type="curve" smooth="yes"/>
      <point x="439" y="3"/>
      <point x="486" y="30"/>
      <point x="521" y="85" type="curve"/>
      <point x="548" y="31"/>
      <point x="599" y="2"/>
      <point x="669" y="2" type="curve" smooth="yes"/>
      <point x="775" y="2"/>
      <point x="887" y="72"/>
      <point x="887" y="260" type="curve" smooth="yes"/>
      <point x="887" y="521"/>
      <point x="725" y="660"/>
      <point x="488" y="660" type="curve" smooth="yes"/>
      <point x="232" y="660"/>
      <point x="43" y="488"/>
    </contour>
    <contour>
      <point x="509" y="281" type="curve" smooth="yes"/>
      <point x="496" y="189" type="line" smooth="yes"/>
      <point x="491" y="155"/>
      <point x="465" y="139"/>
      <point x="439" y="139" type="curve" smooth="yes"/>
      <point x="407" y="139"/>
      <point x="389" y="165"/>
      <point x="389" y="213" type="curve" smooth="yes"/>
      <point x="389" y="292"/>
      <point x="429" y="340"/>
      <point x="471" y="340" type="curve" smooth="yes"/>
      <point x="504" y="340"/>
      <point x="514" y="320"/>
    </contour>
  </outline>
</glyph>
<glyph name="B" format="2">
  <advance width="694"/>
  <unicode hex="0042"/>
  <anchor x="323" y="660" name="top"/>
  <anchor x="407" y="0" name="ogonek"/>
  <anchor x="323" y="0" name="bottom"/>
  <anchor x="326" y="0" name="bottomC"/>
  <outline>
    <contour>
      <point x="433" y="0" type="line" smooth="yes"/>
      <point x="593" y="0"/>
      <point x="672" y="61"/>
      <point x="672" y="176" type="curve" smooth="yes"/>
      <point x="672" y="259"/>
      <point x="621" y="319"/>
      <point x="513" y="332" type="curve"/>
      <point x="513" y="333" type="line"/>
      <point x="609" y="347"/>
      <point x="655" y="406"/>
      <point x="655" y="483" type="curve" smooth="yes"/>
      <point x="655" y="599"/>
      <point x="577" y="659"/>
      <point x="412" y="660" type="curve" smooth="yes"/>
      <point x="61" y="660" type="line"/>
      <point x="61" y="0" type="line"/>
    </contour>
    <contour>
      <point x="257" y="257" type="line"/>
      <point x="386" y="257" type="line" smooth="yes"/>
      <point x="438" y="257"/>
      <point x="463" y="236"/>
      <point x="463" y="198" type="curve" smooth="yes"/>
      <point x="463" y="158"/>
      <point x="438" y="138"/>
      <point x="386" y="138" type="curve" smooth="yes"/>
      <point x="257" y="138" type="line"/>
    </contour>
    <contour>
      <point x="257" y="516" type="line"/>
      <point x="369" y="516" type="line" smooth="yes"/>
      <point x="421" y="516"/>
      <point x="446" y="496"/>
      <point x="446" y="457" type="curve" smooth="yes"/>
      <point x="446" y="417"/>
      <point x="421" y="398"/>
      <point x="369" y="398" type="curve" smooth="yes"/>
      <point x="257" y="398" type="line"/>
    </contour>
  </outline>
</glyph>
<glyph name="D" format="2">
  <advance width="717"/>
  <unicode hex="0044"/>
  <anchor x="330" y="0" name="bottom"/>
  <anchor x="330" y="660" name="top"/>
  <anchor x="364" y="0" name="ogonek"/>
  <anchor x="81" y="73" name="center"/>
  <anchor x="341" y="0" name="bottomC"/>
  <outline>
    <contour>
      <point x="205" y="660" type="line"/>
      <point x="205" y="511" type="line"/>
      <point x="339" y="511" type="line" smooth="yes"/>
      <point x="437" y="511"/>
      <point x="471" y="452"/>
      <point x="471" y="330" type="curve" smooth="yes"/>
      <point x="471" y="208"/>
      <point x="437" y="149"/>
      <point x="339" y="149" type="curve" smooth="yes"/>
      <point x="205" y="149" type="line"/>
      <point x="205" y="0" type="line"/>
      <point x="364" y="0" type="line" smooth="yes"/>
      <point x="571" y="0"/>
      <point x="681" y="120"/>
      <point x="681" y="330" type="curve" smooth="yes"/>
      <point x="681" y="540"/>
      <point x="571" y="660"/>
      <point x="364" y="660" type="curve" smooth="yes"/>
    </contour>
    <contour>
      <point x="61" y="660" type="line"/>
      <point x="61" y="0" type="line"/>
      <point x="265" y="0" type="line"/>
      <point x="265" y="660" type="line"/>
    </contour>
  </outline>
</glyph>
<glyph name="E" format="2">
  <advance width="628"/>
  <unicode hex="0045"/>
  <anchor x="318" y="660" name="top"/>
  <anchor x="606" y="0" name="ogonek"/>
  <anchor x="331" y="0" name="bottom"/>
  <anchor x="331" y="0" name="bottomC"/>
  <outline>
    <contour>
      <point x="61" y="660" type="line"/>
      <point x="61" y="0" type="line"/>
      <point x="265" y="0" type="line"/>
      <point x="265" y="660" type="line"/>
    </contour>
    <contour>
      <point x="160" y="153" type="line"/>
      <point x="160" y="0" type="line"/>
      <point x="606" y="0" type="line"/>
      <point x="606" y="153" type="line"/>
    </contour>
    <contour>
      <point x="160" y="400" type="line"/>
      <point x="160" y="258" type="line"/>
      <point x="527" y="258" type="line"/>
      <point x="527" y="400" type="line"/>
    </contour>
    <contour>
      <point x="160" y="660" type="line"/>
      <point x="160" y="507" type="line"/>
      <point x="593" y="507" type="line"/>
      <point x="593" y="660" type="line"/>
    </contour>
  </outline>
</glyph>
<glyph name="F" format="2">
  <advance width="613"/>
  <unicode hex="0046"/>
  <anchor x="312" y="660" name="top"/>
  <anchor x="265" y="0" name="ogonek"/>
  <anchor x="163" y="0" name="bottom"/>
  <anchor x="167" y="0" name="bottomC"/>
  <outline>
    <contour>
      <point x="61" y="660" type="line"/>
      <point x="61" y="0" type="line"/>
      <point x="265" y="0" type="line"/>
      <point x="265" y="660" type="line"/>
    </contour>
    <contour>
      <point x="160" y="392" type="line"/>
      <point x="160" y="239" type="line"/>
      <point x="527" y="239" type="line"/>
      <point x="527" y="392" type="line"/>
    </contour>
    <contour>
      <point x="160" y="660" type="line"/>
      <point x="160" y="507" type="line"/>
      <point x="592" y="507" type="line"/>
      <point x="592" y="660" type="line"/>
    </contour>
  </outline>
</glyph>
<glyph name="K" format="2">
  <advance width="706"/>
  <unicode hex="004B"/>
  <anchor x="358" y="660" name="top"/>
  <anchor x="704" y="0" name="ogonek"/>
  <anchor x="359" y="0" name="bottom"/>
  <anchor x="602" y="0" name="bottomC"/>
  <outline>
    <contour>
      <point x="467" y="660" type="line"/>
      <point x="166" y="258" type="line"/>
      <point x="210" y="107" type="line"/>
      <point x="361" y="302" type="line"/>
      <point x="371" y="263" type="line"/>
      <point x="688" y="660" type="line"/>
    </contour>
    <contour>
      <point x="61" y="660" type="line"/>
      <point x="61" y="0" type="line"/>
      <point x="265" y="0" type="line"/>
      <point x="265" y="660" type="line"/>
    </contour>
    <contour>
      <point x="293" y="338" type="line"/>
      <point x="473" y="0" type="line"/>
      <point x="704" y="0" type="line"/>
      <point x="444" y="451" type="line"/>
    </contour>
  </outline>
</glyph>
<glyph name="L" format="2">
  <advance width="604"/>
  <unicode hex="004C"/>
  <anchor x="416" y="360" name="center"/>
  <anchor x="326" y="0" name="bottom"/>
  <anchor x="163" y="660" name="top"/>
  <anchor x="326" y="0" name="bottomC"/>
  <anchor x="372" y="701" name="topright"/>
  <anchor x="579" y="0" name="ogonek"/>
  <outline>
    <contour>
      <point x="61" y="660" type="line"/>
      <point x="61" y="0" type="line"/>
      <point x="265" y="0" type="line"/>
      <point x="265" y="660" type="line"/>
    </contour>
    <contour>
      <point x="160" y="153" type="line"/>
      <point x="160" y="0" type="line"/>
      <point x="579" y="0" type="line"/>
      <point x="579" y="153" type="line"/>
    </contour>
  </outline>
</glyph>
<glyph name="M" format="2">
  <advance width="930"/>
  <unicode hex="004D"/>
  <anchor x="465" y="660" name="top"/>
  <anchor x="870" y="0" name="ogonek"/>
  <anchor x="465" y="0" name="bottom"/>
  <anchor x="484" y="0" name="bottomC"/>
  <outline>
    <contour>
      <point x="595" y="660" type="line"/>
      <point x="506" y="347" type="line"/>
      <point x="473" y="216" type="line"/>
      <point x="471" y="216" type="line"/>
      <point x="438" y="347" type="line"/>
      <point x="349" y="660" type="line"/>
      <point x="61" y="660" type="line"/>
      <point x="61" y="0" type="line"/>
      <point x="241" y="0" type="line"/>
      <point x="241" y="264" type="line"/>
      <point x="237" y="477" type="line"/>
      <point x="240" y="477" type="line"/>
      <point x="383" y="0" type="line"/>
      <point x="547" y="0" type="line"/>
      <point x="692" y="477" type="line"/>
      <point x="694" y="477" type="line"/>
      <point x="690" y="264" type="line"/>
      <point x="690" y="0" type="line"/>
      <point x="870" y="0" type="line"/>
      <point x="870" y="660" type="line"/>
    </contour>
  </outline>
</glyph>
<glyph name="R" format="2">
  <advance width="698"/>
  <unicode hex="0052"/>
  <anchor x="332" y="660" name="top"/>
  <anchor x="695" y="0" name="ogonek"/>
  <anchor x="363" y="0" name="bottom"/>
  <anchor x="593" y="0" name="bottomC"/>
  <outline>
    <contour>
      <point x="197" y="660" type="line"/>
      <point x="197" y="511" type="line"/>
      <point x="360" y="511" type="line" smooth="yes"/>
      <point x="426" y="511"/>
      <point x="452" y="490"/>
      <point x="452" y="439" type="curve" smooth="yes"/>
      <point x="452" y="388"/>
      <point x="426" y="368"/>
      <point x="360" y="368" type="curve" smooth="yes"/>
      <point x="197" y="368" type="line"/>
      <point x="197" y="229" type="line"/>
      <point x="399" y="229" type="line" smooth="yes"/>
      <point x="567" y="229"/>
      <point x="657" y="303"/>
      <point x="657" y="444" type="curve" smooth="yes"/>
      <point x="657" y="586"/>
      <point x="567" y="660"/>
      <point x="399" y="660" type="curve" smooth="yes"/>
    </contour>
    <contour>
      <point x="61" y="660" type="line"/>
      <point x="61" y="0" type="line"/>
      <point x="261" y="0" type="line"/>
      <point x="261" y="660" type="line"/>
    </contour>
    <contour>
      <point x="311" y="289" type="line"/>
      <point x="472" y="0" type="line"/>
      <point x="695" y="0" type="line"/>
      <point x="487" y="325" type="line"/>
    </contour>
  </outline>
</glyph>
<glyph name="T" format="2">
  <advance width="671"/>
  <unicode hex="0054"/>
  <anchor x="335" y="0" name="bottom"/>
  <anchor x="335" y="660" name="top"/>
  <anchor x="438" y="0" name="ogonek"/>
  <anchor x="335" y="330" name="center"/>
  <anchor x="365" y="0" name="bottomC"/>
  <outline>
    <contour>
      <point x="234" y="660" type="line"/>
      <point x="234" y="0" type="line"/>
      <point x="438" y="0" type="line"/>
      <point x="438" y="660" type="line"/>
    </contour>
    <contour>
      <point x="22" y="660" type="line"/>
      <point x="22" y="507" type="line"/>
      <point x="648" y="507" type="line"/>
      <point x="648" y="660" type="line"/>
    </contour>
  </outline>
</glyph>
<glyph name="U" format="2">
  <advance width="710"/>
  <unicode hex="0055"/>
  <anchor x="355" y="660" name="top"/>
  <anchor x="489" y="11" name="ogonek"/>
  <anchor x="355" y="0" name="bottom"/>
  <anchor x="355" y="0" name="bottomC"/>
  <outline>
    <contour>
      <point x="458" y="660" type="line"/>
      <point x="458" y="266" type="line" smooth="yes"/>
      <point x="458" y="186"/>
      <point x="424" y="146"/>
      <point x="355" y="146" type="curve" smooth="yes"/>
      <point x="287" y="146"/>
      <point x="253" y="186"/>
      <point x="253" y="266" type="curve" smooth="yes"/>
      <point x="253" y="660" type="line"/>
      <point x="47" y="660" type="line"/>
      <point x="47" y="277" type="line" smooth="yes"/>
      <point x="47" y="85"/>
      <point x="151" y="-10"/>
      <point x="355" y="-10" type="curve" smooth="yes"/>
      <point x="560" y="-10"/>
      <point x="663" y="85"/>
      <point x="663" y="277" type="curve" smooth="yes"/>
      <point x="663" y="660" type="line"/>
    </contour>
  </outline>
</glyph>
<glyph name="W" format="2">
  <advance width="1010"/>
  <unicode hex="0057"/>
  <anchor x="505" y="660" name="top"/>
  <anchor x="820" y="0" name="ogonek"/>
  <anchor x="505" y="0" name="bottom"/>
  <anchor x="710" y="0" name="bottomC"/>
  <outline>
    <contour>
      <point x="506" y="447" type="line"/>
      <point x="509" y="447" type="line"/>
      <point x="536" y="282" type="line"/>
      <point x="600" y="0" type="line"/>
      <point x="820" y="0" type="line"/>
      <point x="1009" y="660" type="line"/>
      <point x="797" y="660" type="line"/>
      <point x="706" y="163" type="line"/>
      <point x="597" y="660" type="line"/>
      <point x="417" y="660" type="line"/>
      <point x="313" y="161" type="line"/>
      <point x="220" y="660" type="line"/>
      <point x="0" y="660" type="line"/>
      <point x="189" y="0" type="line"/>
      <point x="415" y="0" type="line"/>
      <point x="479" y="282" type="line"/>
    </contour>
  </outline>
</glyph>
<glyph name="Z" format="2">
  <advance width="636"/>
  <unicode hex="005A"/>
  <anchor x="325" y="660" name="top"/>
  <anchor x="613" y="0" name="ogonek"/>
  <anchor x="306" y="0" name="bottom"/>
  <anchor x="306" y="0" name="bottomC"/>
  <outline>
    <contour>
      <point x="602" y="517" type="line"/>
      <point x="602" y="660" type="line"/>
      <point x="36" y="660" type="line"/>
      <point x="36" y="511" type="line"/>
      <point x="482" y="511" type="line"/>
      <point x="447" y="579" type="line"/>
      <point x="31" y="143" type="line"/>
      <point x="31" y="0" type="line"/>
      <point x="613" y="0" type="line"/>
      <point x="613" y="149" type="line"/>
      <point x="151" y="149" type="line"/>
      <point x="187" y="81" type="line"/>
    </contour>
  </outline>
</glyph>
<glyph name="a" format="2">
  <advance width="584"/>
  <unicode hex="0061"/>
  <anchor x="277" y="500" name="top"/>
  <anchor x="571" y="8" name="ogonek"/>
  <anchor x="277" y="0" name="bottom"/>
  <anchor x="513" y="0" name="bottomC"/>
  <outline>
    <contour>
      <point x="30" y="340" type="curve"/>
      <point x="196" y="308" type="line"/>
      <point x="202" y="360"/>
      <point x="230" y="376"/>
      <point x="266" y="376" type="curve" smooth="yes"/>
      <point x="303" y="376"/>
      <point x="324" y="353"/>
      <point x="324" y="315" type="curve" smooth="yes"/>
      <point x="324" y="112" type="line"/>
      <point x="350" y="114" type="line" smooth="yes"/>
      <point x="350" y="29"/>
      <point x="409" y="-10"/>
      <point x="500" y="-10" type="curve" smooth="yes"/>
      <point x="525" y="-10"/>
      <point x="549" y="-4"/>
      <point x="571" y="8" type="curve"/>
      <point x="587" y="115" type="line"/>
      <point x="580" y="112"/>
      <point x="570" y="111"/>
      <point x="559" y="111" type="curve" smooth="yes"/>
      <point x="536" y="111"/>
      <point x="524" y="124"/>
      <point x="524" y="151" type="curve" smooth="yes"/>
      <point x="524" y="311" type="line" smooth="yes"/>
      <point x="524" y="444"/>
      <point x="443" y="510"/>
      <point x="276" y="510" type="curve" smooth="yes"/>
      <point x="125" y="510"/>
      <point x="43" y="445"/>
    </contour>
    <contour>
      <point x="219" y="272" type="line" smooth="yes"/>
      <point x="79" y="243"/>
      <point x="24" y="193"/>
      <point x="24" y="112" type="curve" smooth="yes"/>
      <point x="24" y="33"/>
      <point x="78" y="-10"/>
      <point x="181" y="-10" type="curve" smooth="yes"/>
      <point x="313" y="-10"/>
      <point x="379" y="68"/>
      <point x="379" y="157" type="curve"/>
      <point x="324" y="165" type="line"/>
      <point x="324" y="126"/>
      <point x="295" y="105"/>
      <point x="260" y="105" type="curve" smooth="yes"/>
      <point x="234" y="105"/>
      <point x="215" y="118"/>
      <point x="215" y="145" type="curve" smooth="yes"/>
      <point x="215" y="174"/>
      <point x="237" y="195"/>
      <point x="276" y="205" type="curve" smooth="yes"/>
      <point x="373" y="230" type="line"/>
      <point x="357" y="301" type="line"/>
    </contour>
  </outline>
</glyph>
<glyph name="b" format="2">
  <advance width="628"/>
  <unicode hex="0062"/>
  <anchor x="150" y="706" name="top"/>
  <anchor x="484" y="11" name="ogonek"/>
  <anchor x="318" y="0" name="bottom"/>
  <anchor x="419" y="0" name="bottomC"/>
  <outline>
    <contour>
      <point x="49" y="706" type="line"/>
      <point x="49" y="200" type="line"/>
      <point x="49" y="0" type="line"/>
      <point x="226" y="0" type="line"/>
      <point x="234" y="154" type="line"/>
      <point x="251" y="209" type="line"/>
      <point x="251" y="706" type="line"/>
    </contour>
    <component base="bowl" xScale="-1.0" xOffset="675"/>
  </outline>
</glyph>
<glyph name="c" format="2">
  <advance width="574"/>
  <unicode hex="0063"/>
  <anchor x="297" y="500" name="top"/>
  <anchor x="421" y="11" name="ogonek"/>
  <anchor x="297" y="0" name="bottom"/>
  <anchor x="311" y="0" name="bottomC"/>
  <outline>
    <contour>
      <point x="28" y="250" type="curve" smooth="yes"/>
      <point x="28" y="85"/>
      <point x="125" y="-10"/>
      <point x="308" y="-10" type="curve" smooth="yes"/>
      <point x="460" y="-10"/>
      <point x="545" y="60"/>
      <point x="551" y="145" type="curve"/>
      <point x="370" y="202" type="line"/>
      <point x="364" y="155"/>
      <point x="345" y="129"/>
      <point x="307" y="129" type="curve" smooth="yes"/>
      <point x="261" y="129"/>
      <point x="231" y="155"/>
      <point x="231" y="248" type="curve" smooth="yes"/>
      <point x="231" y="337"/>
      <point x="256" y="371"/>
      <point x="308" y="371" type="curve" smooth="yes"/>
      <point x="343" y="371"/>
      <point x="363" y="345"/>
      <point x="365" y="290" type="curve"/>
      <point x="552" y="347" type="line"/>
      <point x="543" y="428"/>
      <point x="482" y="510"/>
      <point x="298" y="510" type="curve" smooth="yes"/>
      <point x="127" y="510"/>
      <point x="28" y="415"/>
    </contour>
  </outline>
</glyph>
<glyph name="e" format="2">
  <advance width="583"/>
  <unicode hex="0065"/>
  <anchor x="296" y="500" name="top"/>
  <anchor x="354" y="37" name="ogonek"/>
  <anchor x="294" y="0" name="bottom"/>
  <anchor x="305" y="0" name="bottomC"/>
  <outline>
    <contour>
      <point x="546" y="129" type="curve"/>
      <point x="383" y="176" type="line"/>
      <point x="374" y="145"/>
      <point x="349" y="128"/>
      <point x="308" y="128" type="curve" smooth="yes"/>
      <point x="250" y="128"/>
      <point x="220" y="154"/>
      <point x="220" y="247" type="curve" smooth="yes"/>
      <point x="220" y="339"/>
      <point x="244" y="373"/>
      <point x="298" y="373" type="curve" smooth="yes"/>
      <point x="351" y="373"/>
      <point x="367" y="329"/>
      <point x="367" y="250" type="curve"/>
      <point x="463" y="291" type="line"/>
      <point x="158" y="291" type="line"/>
      <point x="158" y="209" type="line"/>
      <point x="551" y="209" type="line"/>
      <point x="553" y="222"/>
      <point x="555" y="246"/>
      <point x="555" y="268" type="curve" smooth="yes"/>
      <point x="555" y="411"/>
      <point x="467" y="510"/>
      <point x="297" y="510" type="curve" smooth="yes"/>
      <point x="126" y="510"/>
      <point x="28" y="415"/>
      <point x="28" y="250" type="curve" smooth="yes"/>
      <point x="28" y="85"/>
      <point x="125" y="-10"/>
      <point x="308" y="-10" type="curve" smooth="yes"/>
      <point x="427" y="-10"/>
      <point x="520" y="36"/>
    </contour>
  </outline>
</glyph>
<glyph name="f" format="2">
  <advance width="423"/>
  <unicode hex="0066"/>
  <anchor x="253" y="706" name="top"/>
  <anchor x="284" y="0" name="ogonek"/>
  <anchor x="183" y="0" name="bottom"/>
  <anchor x="183" y="0" name="bottomC"/>
  <outline>
    <contour>
      <point x="82" y="532" type="curve" smooth="yes"/>
      <point x="82" y="0" type="line"/>
      <point x="284" y="0" type="line"/>
      <point x="284" y="431" type="line"/>
      <point x="271" y="459" type="line"/>
      <point x="271" y="521" type="line" smooth="yes"/>
      <point x="271" y="570"/>
      <point x="300" y="587"/>
      <point x="350" y="587" type="curve" smooth="yes"/>
      <point x="377" y="587"/>
      <point x="393" y="582"/>
      <point x="407" y="571" type="curve"/>
      <point x="423" y="692" type="line"/>
      <point x="399" y="711"/>
      <point x="355" y="723"/>
      <point x="298" y="723" type="curve" smooth="yes"/>
      <point x="184" y="723"/>
      <point x="82" y="672"/>
    </contour>
    <contour>
      <point x="8" y="500" type="line"/>
      <point x="8" y="361" type="line"/>
      <point x="417" y="361" type="line"/>
      <point x="417" y="500" type="line"/>
    </contour>
  </outline>
</glyph>
<glyph name="g" format="2">
  <advance width="569"/>
  <unicode hex="0067"/>
  <anchor x="257" y="500" name="top"/>
  <anchor x="419" y="-199" name="ogonek"/>
  <anchor x="292" y="-210" name="bottom"/>
  <anchor x="292" y="-210" name="bottomC"/>
  <outline>
    <contour>
      <point x="385" y="471" type="curve"/>
      <point x="448" y="451" type="line"/>
      <point x="448" y="495"/>
      <point x="490" y="536"/>
      <point x="569" y="520" type="curve"/>
      <point x="550" y="649" type="line"/>
      <point x="430" y="661"/>
      <point x="384" y="562"/>
    </contour>
    <component base="gbase" xOffset="-7"/>
  </outline>
</glyph>
<glyph name="h" format="2">
  <advance width="620"/>
  <unicode hex="0068"/>
  <anchor x="150" y="706" name="top"/>
  <anchor x="572" y="0" name="ogonek"/>
  <anchor x="310" y="0" name="bottom"/>
  <anchor x="471" y="0" name="bottomC"/>
  <outline>
    <contour>
      <point x="49" y="706" type="line"/>
      <point x="49" y="0" type="line"/>
      <point x="251" y="0" type="line"/>
      <point x="251" y="706" type="line"/>
    </contour>
    <contour>
      <point x="228" y="267" type="curve"/>
      <point x="251" y="263" type="line"/>
      <point x="251" y="330"/>
      <point x="279" y="359"/>
      <point x="319" y="359" type="curve" smooth="yes"/>
      <point x="351" y="359"/>
      <point x="370" y="341"/>
      <point x="370" y="284" type="curve" smooth="yes"/>
      <point x="370" y="0" type="line"/>
      <point x="572" y="0" type="line"/>
      <point x="572" y="338" type="line" smooth="yes"/>
      <point x="572" y="449"/>
      <point x="509" y="510"/>
      <point x="408" y="510" type="curve" smooth="yes"/>
      <point x="294" y="510"/>
      <point x="228" y="424"/>
    </contour>
  </outline>
</glyph>
<glyph name="j" format="2">
  <advance width="299"/>
  <unicode hex="006A"/>
  <anchor x="149" y="713" name="top"/>
  <anchor x="133" y="-204" name="ogonek"/>
  <anchor x="76" y="-210" name="bottom"/>
  <anchor x="76" y="-210" name="bottomC"/>
  <outline>
    <contour>
      <point x="37" y="633" type="curve" smooth="yes"/>
      <point x="37" y="570"/>
      <point x="69" y="544"/>
      <point x="149" y="544" type="curve" smooth="yes"/>
      <point x="231" y="544"/>
      <point x="263" y="570"/>
      <point x="263" y="633" type="curve" smooth="yes"/>
      <point x="263" y="696"/>
      <point x="231" y="723"/>
      <point x="149" y="723" type="curve" smooth="yes"/>
      <point x="69" y="723"/>
      <point x="37" y="696"/>
    </contour>
    <component base="jdotless"/>
  </outline>
</glyph>
<glyph name="n" format="2">
  <advance width="620"/>
  <unicode hex="006E"/>
  <anchor x="311" y="500" name="top"/>
  <anchor x="572" y="0" name="ogonek"/>
  <anchor x="310" y="0" name="bottom"/>
  <anchor x="471" y="0" name="bottomC"/>
  <outline>
    <contour>
      <point x="214" y="267" type="curve"/>
      <point x="251" y="263" type="line"/>
      <point x="251" y="331"/>
      <point x="279" y="359"/>
      <point x="319" y="359" type="curve" smooth="yes"/>
      <point x="351" y="359"/>
      <point x="370" y="341"/>
      <point x="370" y="284" type="curve" smooth="yes"/>
      <point x="370" y="0" type="line"/>
      <point x="572" y="0" type="line"/>
      <point x="572" y="338" type="line" smooth="yes"/>
      <point x="572" y="449"/>
      <point x="509" y="510"/>
      <point x="408" y="510" type="curve" smooth="yes"/>
      <point x="286" y="510"/>
      <point x="214" y="424"/>
    </contour>
    <contour>
      <point x="49" y="500" type="line"/>
      <point x="49" y="300" type="line"/>
      <point x="49" y="0" type="line"/>
      <point x="251" y="0" type="line"/>
      <point x="251" y="299" type="line"/>
      <point x="238" y="346" type="line"/>
      <point x="231" y="500" type="line"/>
    </contour>
  </outline>
</glyph>
<glyph name="o" format="2">
  <advance width="600"/>
  <unicode hex="006F"/>
  <anchor x="300" y="500" name="top"/>
  <anchor x="422" y="11" name="ogonek"/>
  <anchor x="300" y="0" name="bottom"/>
  <anchor x="300" y="0" name="bottomC"/>
  <outline>
    <contour>
      <point x="28" y="250" type="curve" smooth="yes"/>
      <point x="28" y="86"/>
      <point x="128" y="-10"/>
      <point x="300" y="-10" type="curve" smooth="yes"/>
      <point x="472" y="-10"/>
      <point x="572" y="86"/>
      <point x="572" y="250" type="curve" smooth="yes"/>
      <point x="572" y="414"/>
      <point x="472" y="510"/>
      <point x="300" y="510" type="curve" smooth="yes"/>
      <point x="128" y="510"/>
      <point x="28" y="414"/>
    </contour>
    <contour>
      <point x="369" y="250" type="curve" smooth="yes"/>
      <point x="369" y="159"/>
      <point x="350" y="129"/>
      <point x="300" y="129" type="curve" smooth="yes"/>
      <point x="250" y="129"/>
      <point x="231" y="159"/>
      <point x="231" y="250" type="curve" smooth="yes"/>
      <point x="231" y="341"/>
      <point x="250" y="371"/>
      <point x="300" y="371" type="curve" smooth="yes"/>
      <point x="350" y="371"/>
      <point x="369" y="341"/>
    </contour>
  </outline>
</glyph>
<glyph name="p" format="2">
  <advance width="628"/>
  <unicode hex="0070"/>
  <anchor x="318" y="500" name="top"/>
  <anchor x="484" y="11" name="ogonek"/>
  <anchor x="150" y="-210" name="bottom"/>
  <anchor x="419" y="0" name="bottomC"/>
  <outline>
    <contour>
      <point x="49" y="500" type="line"/>
      <point x="49" y="300" type="line"/>
      <point x="49" y="-210" type="line"/>
      <point x="251" y="-210" type="line"/>
      <point x="251" y="299" type="line"/>
      <point x="234" y="346" type="line"/>
      <point x="226" y="500" type="line"/>
    </contour>
    <component base="bowl" xScale="-1.0" yScale="-1.0" xOffset="675" yOffset="500"/>
  </outline>
</glyph>
<glyph name="r" format="2">
  <advance width="437"/>
  <unicode hex="0072"/>
  <anchor x="237" y="500" name="top"/>
  <anchor x="251" y="0" name="ogonek"/>
  <anchor x="144" y="0" name="bottom"/>
  <anchor x="150" y="0" name="bottomC"/>
  <outline>
    <contour>
      <point x="219" y="250" type="curve"/>
      <point x="251" y="246" type="line"/>
      <point x="251" y="313"/>
      <point x="296" y="346"/>
      <point x="356" y="346" type="curve" smooth="yes"/>
      <point x="383" y="346"/>
      <point x="407" y="340"/>
      <point x="419" y="331" type="curve"/>
      <point x="438" y="498" type="line"/>
      <point x="429" y="504"/>
      <point x="413" y="510"/>
      <point x="385" y="510" type="curve" smooth="yes"/>
      <point x="269" y="510"/>
      <point x="219" y="402"/>
    </contour>
    <contour>
      <point x="49" y="500" type="line"/>
      <point x="49" y="0" type="line"/>
      <point x="251" y="0" type="line"/>
      <point x="251" y="298" type="line"/>
      <point x="239" y="321" type="line"/>
      <point x="230" y="500" type="line"/>
    </contour>
  </outline>
</glyph>
<glyph name="t" format="2">
  <advance width="440"/>
  <unicode hex="0074"/>
  <anchor x="157" y="250" name="center"/>
  <anchor x="252" y="0" name="bottom"/>
  <anchor x="189" y="706" name="top"/>
  <anchor x="287" y="0" name="bottomC"/>
  <anchor x="353" y="767" name="topright"/>
  <anchor x="401" y="11" name="ogonek"/>
  <outline>
    <contour>
      <point x="88" y="609" type="line"/>
      <point x="88" y="160" type="line" smooth="yes"/>
      <point x="88" y="36"/>
      <point x="160" y="-10"/>
      <point x="288" y="-10" type="curve" smooth="yes"/>
      <point x="339" y="-10"/>
      <point x="400" y="4"/>
      <point x="433" y="26" type="curve"/>
      <point x="420" y="144" type="line"/>
      <point x="401" y="133"/>
      <point x="381" y="127"/>
      <point x="353" y="127" type="curve" smooth="yes"/>
      <point x="311" y="127"/>
      <point x="290" y="145"/>
      <point x="290" y="192" type="curve" smooth="yes"/>
      <point x="290" y="665" type="line"/>
    </contour>
    <contour>
      <point x="7" y="500" type="line"/>
      <point x="7" y="361" type="line"/>
      <point x="427" y="361" type="line"/>
      <point x="427" y="500" type="line"/>
    </contour>
  </outline>
</glyph>
<glyph name="u" format="2">
  <advance width="620"/>
  <unicode hex="0075"/>
  <anchor x="305" y="500" name="top"/>
  <anchor x="571" y="0" name="ogonek"/>
  <anchor x="305" y="0" name="bottom"/>
  <anchor x="475" y="0" name="bottomC"/>
  <outline>
    <contour>
      <point x="47" y="500" type="line"/>
      <point x="47" y="164" type="line" smooth="yes"/>
      <point x="47" y="40"/>
      <point x="110" y="-10"/>
      <point x="213" y="-10" type="curve" smooth="yes"/>
      <point x="335" y="-10"/>
      <point x="406" y="69"/>
      <point x="406" y="233" type="curve"/>
      <point x="369" y="237" type="line"/>
      <point x="369" y="171"/>
      <point x="343" y="141"/>
      <point x="301" y="141" type="curve" smooth="yes"/>
      <point x="267" y="141"/>
      <point x="249" y="159"/>
      <point x="249" y="214" type="curve" smooth="yes"/>
      <point x="249" y="500" type="line"/>
    </contour>
    <contour>
      <point x="369" y="500" type="line"/>
      <point x="369" y="201" type="line"/>
      <point x="381" y="154" type="line"/>
      <point x="389" y="0" type="line"/>
      <point x="571" y="0" type="line"/>
      <point x="571" y="500" type="line"/>
    </contour>
  </outline>
</glyph>
<glyph name="braceleft" format="2">
  <advance width="445"/>
  <unicode hex="007B"/>
  <outline>
    <contour>
      <point x="158" y="545" type="curve" smooth="yes"/>
      <point x="158" y="435" type="line" smooth="yes"/>
      <point x="158" y="360"/>
      <point x="127" y="331"/>
      <point x="46" y="331" type="curve"/>
      <point x="46" y="250" type="line"/>
      <point x="217" y="250"/>
      <point x="316" y="277"/>
      <point x="316" y="389" type="curve" smooth="yes"/>
      <point x="316" y="516" type="line" smooth="yes"/>
      <point x="316" y="580"/>
      <point x="349" y="607"/>
      <point x="426" y="607" type="curve"/>
      <point x="424" y="731" type="line"/>
      <point x="232" y="731"/>
      <point x="158" y="683"/>
    </contour>
    <contour>
      <point x="46" y="207" type="line"/>
      <point x="127" y="207"/>
      <point x="158" y="178"/>
      <point x="158" y="103" type="curve" smooth="yes"/>
      <point x="158" y="-6" type="line" smooth="yes"/>
      <point x="158" y="-145"/>
      <point x="232" y="-192"/>
      <point x="424" y="-192" type="curve"/>
      <point x="426" y="-69" type="line"/>
      <point x="349" y="-69"/>
      <point x="316" y="-42"/>
      <point x="316" y="23" type="curve" smooth="yes"/>
      <point x="316" y="149" type="line" smooth="yes"/>
      <point x="316" y="262"/>
      <point x="217" y="288"/>
      <point x="46" y="288" type="curve"/>
    </contour>
  </outline>
</glyph>
<glyph name="asciitilde" format="2">
  <advance width="617"/>
  <unicode hex="007E"/>
  <outline>
    <contour>
      <point x="422" y="439" type="line"/>
      <point x="417" y="402"/>
      <point x="405" y="386"/>
      <point x="379" y="386" type="curve" smooth="yes"/>
      <point x="335" y="386"/>
      <point x="309" y="446"/>
      <point x="215" y="446" type="curve" smooth="yes"/>
      <point x="106" y="446"/>
      <point x="49" y="373"/>
      <point x="43" y="236" type="curve"/>
      <point x="195" y="236" type="line"/>
      <point x="200" y="273"/>
      <point x="213" y="289"/>
      <point x="238" y="289" type="curve" smooth="yes"/>
      <point x="282" y="289"/>
      <point x="309" y="229"/>
      <point x="403" y="229" type="curve" smooth="yes"/>
      <point x="511" y="229"/>
      <point x="569" y="302"/>
      <point x="574" y="439" type="curve"/>
    </contour>
  </outline>
</glyph>
<glyph name="cent" format="2">
  <advance width="578"/>
  <unicode hex="00A2"/>
  <outline>
    <contour>
      <point x="36" y="250" type="curve" smooth="yes"/>
      <point x="36" y="85"/>
      <point x="134" y="-10"/>
      <point x="315" y="-10" type="curve" smooth="yes"/>
      <point x="470" y="-10"/>
      <point x="556" y="54"/>
      <point x="557" y="146" type="curve"/>
      <point x="414" y="196" type="line"/>
      <point x="405" y="140"/>
      <point x="370" y="111"/>
      <point x="314" y="111" type="curve" smooth="yes"/>
      <point x="249" y="111"/>
      <point x="211" y="141"/>
      <point x="211" y="248" type="curve" smooth="yes"/>
      <point x="211" y="353"/>
      <point x="243" y="389"/>
      <point x="314" y="389" type="curve" smooth="yes"/>
      <point x="366" y="389"/>
      <point x="404" y="358"/>
      <point x="411" y="297" type="curve"/>
      <point x="557" y="347" type="line"/>
      <point x="553" y="432"/>
      <point x="489" y="510"/>
      <point x="307" y="510" type="curve" smooth="yes"/>
      <point x="136" y="510"/>
      <point x="36" y="415"/>
    </contour>
    <contour>
      <point x="263" y="600" type="line"/>
      <point x="263" y="-100" type="line"/>
      <point x="358" y="-100" type="line"/>
      <point x="358" y="600" type="line"/>
    </contour>
  </outline>
</glyph>
<glyph name="sterling" format="2">
  <advance width="623"/>
  <unicode hex="00A3"/>
  <outline>
    <contour>
      <point x="41" y="359" type="line"/>
      <point x="41" y="249" type="line"/>
      <point x="507" y="249" type="line"/>
      <point x="507" y="359" type="line"/>
    </contour>
    <component base="sterling.part" xOffset="11"/>
  </outline>
</glyph>
<glyph name="copyright" format="2">
  <advance width="755"/>
  <unicode hex="00A9"/>
  <outline>
    <contour>
      <point x="32" y="330" type="curve" smooth="yes"/>
      <point x="32" y="125"/>
      <point x="169" y="-10"/>
      <point x="377" y="-10" type="curve" smooth="yes"/>
      <point x="586" y="-10"/>
      <point x="723" y="125"/>
      <point x="723" y="330" type="curve" smooth="yes"/>
      <point x="723" y="535"/>
      <point x="586" y="670"/>
      <point x="377" y="670" type="curve" smooth="yes"/>
      <point x="169" y="670"/>
      <point x="32" y="535"/>
    </contour>
    <contour>
      <point x="193" y="330" type="curve" smooth="yes"/>
      <point x="193" y="212"/>
      <point x="263" y="136"/>
      <point x="370" y="136" type="curve" smooth="yes"/>
      <point x="478" y="136"/>
      <point x="521" y="170"/>
      <point x="555" y="256" type="curve"/>
      <point x="451" y="309" type="line"/>
      <point x="439" y="278"/>
      <point x="419" y="272"/>
      <point x="385" y="272" type="curve" smooth="yes"/>
      <point x="348" y="272"/>
      <point x="330" y="292"/>
      <point x="330" y="330" type="curve" smooth="yes"/>
      <point x="330" y="367"/>
      <point x="348" y="387"/>
      <point x="384" y="387" type="curve" smooth="yes"/>
      <point x="420" y="387"/>
      <point x="436" y="379"/>
      <point x="449" y="353" type="curve"/>
      <point x="558" y="407" type="line"/>
      <point x="536" y="477"/>
      <point x="481" y="523"/>
      <point x="370" y="523" type="curve" smooth="yes"/>
      <point x="263" y="523"/>
      <point x="193" y="447"/>
    </contour>
    <contour>
      <point x="627" y="330" type="curve" smooth="yes"/>
      <point x="627" y="179"/>
      <point x="529" y="80"/>
      <point x="377" y="80" type="curve" smooth="yes"/>
      <point x="226" y="80"/>
      <point x="128" y="179"/>
      <point x="128" y="330" type="curve" smooth="yes"/>
      <point x="128" y="481"/>
      <point x="226" y="580"/>
      <point x="377" y="580" type="curve" smooth="yes"/>
      <point x="529" y="580"/>
      <point x="627" y="481"/>
    </contour>
  </outline>
</glyph>
<glyph name="logicalnot" format="2">
  <advance width="604"/>
  <unicode hex="00AC"/>
  <outline>
    <contour>
      <point x="387" y="312" type="line"/>
      <point x="387" y="85" type="line"/>
      <point x="544" y="85" type="line"/>
      <point x="544" y="312" type="line"/>
    </contour>
    <contour>
      <point x="60" y="397" type="line"/>
      <point x="60" y="259" type="line"/>
      <point x="544" y="259" type="line"/>
      <point x="544" y="397" type="line"/>
    </contour>
  </outline>
</glyph>
<glyph name="registered" format="2">
  <advance width="755"/>
  <unicode hex="00AE"/>
  <outline>
    <contour>
      <point x="32" y="330" type="curve" smooth="yes"/>
      <point x="32" y="125"/>
      <point x="169" y="-10"/>
      <point x="377" y="-10" type="curve" smooth="yes"/>
      <point x="586" y="-10"/>
      <point x="723" y="125"/>
      <point x="723" y="330" type="curve" smooth="yes"/>
      <point x="723" y="535"/>
      <point x="586" y="670"/>
      <point x="377" y="670" type="curve" smooth="yes"/>
      <point x="169" y="670"/>
      <point x="32" y="535"/>
    </contour>
    <contour>
      <point x="230" y="516" type="line"/>
      <point x="230" y="154" type="line"/>
      <point x="343" y="154" type="line"/>
      <point x="343" y="516" type="line"/>
    </contour>
    <contour>
      <point x="346" y="296" type="line"/>
      <point x="412" y="154" type="line"/>
      <point x="550" y="154" type="line"/>
      <point x="445" y="319" type="line"/>
    </contour>
    <contour>
      <point x="627" y="330" type="curve" smooth="yes"/>
      <point x="627" y="179"/>
      <point x="529" y="80"/>
      <point x="377" y="80" type="curve" smooth="yes"/>
      <point x="226" y="80"/>
      <point x="128" y="179"/>
      <point x="128" y="330" type="curve" smooth="yes"/>
      <point x="128" y="481"/>
      <point x="226" y="580"/>
      <point x="377" y="580" type="curve" smooth="yes"/>
      <point x="529" y="580"/>
      <point x="627" y="481"/>
    </contour>
    <contour>
      <point x="294" y="516" type="line"/>
      <point x="294" y="421" type="line"/>
      <point x="382" y="421" type="line" smooth="yes"/>
      <point x="408" y="421"/>
      <point x="425" y="412"/>
      <point x="425" y="386" type="curve" smooth="yes"/>
      <point x="425" y="361"/>
      <point x="408" y="352"/>
      <point x="382" y="352" type="curve" smooth="yes"/>
      <point x="294" y="352" type="line"/>
      <point x="294" y="275" type="line"/>
      <point x="397" y="275" type="line" smooth="yes"/>
      <point x="485" y="275"/>
      <point x="541" y="319"/>
      <point x="541" y="396" type="curve" smooth="yes"/>
      <point x="541" y="466"/>
      <point x="485" y="516"/>
      <point x="413" y="516" type="curve" smooth="yes"/>
    </contour>
  </outline>
</glyph>
<glyph name="plusminus" format="2">
  <advance width="604"/>
  <unicode hex="00B1"/>
  <outline>
    <contour>
      <point x="232" y="656" type="line"/>
      <point x="232" y="196" type="line"/>
      <point x="373" y="196" type="line"/>
      <point x="373" y="656" type="line"/>
    </contour>
    <contour>
      <point x="48" y="493" type="line"/>
      <point x="48" y="360" type="line"/>
      <point x="556" y="360" type="line"/>
      <point x="556" y="493" type="line"/>
    </contour>
    <contour>
      <point x="48" y="129" type="line"/>
      <point x="48" y="1" type="line"/>
      <point x="556" y="1" type="line"/>
      <point x="556" y="129" type="line"/>
    </contour>
  </outline>
</glyph>
<glyph name="cedilla" format="2">
  <advance width="500"/>
  <unicode hex="00B8"/>
  <anchor x="260" y="0" name="_bottomC"/>
  <outline>
    <contour>
      <point x="286" y="-67" type="curve" smooth="yes"/>
      <point x="286" y="-97"/>
      <point x="263" y="-114"/>
      <point x="231" y="-114" type="curve" smooth="yes"/>
      <point x="199" y="-114"/>
      <point x="174" y="-101"/>
      <point x="158" y="-85" type="curve"/>
      <point x="116" y="-173" type="line"/>
      <point x="141" y="-196"/>
      <point x="177" y="-215"/>
      <point x="245" y="-215" type="curve" smooth="yes"/>
      <point x="331" y="-215"/>
      <point x="398" y="-180"/>
      <point x="398" y="-93" type="curve" smooth="yes"/>
      <point x="398" y="-26"/>
      <point x="336" y="28"/>
      <point x="215" y="40" type="curve"/>
      <point x="175" y="2" type="line"/>
      <point x="263" y="-13"/>
      <point x="286" y="-36"/>
    </contour>
  </outline>
</glyph>
<glyph name="ordmasculine" format="2">
  <advance width="445"/>
  <unicode hex="00BA"/>
  <outline>
    <contour>
      <point x="413" y="480" type="curve" smooth="yes"/>
      <point x="413" y="594"/>
      <point x="341" y="661"/>
      <point x="222" y="661" type="curve" smooth="yes"/>
      <point x="104" y="661"/>
      <point x="32" y="594"/>
      <point x="32" y="480" type="curve" smooth="yes"/>
      <point x="32" y="366"/>
      <point x="104" y="299"/>
      <point x="222" y="299" type="curve" smooth="yes"/>
      <point x="341" y="299"/>
      <point x="413" y="366"/>
    </contour>
    <contour>
      <point x="409" y="133" type="line"/>
      <point x="409" y="234" type="line"/>
      <point x="36" y="234" type="line"/>
      <point x="36" y="133" type="line"/>
    </contour>
    <contour>
      <point x="178" y="480" type="curve" smooth="yes"/>
      <point x="178" y="544"/>
      <point x="191" y="570"/>
      <point x="222" y="570" type="curve" smooth="yes"/>
      <point x="254" y="570"/>
      <point x="266" y="544"/>
      <point x="266" y="480" type="curve" smooth="yes"/>
      <point x="266" y="415"/>
      <point x="254" y="390"/>
      <point x="222" y="390" type="curve" smooth="yes"/>
      <point x="191" y="390"/>
      <point x="178" y="415"/>
    </contour>
  </outline>
</glyph>
<glyph name="AE" format="2">
  <advance width="913"/>
  <unicode hex="00C6"/>
  <anchor x="505" y="660" name="top"/>
  <anchor x="891" y="0" name="ogonek"/>
  <anchor x="505" y="0" name="bottom"/>
  <anchor x="525" y="0" name="bottomC"/>
  <outline>
    <contour>
      <point x="239" y="660" type="line"/>
      <point x="-7" y="0" type="line"/>
      <point x="196" y="0" type="line"/>
      <point x="400" y="660" type="line"/>
    </contour>
    <contour>
      <point x="165" y="315" type="line"/>
      <point x="117" y="190" type="line"/>
      <point x="499" y="190" type="line"/>
      <point x="499" y="315" type="line"/>
    </contour>
    <contour>
      <point x="490" y="145" type="line"/>
      <point x="490" y="0" type="line"/>
      <point x="891" y="0" type="line"/>
      <point x="891" y="145" type="line"/>
    </contour>
    <contour>
      <point x="410" y="660" type="line"/>
      <point x="410" y="0" type="line"/>
      <point x="599" y="0" type="line"/>
      <point x="599" y="660" type="line"/>
    </contour>
    <contour>
      <point x="490" y="397" type="line"/>
      <point x="490" y="262" type="line"/>
      <point x="813" y="262" type="line"/>
      <point x="813" y="397" type="line"/>
    </contour>
    <contour>
      <point x="298" y="660" type="line"/>
      <point x="258" y="522" type="line"/>
      <point x="479" y="522" type="line"/>
      <point x="522" y="515" type="line"/>
      <point x="878" y="515" type="line"/>
      <point x="878" y="660" type="line"/>
    </contour>
  </outline>
</glyph>
<glyph name="multiply" format="2">
  <advance width="604"/>
  <unicode hex="00D7"/>
  <outline>
    <contour>
      <point x="44" y="178" type="line"/>
      <point x="454" y="587" type="line"/>
      <point x="559" y="481" type="line"/>
      <point x="150" y="72" type="line"/>
    </contour>
    <contour>
      <point x="44" y="481" type="line"/>
      <point x="150" y="587" type="line"/>
      <point x="559" y="178" type="line"/>
      <point x="454" y="72" type="line"/>
    </contour>
  </outline>
</glyph>
<glyph name="germandbls" format="2">
  <advance width="657"/>
  <unicode hex="00DF"/>
  <anchor x="341" y="706" name="top"/>
  <anchor x="522" y="11" name="ogonek"/>
  <anchor x="341" y="0" name="bottom"/>
  <anchor x="417" y="0" name="bottomC"/>
  <outline>
    <contour>
      <point x="454" y="356" type="line"/>
      <point x="559" y="356"/>
      <point x="619" y="433"/>
      <point x="619" y="515" type="curve" smooth="yes"/>
      <point x="619" y="629"/>
      <point x="526" y="711"/>
      <point x="350" y="711" type="curve" smooth="yes"/>
      <point x="133" y="711"/>
      <point x="49" y="614"/>
      <point x="49" y="448" type="curve" smooth="yes"/>
      <point x="49" y="0" type="line"/>
      <point x="251" y="0" type="line"/>
      <point x="251" y="439" type="line" smooth="yes"/>
      <point x="251" y="533"/>
      <point x="276" y="571"/>
      <point x="348" y="571" type="curve" smooth="yes"/>
      <point x="394" y="571"/>
      <point x="424" y="544"/>
      <point x="424" y="497" type="curve" smooth="yes"/>
      <point x="424" y="450"/>
      <point x="398" y="419"/>
      <point x="354" y="418" type="curve" smooth="yes"/>
      <point x="325" y="418" type="line"/>
      <point x="303" y="280" type="line"/>
      <point x="355" y="280" type="line" smooth="yes"/>
      <point x="409" y="280"/>
      <point x="438" y="255"/>
      <point x="438" y="208" type="curve" smooth="yes"/>
      <point x="438" y="160"/>
      <point x="412" y="130"/>
      <point x="370" y="130" type="curve" smooth="yes"/>
      <point x="341" y="130"/>
      <point x="326" y="137"/>
      <point x="311" y="152" type="curve"/>
      <point x="282" y="22" type="line"/>
      <point x="311" y="2"/>
      <point x="357" y="-10"/>
      <point x="412" y="-10" type="curve" smooth="yes"/>
      <point x="565" y="-10"/>
      <point x="632" y="80"/>
      <point x="632" y="179" type="curve" smooth="yes"/>
      <point x="632" y="283"/>
      <point x="562" y="354"/>
      <point x="454" y="354" type="curve"/>
    </contour>
  </outline>
</glyph>
<glyph name="eth" format="2">
  <advance width="598"/>
  <unicode hex="00F0"/>
  <anchor x="301" y="706" name="top"/>
  <anchor x="424" y="11" name="ogonek"/>
  <anchor x="301" y="0" name="bottom"/>
  <anchor x="301" y="0" name="bottomC"/>
  <outline>
    <contour>
      <point x="165" y="719" type="line"/>
      <point x="342" y="598"/>
      <point x="423" y="521"/>
      <point x="427" y="319" type="curve"/>
      <point x="378" y="245" type="line"/>
      <point x="378" y="164"/>
      <point x="357" y="129"/>
      <point x="305" y="129" type="curve" smooth="yes"/>
      <point x="257" y="129"/>
      <point x="237" y="163"/>
      <point x="237" y="245" type="curve" smooth="yes"/>
      <point x="237" y="337"/>
      <point x="257" y="372"/>
      <point x="306" y="372" type="curve" smooth="yes"/>
      <point x="357" y="372"/>
      <point x="378" y="337"/>
      <point x="378" y="245" type="curve"/>
      <point x="443" y="260" type="line"/>
      <point x="443" y="394"/>
      <point x="420" y="499"/>
      <point x="281" y="499" type="curve" smooth="yes"/>
      <point x="133" y="499"/>
      <point x="34" y="406"/>
      <point x="34" y="245" type="curve" smooth="yes"/>
      <point x="34" y="83"/>
      <point x="132" y="-10"/>
      <point x="291" y="-10" type="curve" smooth="yes"/>
      <point x="487" y="-10"/>
      <point x="567" y="82"/>
      <point x="567" y="308" type="curve" smooth="yes"/>
      <point x="567" y="533"/>
      <point x="442" y="665"/>
      <point x="336" y="719" type="curve"/>
    </contour>
    <contour>
      <point x="175" y="602" type="line"/>
      <point x="186" y="544" type="line"/>
      <point x="365" y="578" type="line"/>
      <point x="331" y="620" type="line"/>
    </contour>
    <contour>
      <point x="401" y="636" type="line"/>
      <point x="422" y="599" type="line"/>
      <point x="575" y="613" type="line"/>
      <point x="560" y="671" type="line"/>
    </contour>
  </outline>
</glyph>
<glyph name="thorn" format="2">
  <advance width="628"/>
  <unicode hex="00FE"/>
  <anchor x="150" y="706" name="top"/>
  <anchor x="484" y="11" name="ogonek"/>
  <anchor x="150" y="-210" name="bottom"/>
  <anchor x="419" y="0" name="bottomC"/>
  <outline>
    <contour>
      <point x="49" y="706" type="line"/>
      <point x="49" y="-210" type="line"/>
      <point x="251" y="-210" type="line"/>
      <point x="251" y="706" type="line"/>
    </contour>
    <contour>
      <point x="229" y="291" type="curve"/>
      <point x="251" y="254" type="line"/>
      <point x="251" y="332"/>
      <point x="277" y="366"/>
      <point x="320" y="366" type="curve" smooth="yes"/>
      <point x="370" y="366"/>
      <point x="392" y="336"/>
      <point x="392" y="250" type="curve" smooth="yes"/>
      <point x="392" y="164"/>
      <point x="370" y="135"/>
      <point x="320" y="135" type="curve" smooth="yes"/>
      <point x="275" y="135"/>
      <point x="251" y="172"/>
      <point x="251" y="246" type="curve"/>
      <point x="224" y="209" type="line"/>
      <point x="224" y="86"/>
      <point x="276" y="-10"/>
      <point x="396" y="-10" type="curve" smooth="yes"/>
      <point x="480" y="-10"/>
      <point x="595" y="45"/>
      <point x="595" y="257" type="curve" smooth="yes"/>
      <point x="595" y="434"/>
      <point x="507" y="510"/>
      <point x="403" y="510" type="curve" smooth="yes"/>
      <point x="281" y="510"/>
      <point x="229" y="404"/>
    </contour>
  </outline>
</glyph>
<glyph name="dcroat" format="2">
  <advance width="627"/>
  <unicode hex="0111"/>
  <anchor x="312" y="250" name="center"/>
  <anchor x="310" y="0" name="bottom"/>
  <anchor x="477" y="706" name="top"/>
  <anchor x="239" y="0" name="bottomC"/>
  <anchor x="638" y="706" name="topright"/>
  <anchor x="308" y="11" name="ogonek"/>
  <outline>
    <contour>
      <point x="256" y="638" type="line"/>
      <point x="256" y="528" type="line"/>
      <point x="655" y="528" type="line"/>
      <point x="655" y="638" type="line"/>
    </contour>
    <component base="d"/>
  </outline>
</glyph>
<glyph name="uni0123" format="2">
  <advance width="569"/>
  <unicode hex="0123"/>
  <anchor x="292" y="-210" name="bottomC"/>
  <anchor x="257" y="500" name="top"/>
  <anchor x="419" y="-199" name="ogonek"/>
  <anchor x="292" y="-210" name="bottom"/>
  <outline>
    <contour>
      <point x="269" y="770" type="line"/>
      <point x="198" y="554" type="line"/>
      <point x="359" y="554" type="line"/>
      <point x="393" y="770" type="line"/>
    </contour>
    <component base="g"/>
  </outline>
</glyph>
<glyph name="Imacron" format="2">
  <advance width="326"/>
  <unicode hex="012A"/>
  <anchor x="163" y="0" name="bottomC"/>
  <anchor x="163" y="660" name="top"/>
  <anchor x="265" y="0" name="ogonek"/>
  <anchor x="163" y="0" name="bottom"/>
  <outline>
    <contour>
      <point x="8" y="838" type="line"/>
      <point x="8" y="719" type="line"/>
      <point x="316" y="719" type="line"/>
      <point x="316" y="838" type="line"/>
    </contour>
    <component base="I"/>
  </outline>
</glyph>
<glyph name="iogonek" format="2">
  <advance width="300"/>
  <unicode hex="012F"/>
  <anchor x="150" y="713" name="top"/>
  <anchor x="236" y="8" name="ogonek"/>
  <anchor x="150" y="0" name="bottom"/>
  <anchor x="150" y="0" name="bottomC"/>
  <outline>
    <contour>
      <point x="168" y="30" type="line"/>
      <point x="70" y="18"/>
      <point x="3" y="-25"/>
      <point x="3" y="-100" type="curve" smooth="yes"/>
      <point x="3" y="-179"/>
      <point x="68" y="-215"/>
      <point x="148" y="-215" type="curve" smooth="yes"/>
      <point x="196" y="-215"/>
      <point x="230" y="-209"/>
      <point x="260" y="-190" type="curve"/>
      <point x="235" y="-97" type="line"/>
      <point x="224" y="-104"/>
      <point x="207" y="-106"/>
      <point x="191" y="-106" type="curve" smooth="yes"/>
      <point x="159" y="-106"/>
      <point x="141" y="-91"/>
      <point x="141" y="-66" type="curve" smooth="yes"/>
      <point x="141" y="-34"/>
      <point x="180" y="-8"/>
      <point x="251" y="0" type="curve"/>
    </contour>
    <component base="i"/>
  </outline>
</glyph>
<glyph name="Lslash" format="2">
  <advance width="650"/>
  <unicode hex="0141"/>
  <anchor x="462" y="360" name="center"/>
  <anchor x="372" y="0" name="bottom"/>
  <anchor x="209" y="660" name="top"/>
  <anchor x="372" y="0" name="bottomC"/>
  <anchor x="418" y="701" name="topright"/>
  <anchor x="625" y="0" name="ogonek"/>
  <outline>
    <contour>
      <point x="-5" y="295" type="line"/>
      <point x="-5" y="155" type="line"/>
      <point x="480" y="377" type="line"/>
      <point x="480" y="517" type="line"/>
    </contour>
    <component base="L" xOffset="46"/>
  </outline>
</glyph>
<glyph name="OE" format="2">
  <advance width="1037"/>
  <unicode hex="0152"/>
  <anchor x="571" y="660" name="top"/>
  <anchor x="1014" y="0" name="ogonek"/>
  <anchor x="571" y="0" name="bottom"/>
  <anchor x="640" y="0" name="bottomC"/>
  <outline>
    <contour>
      <point x="36" y="330" type="curve" smooth="yes"/>
      <point x="36" y="115"/>
      <point x="158" y="-10"/>
      <point x="348" y="-10" type="curve" smooth="yes"/>
      <point x="547" y="-10"/>
      <point x="643" y="154"/>
      <point x="643" y="330" type="curve" smooth="yes"/>
      <point x="643" y="506"/>
      <point x="548" y="670"/>
      <point x="348" y="670" type="curve" smooth="yes"/>
      <point x="158" y="670"/>
      <point x="36" y="545"/>
    </contour>
    <contour>
      <point x="477" y="330" type="curve" smooth="yes"/>
      <point x="477" y="205"/>
      <point x="438" y="146"/>
      <point x="359" y="146" type="curve" smooth="yes"/>
      <point x="280" y="146"/>
      <point x="241" y="205"/>
      <point x="241" y="330" type="curve" smooth="yes"/>
      <point x="241" y="455"/>
      <point x="280" y="514"/>
      <point x="359" y="514" type="curve" smooth="yes"/>
      <point x="438" y="514"/>
      <point x="477" y="455"/>
    </contour>
    <contour>
      <point x="577" y="153" type="line"/>
      <point x="577" y="0" type="line"/>
      <point x="1014" y="0" type="line"/>
      <point x="1014" y="153" type="line"/>
    </contour>
    <contour>
      <point x="550" y="660" type="line"/>
      <point x="550" y="0" type="line"/>
      <point x="680" y="0" type="line"/>
      <point x="680" y="660" type="line"/>
    </contour>
    <contour>
      <point x="577" y="400" type="line"/>
      <point x="577" y="258" type="line"/>
      <point x="936" y="258" type="line"/>
      <point x="936" y="400" type="line"/>
    </contour>
    <contour>
      <point x="577" y="660" type="line"/>
      <point x="577" y="507" type="line"/>
      <point x="1002" y="507" type="line"/>
      <point x="1002" y="660" type="line"/>
    </contour>
  </outline>
</glyph>
<glyph name="oe" format="2">
  <advance width="941"/>
  <unicode hex="0153"/>
  <anchor x="474" y="500" name="top"/>
  <anchor x="788" y="11" name="ogonek"/>
  <anchor x="474" y="0" name="bottom"/>
  <anchor x="670" y="0" name="bottomC"/>
  <outline>
    <contour>
      <point x="28" y="250" type="curve" smooth="yes"/>
      <point x="28" y="86"/>
      <point x="129" y="-10"/>
      <point x="289" y="-10" type="curve" smooth="yes"/>
      <point x="447" y="-10"/>
      <point x="531" y="86"/>
      <point x="531" y="250" type="curve" smooth="yes"/>
      <point x="531" y="414"/>
      <point x="447" y="510"/>
      <point x="289" y="510" type="curve" smooth="yes"/>
      <point x="129" y="510"/>
      <point x="28" y="414"/>
    </contour>
    <contour>
      <point x="370" y="250" type="curve" smooth="yes"/>
      <point x="370" y="159"/>
      <point x="350" y="129"/>
      <point x="300" y="129" type="curve" smooth="yes"/>
      <point x="252" y="129"/>
      <point x="232" y="159"/>
      <point x="232" y="250" type="curve" smooth="yes"/>
      <point x="232" y="341"/>
      <point x="252" y="372"/>
      <point x="300" y="372" type="curve" smooth="yes"/>
      <point x="350" y="372"/>
      <point x="370" y="341"/>
    </contour>
    <contour>
      <point x="904" y="129" type="curve"/>
      <point x="741" y="176" type="line"/>
      <point x="732" y="145"/>
      <point x="708" y="128"/>
      <point x="666" y="128" type="curve" smooth="yes"/>
      <point x="608" y="128"/>
      <point x="578" y="154"/>
      <point x="578" y="247" type="curve" smooth="yes"/>
      <point x="578" y="339"/>
      <point x="602" y="373"/>
      <point x="656" y="373" type="curve" smooth="yes"/>
      <point x="709" y="373"/>
      <point x="725" y="329"/>
      <point x="725" y="250" type="curve"/>
      <point x="821" y="291" type="line"/>
      <point x="516" y="291" type="line"/>
      <point x="516" y="209" type="line"/>
      <point x="909" y="209" type="line"/>
      <point x="912" y="222"/>
      <point x="914" y="246"/>
      <point x="914" y="268" type="curve" smooth="yes"/>
      <point x="914" y="411"/>
      <point x="826" y="510"/>
      <point x="655" y="510" type="curve" smooth="yes"/>
      <point x="511" y="510"/>
      <point x="429" y="415"/>
      <point x="429" y="250" type="curve" smooth="yes"/>
      <point x="429" y="85"/>
      <point x="511" y="-10"/>
      <point x="666" y="-10" type="curve" smooth="yes"/>
      <point x="786" y="-10"/>
      <point x="879" y="36"/>
    </contour>
  </outline>
</glyph>
<glyph name="uni0162" format="2">
  <advance width="671"/>
  <unicode hex="0162"/>
  <anchor x="335" y="-210" name="bottom"/>
  <anchor x="335" y="660" name="top"/>
  <anchor x="355" y="-210" name="ogonek"/>
  <anchor x="335" y="330" name="center"/>
  <anchor x="334" y="-210" name="bottomC"/>
  <outline>
    <contour>
      <point x="366" y="-60" type="curve" smooth="yes"/>
      <point x="366" y="-95"/>
      <point x="340" y="-111"/>
      <point x="310" y="-111" type="curve" smooth="yes"/>
      <point x="277" y="-111"/>
      <point x="259" y="-99"/>
      <point x="244" y="-80" type="curve"/>
      <point x="193" y="-172" type="line"/>
      <point x="217" y="-195"/>
      <point x="258" y="-215"/>
      <point x="326" y="-215" type="curve" smooth="yes"/>
      <point x="411" y="-215"/>
      <point x="479" y="-180"/>
      <point x="479" y="-88" type="curve" smooth="yes"/>
      <point x="479" y="-10"/>
      <point x="426" y="33"/>
      <point x="313" y="42" type="curve"/>
      <point x="291" y="0" type="line"/>
      <point x="340" y="-7"/>
      <point x="366" y="-26"/>
    </contour>
    <component base="T"/>
  </outline>
</glyph>
<glyph name="uogonek" format="2">
  <advance width="620"/>
  <unicode hex="0173"/>
  <anchor x="305" y="500" name="top"/>
  <anchor x="505" y="-210" name="ogonek"/>
  <anchor x="305" y="-171" name="bottom"/>
  <anchor x="498" y="-210" name="bottomC"/>
  <outline>
    <contour>
      <point x="47" y="500" type="line"/>
      <point x="47" y="164" type="line" smooth="yes"/>
      <point x="47" y="40"/>
      <point x="110" y="-10"/>
      <point x="213" y="-10" type="curve" smooth="yes"/>
      <point x="331" y="-10"/>
      <point x="406" y="73"/>
      <point x="406" y="233" type="curve"/>
      <point x="369" y="238" type="line"/>
      <point x="369" y="174"/>
      <point x="342" y="141"/>
      <point x="301" y="141" type="curve" smooth="yes"/>
      <point x="267" y="141"/>
      <point x="249" y="159"/>
      <point x="249" y="214" type="curve" smooth="yes"/>
      <point x="249" y="500" type="line"/>
    </contour>
    <contour>
      <point x="571" y="0" type="curve"/>
      <point x="486" y="29" type="line"/>
      <point x="387" y="17"/>
      <point x="321" y="-25"/>
      <point x="321" y="-101" type="curve" smooth="yes"/>
      <point x="321" y="-179"/>
      <point x="383" y="-215"/>
      <point x="464" y="-215" type="curve" smooth="yes"/>
      <point x="510" y="-215"/>
      <point x="546" y="-209"/>
      <point x="575" y="-190" type="curve"/>
      <point x="550" y="-97" type="line"/>
      <point x="539" y="-104"/>
      <point x="523" y="-106"/>
      <point x="507" y="-106" type="curve" smooth="yes"/>
      <point x="476" y="-106"/>
      <point x="458" y="-92"/>
      <point x="458" y="-66" type="curve" smooth="yes"/>
      <point x="458" y="-34"/>
      <point x="498" y="-8"/>
    </contour>
    <contour>
      <point x="369" y="500" type="line"/>
      <point x="369" y="208" type="line"/>
      <point x="381" y="154" type="line"/>
      <point x="390" y="0" type="line"/>
      <point x="571" y="0" type="line"/>
      <point x="571" y="145" type="line"/>
      <point x="571" y="500" type="line"/>
    </contour>
  </outline>
</glyph>
<glyph name="florin" format="2">
  <advance width="526"/>
  <unicode hex="0192"/>
  <outline>
    <contour>
      <point x="210" y="540" type="curve" smooth="yes"/>
      <point x="130" y="79" type="line" smooth="yes"/>
      <point x="122" y="33"/>
      <point x="90" y="6"/>
      <point x="45" y="6" type="curve" smooth="yes"/>
      <point x="26" y="6"/>
      <point x="9" y="11"/>
      <point x="-4" y="19" type="curve"/>
      <point x="-29" y="-100" type="line"/>
      <point x="4" y="-121"/>
      <point x="31" y="-128"/>
      <point x="84" y="-128" type="curve" smooth="yes"/>
      <point x="201" y="-128"/>
      <point x="277" y="-62"/>
      <point x="298" y="56" type="curve" smooth="yes"/>
      <point x="378" y="517" type="line" smooth="yes"/>
      <point x="386" y="563"/>
      <point x="417" y="590"/>
      <point x="463" y="590" type="curve" smooth="yes"/>
      <point x="482" y="590"/>
      <point x="498" y="586"/>
      <point x="512" y="577" type="curve"/>
      <point x="537" y="696" type="line"/>
      <point x="504" y="718"/>
      <point x="477" y="724"/>
      <point x="424" y="724" type="curve" smooth="yes"/>
      <point x="306" y="724"/>
      <point x="231" y="659"/>
    </contour>
    <contour>
      <point x="33" y="424" type="line"/>
      <point x="33" y="287" type="line"/>
      <point x="493" y="287" type="line"/>
      <point x="493" y="424" type="line"/>
    </contour>
  </outline>
</glyph>
<glyph name="jdotless" format="2">
  <advance width="300"/>
  <unicode hex="0237"/>
  <anchor x="150" y="500" name="top"/>
  <anchor x="133" y="-204" name="ogonek"/>
  <anchor x="76" y="-210" name="bottom"/>
  <anchor x="76" y="-210" name="bottomC"/>
  <outline>
    <contour>
      <point x="49" y="500" type="line"/>
      <point x="49" y="-2" type="line" smooth="yes"/>
      <point x="49" y="-57"/>
      <point x="26" y="-78"/>
      <point x="-17" y="-78" type="curve" smooth="yes"/>
      <point x="-39" y="-78"/>
      <point x="-61" y="-71"/>
      <point x="-73" y="-61" type="curve"/>
      <point x="-99" y="-184" type="line"/>
      <point x="-62" y="-205"/>
      <point x="-16" y="-215"/>
      <point x="43" y="-215" type="curve" smooth="yes"/>
      <point x="182" y="-215"/>
      <point x="251" y="-159"/>
      <point x="251" y="-20" type="curve" smooth="yes"/>
      <point x="251" y="500" type="line"/>
    </contour>
  </outline>
</glyph>
<glyph name="breve" format="2">
  <advance width="500"/>
  <unicode hex="02D8"/>
  <anchor x="250" y="500" name="_top"/>
  <outline>
    <contour>
      <point x="301" y="715" type="line"/>
      <point x="301" y="677"/>
      <point x="283" y="654"/>
      <point x="250" y="654" type="curve" smooth="yes"/>
      <point x="217" y="654"/>
      <point x="199" y="677"/>
      <point x="199" y="715" type="curve"/>
      <point x="74" y="715" type="line"/>
      <point x="74" y="609"/>
      <point x="139" y="547"/>
      <point x="250" y="547" type="curve" smooth="yes"/>
      <point x="361" y="547"/>
      <point x="426" y="609"/>
      <point x="426" y="715" type="curve"/>
    </contour>
  </outline>
</glyph>
<glyph name="ring" format="2">
  <advance width="500"/>
  <unicode hex="02DA"/>
  <anchor x="251" y="500" name="_top"/>
  <outline>
    <contour>
      <point x="114" y="665" type="curve" smooth="yes"/>
      <point x="114" y="588"/>
      <point x="165" y="542"/>
      <point x="252" y="542" type="curve" smooth="yes"/>
      <point x="340" y="542"/>
      <point x="390" y="588"/>
      <point x="390" y="665" type="curve" smooth="yes"/>
      <point x="390" y="741"/>
      <point x="340" y="787"/>
      <point x="252" y="787" type="curve" smooth="yes"/>
      <point x="165" y="787"/>
      <point x="114" y="741"/>
    </contour>
    <contour>
      <point x="298" y="665" type="curve" smooth="yes"/>
      <point x="298" y="637"/>
      <point x="280" y="620"/>
      <point x="252" y="620" type="curve" smooth="yes"/>
      <point x="224" y="620"/>
      <point x="207" y="637"/>
      <point x="207" y="665" type="curve" smooth="yes"/>
      <point x="207" y="693"/>
      <point x="224" y="709"/>
      <point x="252" y="709" type="curve" smooth="yes"/>
      <point x="280" y="709"/>
      <point x="298" y="693"/>
    </contour>
  </outline>
</glyph>
<glyph name="ogonek" format="2">
  <advance width="541"/>
  <unicode hex="02DB"/>
  <anchor x="365" y="11" name="_ogonek"/>
  <outline>
    <contour>
      <point x="290" y="34" type="line"/>
      <point x="189" y="21"/>
      <point x="119" y="-21"/>
      <point x="119" y="-100" type="curve" smooth="yes"/>
      <point x="119" y="-179"/>
      <point x="184" y="-215"/>
      <point x="265" y="-215" type="curve" smooth="yes"/>
      <point x="311" y="-215"/>
      <point x="347" y="-209"/>
      <point x="376" y="-190" type="curve"/>
      <point x="351" y="-97" type="line"/>
      <point x="340" y="-104"/>
      <point x="324" y="-106"/>
      <point x="308" y="-106" type="curve" smooth="yes"/>
      <point x="276" y="-106"/>
      <point x="257" y="-91"/>
      <point x="257" y="-65" type="curve" smooth="yes"/>
      <point x="257" y="-33"/>
      <point x="286" y="-9"/>
      <point x="365" y="11" type="curve"/>
    </contour>
  </outline>
</glyph>
<glyph name="tilde" format="2">
  <advance width="500"/>
  <unicode hex="02DC"/>
  <anchor x="250" y="500" name="_top"/>
  <outline>
    <contour>
      <point x="347" y="719" type="line"/>
      <point x="343" y="683"/>
      <point x="333" y="667"/>
      <point x="313" y="667" type="curve" smooth="yes"/>
      <point x="276" y="667"/>
      <point x="263" y="720"/>
      <point x="185" y="720" type="curve" smooth="yes"/>
      <point x="98" y="720"/>
      <point x="49" y="666"/>
      <point x="45" y="552" type="curve"/>
      <point x="153" y="552" type="line"/>
      <point x="157" y="588"/>
      <point x="167" y="604"/>
      <point x="187" y="604" type="curve" smooth="yes"/>
      <point x="225" y="604"/>
      <point x="237" y="550"/>
      <point x="315" y="550" type="curve" smooth="yes"/>
      <point x="402" y="550"/>
      <point x="451" y="605"/>
      <point x="455" y="719" type="curve"/>
    </contour>
  </outline>
</glyph>
<glyph name="commaaccent" format="2">
  <advance width="407"/>
  <unicode hex="0326"/>
  <anchor x="0" y="0" name="_bottom"/>
  <outline>
    <contour>
      <point x="-78" y="-55" type="line"/>
      <point x="-105" y="-242" type="line"/>
      <point x="22" y="-242" type="line"/>
      <point x="95" y="-55" type="line"/>
    </contour>
  </outline>
</glyph>
<glyph name="pi" format="2">
  <advance width="808"/>
  <unicode hex="03C0"/>
  <outline>
    <contour>
      <point x="779" y="500" type="line"/>
      <point x="17" y="500" type="line"/>
      <point x="17" y="364" type="line"/>
      <point x="779" y="364" type="line"/>
    </contour>
    <contour>
      <point x="135" y="500" type="line"/>
      <point x="135" y="0" type="line"/>
      <point x="337" y="0" type="line"/>
      <point x="337" y="500" type="line"/>
    </contour>
    <contour>
      <point x="452" y="500" type="line"/>
      <point x="452" y="158" type="line" smooth="yes"/>
      <point x="452" y="38"/>
      <point x="511" y="-20"/>
      <point x="730" y="-4" type="curve"/>
      <point x="746" y="128" type="line"/>
      <point x="682" y="121"/>
      <point x="654" y="148"/>
      <point x="654" y="201" type="curve" smooth="yes"/>
      <point x="654" y="500" type="line"/>
    </contour>
  </outline>
</glyph>
<glyph name="Germandbls" format="2">
  <advance width="729"/>
  <unicode hex="1E9E"/>
  <anchor x="373" y="660" name="top"/>
  <anchor x="544" y="0" name="ogonek"/>
  <anchor x="373" y="0" name="bottom"/>
  <anchor x="492" y="0" name="bottomC"/>
  <outline>
    <contour>
      <point x="265" y="0" type="line"/>
      <point x="265" y="377" type="line" smooth="yes"/>
      <point x="265" y="463"/>
      <point x="312" y="511"/>
      <point x="391" y="511" type="curve" smooth="yes"/>
      <point x="487" y="511" type="line"/>
      <point x="350" y="361" type="line"/>
      <point x="484" y="299" type="line"/>
      <point x="676" y="514" type="line"/>
      <point x="676" y="660" type="line"/>
      <point x="350" y="660" type="line" smooth="yes"/>
      <point x="170" y="660"/>
      <point x="61" y="566"/>
      <point x="61" y="410" type="curve" smooth="yes"/>
      <point x="61" y="0" type="line"/>
    </contour>
    <contour>
      <point x="712" y="188" type="curve" smooth="yes"/>
      <point x="712" y="314"/>
      <point x="616" y="361"/>
      <point x="495" y="361" type="curve" smooth="yes"/>
      <point x="350" y="361" type="line"/>
      <point x="350" y="254" type="line"/>
      <point x="442" y="254" type="line" smooth="yes"/>
      <point x="492" y="254"/>
      <point x="523" y="236"/>
      <point x="523" y="196" type="curve" smooth="yes"/>
      <point x="523" y="158"/>
      <point x="493" y="136"/>
      <point x="449" y="136" type="curve" smooth="yes"/>
      <point x="406" y="136"/>
      <point x="381" y="145"/>
      <point x="356" y="166" type="curve"/>
      <point x="306" y="51" type="line"/>
      <point x="341" y="16"/>
      <point x="395" y="-5"/>
      <point x="494" y="-5" type="curve" smooth="yes"/>
      <point x="619" y="-5"/>
      <point x="712" y="59"/>
    </contour>
  </outline>
</glyph>
<glyph name="bullet" format="2">
  <advance width="430"/>
  <unicode hex="2022"/>
  <outline>
    <contour>
      <point x="51" y="331" type="curve" smooth="yes"/>
      <point x="51" y="232"/>
      <point x="112" y="173"/>
      <point x="215" y="173" type="curve" smooth="yes"/>
      <point x="318" y="173"/>
      <point x="379" y="232"/>
      <point x="379" y="331" type="curve" smooth="yes"/>
      <point x="379" y="431"/>
      <point x="318" y="490"/>
      <point x="215" y="490" type="curve" smooth="yes"/>
      <point x="112" y="490"/>
      <point x="51" y="431"/>
    </contour>
  </outline>
</glyph>
<glyph name="perthousand" format="2">
  <advance width="1395"/>
  <unicode hex="2030"/>
  <outline>
    <contour>
      <point x="977" y="180" type="curve" smooth="yes"/>
      <point x="977" y="65"/>
      <point x="1055" y="-10"/>
      <point x="1173" y="-10" type="curve" smooth="yes"/>
      <point x="1290" y="-10"/>
      <point x="1368" y="65"/>
      <point x="1368" y="180" type="curve" smooth="yes"/>
      <point x="1368" y="295"/>
      <point x="1290" y="370"/>
      <point x="1173" y="370" type="curve" smooth="yes"/>
      <point x="1055" y="370"/>
      <point x="977" y="295"/>
    </contour>
    <contour>
      <point x="1222" y="180" type="curve" smooth="yes"/>
      <point x="1222" y="143"/>
      <point x="1204" y="122"/>
      <point x="1173" y="122" type="curve" smooth="yes"/>
      <point x="1141" y="122"/>
      <point x="1123" y="143"/>
      <point x="1123" y="180" type="curve" smooth="yes"/>
      <point x="1123" y="217"/>
      <point x="1141" y="238"/>
      <point x="1173" y="238" type="curve" smooth="yes"/>
      <point x="1204" y="238"/>
      <point x="1222" y="217"/>
    </contour>
    <component base="percent"/>
  </outline>
</glyph>
<glyph name="zerosuperior" format="2">
  <advance width="419"/>
  <unicode hex="2070"/>
  <outline>
    <contour>
      <point x="398" y="531" type="curve" smooth="yes"/>
      <point x="398" y="670"/>
      <point x="338" y="735"/>
      <point x="209" y="735" type="curve" smooth="yes"/>
      <point x="81" y="735"/>
      <point x="21" y="670"/>
      <point x="21" y="531" type="curve" smooth="yes"/>
      <point x="21" y="392"/>
      <point x="81" y="327"/>
      <point x="209" y="327" type="curve" smooth="yes"/>
      <point x="338" y="327"/>
      <point x="398" y="392"/>
    </contour>
    <contour>
      <point x="163" y="531" type="curve" smooth="yes"/>
      <point x="163" y="610"/>
      <point x="175" y="636"/>
      <point x="209" y="636" type="curve" smooth="yes"/>
      <point x="244" y="636"/>
      <point x="256" y="610"/>
      <point x="256" y="531" type="curve" smooth="yes"/>
      <point x="256" y="452"/>
      <point x="244" y="426"/>
      <point x="209" y="426" type="curve" smooth="yes"/>
      <point x="175" y="426"/>
      <point x="163" y="452"/>
    </contour>
  </outline>
</glyph>
<glyph name="foursuperior" format="2">
  <advance width="408"/>
  <unicode hex="2074"/>
  <anchor x="226" y="527" name="_indexring"/>
  <outline>
    <contour>
      <point x="338" y="506" type="line"/>
      <point x="338" y="731" type="line"/>
      <point x="166" y="731" type="line"/>
      <point x="11" y="476" type="line"/>
      <point x="11" y="412" type="line"/>
      <point x="213" y="412" type="line"/>
      <point x="213" y="333" type="line"/>
      <point x="338" y="333" type="line"/>
      <point x="338" y="412" type="line"/>
      <point x="394" y="412" type="line"/>
      <point x="394" y="506" type="line"/>
    </contour>
    <contour>
      <point x="183" y="590" type="line" smooth="yes"/>
      <point x="194" y="608"/>
      <point x="206" y="633"/>
      <point x="213" y="652" type="curve"/>
      <point x="216" y="652" type="line"/>
      <point x="215" y="627"/>
      <point x="213" y="597"/>
      <point x="213" y="570" type="curve" smooth="yes"/>
      <point x="213" y="506" type="line"/>
      <point x="131" y="506" type="line"/>
    </contour>
  </outline>
</glyph>
<glyph name="ninesuperior" format="2">
  <advance width="414"/>
  <unicode hex="2079"/>
  <anchor x="194" y="532" name="_indexring"/>
  <outline>
    <contour>
      <point x="19" y="604" type="curve" smooth="yes"/>
      <point x="19" y="530"/>
      <point x="79" y="479"/>
      <point x="167" y="479" type="curve" smooth="yes"/>
      <point x="209" y="479"/>
      <point x="241" y="494"/>
      <point x="256" y="518" type="curve"/>
      <point x="257" y="518" type="line"/>
      <point x="257" y="513"/>
      <point x="257" y="510"/>
      <point x="257" y="506" type="curve" smooth="yes"/>
      <point x="257" y="458"/>
      <point x="242" y="424"/>
      <point x="199" y="424" type="curve" smooth="yes"/>
      <point x="165" y="424"/>
      <point x="151" y="433"/>
      <point x="148" y="458" type="curve"/>
      <point x="28" y="424" type="line"/>
      <point x="49" y="348"/>
      <point x="110" y="327"/>
      <point x="189" y="327" type="curve" smooth="yes"/>
      <point x="306" y="327"/>
      <point x="390" y="385"/>
      <point x="390" y="531" type="curve" smooth="yes"/>
      <point x="390" y="670"/>
      <point x="320" y="735"/>
      <point x="199" y="735" type="curve" smooth="yes"/>
      <point x="90" y="735"/>
      <point x="19" y="690"/>
    </contour>
    <contour>
      <point x="239" y="602" type="curve" smooth="yes"/>
      <point x="239" y="578"/>
      <point x="224" y="565"/>
      <point x="196" y="565" type="curve" smooth="yes"/>
      <point x="168" y="565"/>
      <point x="153" y="577"/>
      <point x="153" y="602" type="curve" smooth="yes"/>
      <point x="153" y="627"/>
      <point x="168" y="640"/>
      <point x="196" y="640" type="curve" smooth="yes"/>
      <point x="224" y="640"/>
      <point x="239" y="626"/>
    </contour>
  </outline>
</glyph>
<glyph name="plussuperior" format="2">
  <advance width="357"/>
  <unicode hex="207A"/>
  <outline>
    <contour>
      <point x="335" y="483" type="line"/>
      <point x="335" y="582" type="line"/>
      <point x="22" y="582" type="line"/>
      <point x="22" y="483" type="line"/>
    </contour>
    <contour>
      <point x="231" y="375" type="line"/>
      <point x="231" y="689" type="line"/>
      <point x="128" y="689" type="line"/>
      <point x="128" y="375" type="line"/>
    </contour>
  </outline>
</glyph>
<glyph name="equalsuperior" format="2">
  <advance width="414"/>
  <unicode hex="207C"/>
  <outline>
    <contour>
      <point x="358" y="402" type="line"/>
      <point x="358" y="504" type="line"/>
      <point x="55" y="504" type="line"/>
      <point x="55" y="402" type="line"/>
    </contour>
    <contour>
      <point x="358" y="566" type="line"/>
      <point x="358" y="668" type="line"/>
      <point x="55" y="668" type="line"/>
      <point x="55" y="566" type="line"/>
    </contour>
  </outline>
</glyph>
<glyph name="uni20BA" format="2">
  <advance width="731"/>
  <unicode hex="20BA"/>
  <outline>
    <contour>
      <point x="504" y="316" type="line"/>
      <point x="504" y="200"/>
      <point x="457" y="151"/>
      <point x="379" y="151" type="curve" smooth="yes"/>
      <point x="224" y="151" type="line"/>
      <point x="224" y="0" type="line"/>
      <point x="401" y="0" type="line" smooth="yes"/>
      <point x="597" y="0"/>
      <point x="698" y="122"/>
      <point x="700" y="316" type="curve"/>
    </contour>
    <contour>
      <point x="124" y="660" type="line"/>
      <point x="124" y="0" type="line"/>
      <point x="328" y="0" type="line"/>
      <point x="328" y="660" type="line"/>
    </contour>
    <contour>
      <point x="29" y="298" type="line"/>
      <point x="29" y="235" type="line"/>
      <point x="490" y="363" type="line"/>
      <point x="490" y="427" type="line"/>
    </contour>
    <contour>
      <point x="29" y="436" type="line"/>
      <point x="29" y="373" type="line"/>
      <point x="490" y="501" type="line"/>
      <point x="490" y="564" type="line"/>
    </contour>
  </outline>
</glyph>
<glyph name="uni2113" format="2">
  <advance width="466"/>
  <unicode hex="2113"/>
  <outline>
    <contour>
      <point x="414" y="9" type="curve"/>
      <point x="421" y="129" type="line"/>
      <point x="402" y="121"/>
      <point x="380" y="116"/>
      <point x="338" y="116" type="curve" smooth="yes"/>
      <point x="290" y="116"/>
      <point x="280" y="138"/>
      <point x="280" y="178" type="curve" smooth="yes"/>
      <point x="280" y="510" type="line" smooth="yes"/>
      <point x="280" y="554"/>
      <point x="289" y="576"/>
      <point x="313" y="576" type="curve" smooth="yes"/>
      <point x="336" y="576"/>
      <point x="344" y="559"/>
      <point x="344" y="522" type="curve" smooth="yes"/>
      <point x="344" y="376"/>
      <point x="249" y="265"/>
      <point x="33" y="255" type="curve"/>
      <point x="33" y="166" type="line"/>
      <point x="252" y="178"/>
      <point x="426" y="325"/>
      <point x="426" y="516" type="curve" smooth="yes"/>
      <point x="426" y="591"/>
      <point x="404" y="670"/>
      <point x="269" y="670" type="curve" smooth="yes"/>
      <point x="139" y="670"/>
      <point x="96" y="597"/>
      <point x="96" y="486" type="curve" smooth="yes"/>
      <point x="96" y="157" type="line" smooth="yes"/>
      <point x="96" y="38"/>
      <point x="152" y="-10"/>
      <point x="290" y="-10" type="curve" smooth="yes"/>
      <point x="343" y="-10"/>
      <point x="379" y="-4"/>
    </contour>
  </outline>
</glyph>
<glyph name="trademark" format="2">
  <advance width="825"/>
  <unicode hex="2122"/>
  <outline>
    <contour>
      <point x="113" y="660" type="line"/>
      <point x="113" y="330" type="line"/>
      <point x="223" y="330" type="line"/>
      <point x="223" y="660" type="line"/>
    </contour>
    <contour>
      <point x="10" y="660" type="line"/>
      <point x="10" y="579" type="line"/>
      <point x="326" y="579" type="line"/>
      <point x="326" y="660" type="line"/>
    </contour>
    <contour>
      <point x="641" y="660" type="line"/>
      <point x="598" y="520" type="line"/>
      <point x="584" y="456" type="line"/>
      <point x="581" y="456" type="line"/>
      <point x="566" y="520" type="line"/>
      <point x="524" y="660" type="line"/>
      <point x="361" y="660" type="line"/>
      <point x="361" y="330" type="line"/>
      <point x="471" y="330" type="line"/>
      <point x="471" y="450" type="line"/>
      <point x="466" y="557" type="line"/>
      <point x="469" y="557" type="line"/>
      <point x="492" y="473" type="line"/>
      <point x="536" y="330" type="line"/>
      <point x="626" y="330" type="line"/>
      <point x="670" y="472" type="line"/>
      <point x="693" y="557" type="line"/>
      <point x="696" y="557" type="line"/>
      <point x="691" y="450" type="line"/>
      <point x="691" y="330" type="line"/>
      <point x="800" y="330" type="line"/>
      <point x="800" y="660" type="line"/>
    </contour>
  </outline>
</glyph>
<glyph name="product" format="2">
  <advance width="697"/>
  <unicode hex="220F"/>
  <outline>
    <contour>
      <point x="451" y="660" type="line"/>
      <point x="451" y="-128" type="line"/>
      <point x="639" y="-128" type="line"/>
      <point x="639" y="660" type="line"/>
    </contour>
    <contour>
      <point x="58" y="660" type="line"/>
      <point x="58" y="-128" type="line"/>
      <point x="246" y="-128" type="line"/>
      <point x="246" y="660" type="line"/>
    </contour>
    <contour>
      <point x="154" y="660" type="line"/>
      <point x="154" y="507" type="line"/>
      <point x="550" y="507" type="line"/>
      <point x="550" y="660" type="line"/>
    </contour>
  </outline>
</glyph>
<glyph name="summation" format="2">
  <advance width="686"/>
  <unicode hex="2211"/>
  <outline>
    <contour>
      <point x="303" y="266" type="line"/>
      <point x="56" y="9" type="line"/>
      <point x="240" y="-17" type="line"/>
      <point x="501" y="248" type="line"/>
      <point x="501" y="266" type="line"/>
    </contour>
    <contour>
      <point x="56" y="9" type="line"/>
      <point x="56" y="-128" type="line"/>
      <point x="630" y="-128" type="line"/>
      <point x="630" y="9" type="line"/>
    </contour>
    <contour>
      <point x="56" y="515" type="line"/>
      <point x="303" y="266" type="line"/>
      <point x="501" y="266" type="line"/>
      <point x="501" y="284" type="line"/>
      <point x="240" y="542" type="line"/>
    </contour>
    <contour>
      <point x="56" y="660" type="line"/>
      <point x="56" y="515" type="line"/>
      <point x="630" y="515" type="line"/>
      <point x="630" y="660" type="line"/>
    </contour>
  </outline>
</glyph>
<glyph name="radical" format="2">
  <advance width="692"/>
  <unicode hex="221A"/>
  <outline>
    <contour>
      <point x="581" y="818" type="line"/>
      <point x="381" y="271" type="line"/>
      <point x="294" y="0" type="line"/>
      <point x="434" y="0" type="line"/>
      <point x="749" y="818" type="line"/>
    </contour>
    <contour>
      <point x="13" y="454" type="line"/>
      <point x="13" y="306" type="line"/>
      <point x="114" y="306" type="line"/>
      <point x="233" y="0" type="line"/>
      <point x="375" y="0" type="line"/>
      <point x="291" y="258" type="line"/>
      <point x="219" y="454" type="line"/>
    </contour>
  </outline>
</glyph>
<glyph name="integral" format="2">
  <advance width="484"/>
  <unicode hex="222B"/>
  <outline>
    <contour>
      <point x="150" y="568" type="curve" smooth="yes"/>
      <point x="150" y="73" type="line" smooth="yes"/>
      <point x="150" y="23"/>
      <point x="120" y="6"/>
      <point x="73" y="6" type="curve" smooth="yes"/>
      <point x="44" y="6"/>
      <point x="28" y="12"/>
      <point x="13" y="23" type="curve"/>
      <point x="-1" y="-96" type="line"/>
      <point x="24" y="-115"/>
      <point x="63" y="-128"/>
      <point x="124" y="-128" type="curve" smooth="yes"/>
      <point x="234" y="-128"/>
      <point x="334" y="-76"/>
      <point x="334" y="62" type="curve" smooth="yes"/>
      <point x="334" y="557" type="line" smooth="yes"/>
      <point x="334" y="607"/>
      <point x="365" y="624"/>
      <point x="411" y="624" type="curve" smooth="yes"/>
      <point x="441" y="624"/>
      <point x="457" y="618"/>
      <point x="472" y="607" type="curve"/>
      <point x="486" y="726" type="line"/>
      <point x="461" y="745"/>
      <point x="421" y="758"/>
      <point x="361" y="758" type="curve" smooth="yes"/>
      <point x="251" y="758"/>
      <point x="150" y="706"/>
    </contour>
  </outline>
</glyph>
<glyph name="approxequal" format="2">
  <advance width="604"/>
  <unicode hex="2248"/>
  <outline>
    <contour>
      <point x="57" y="495" type="curve"/>
      <point x="57" y="351" type="line"/>
      <point x="97" y="387"/>
      <point x="131" y="402"/>
      <point x="189" y="402" type="curve" smooth="yes"/>
      <point x="267" y="402"/>
      <point x="329" y="344"/>
      <point x="418" y="344" type="curve" smooth="yes"/>
      <point x="466" y="344"/>
      <point x="507" y="359"/>
      <point x="547" y="394" type="curve"/>
      <point x="547" y="538" type="line"/>
      <point x="499" y="497"/>
      <point x="462" y="486"/>
      <point x="411" y="486" type="curve" smooth="yes"/>
      <point x="344" y="486"/>
      <point x="283" y="546"/>
      <point x="189" y="546" type="curve" smooth="yes"/>
      <point x="132" y="546"/>
      <point x="100" y="531"/>
    </contour>
    <contour>
      <point x="57" y="250" type="curve"/>
      <point x="57" y="105" type="line"/>
      <point x="97" y="142"/>
      <point x="131" y="157"/>
      <point x="189" y="157" type="curve" smooth="yes"/>
      <point x="267" y="157"/>
      <point x="329" y="98"/>
      <point x="418" y="98" type="curve" smooth="yes"/>
      <point x="466" y="98"/>
      <point x="507" y="114"/>
      <point x="547" y="148" type="curve"/>
      <point x="547" y="292" type="line"/>
      <point x="499" y="251"/>
      <point x="462" y="241"/>
      <point x="411" y="241" type="curve" smooth="yes"/>
      <point x="344" y="241"/>
      <point x="283" y="300"/>
      <point x="189" y="300" type="curve" smooth="yes"/>
      <point x="132" y="300"/>
      <point x="100" y="286"/>
    </contour>
  </outline>
</glyph>
<glyph name="notequal" format="2">
  <advance width="604"/>
  <unicode hex="2260"/>
  <outline>
    <contour>
      <point x="381" y="634" type="line"/>
      <point x="107" y="14" type="line"/>
      <point x="224" y="14" type="line"/>
      <point x="498" y="634" type="line"/>
    </contour>
    <contour>
      <point x="53" y="506" type="line"/>
      <point x="53" y="376" type="line"/>
      <point x="551" y="376" type="line"/>
      <point x="551" y="506" type="line"/>
    </contour>
    <contour>
      <point x="53" y="266" type="line"/>
      <point x="53" y="135" type="line"/>
      <point x="551" y="135" type="line"/>
      <point x="551" y="266" type="line"/>
    </contour>
  </outline>
</glyph>
<glyph name="lessequal" format="2">
  <advance width="604"/>
  <unicode hex="2264"/>
  <outline>
    <contour>
      <point x="58" y="530" type="line"/>
      <point x="58" y="399" type="line"/>
      <point x="550" y="499" type="line"/>
      <point x="550" y="662" type="line"/>
    </contour>
    <contour>
      <point x="58" y="0" type="line"/>
      <point x="550" y="0" type="line"/>
      <point x="550" y="140" type="line"/>
      <point x="58" y="140" type="line"/>
    </contour>
    <contour>
      <point x="58" y="438" type="line"/>
      <point x="58" y="307" type="line"/>
      <point x="550" y="175" type="line"/>
      <point x="550" y="338" type="line"/>
    </contour>
  </outline>
</glyph>
<glyph name="whiteSmallSquare" format="2">
  <advance width="600"/>
  <unicode hex="25AB"/>
  <outline>
    <contour>
      <point x="558" y="0" type="line"/>
      <point x="558" y="500" type="line"/>
      <point x="42" y="500" type="line"/>
      <point x="42" y="0" type="line"/>
    </contour>
    <contour>
      <point x="177" y="375" type="line"/>
      <point x="423" y="375" type="line"/>
      <point x="423" y="125" type="line"/>
      <point x="177" y="125" type="line"/>
    </contour>
  </outline>
</glyph>
<glyph name="whiteDiamond" format="2">
  <advance width="600"/>
  <unicode hex="25C7"/>
  <outline>
    <contour>
      <point x="565" y="259" type="line"/>
      <point x="300" y="524" type="line"/>
      <point x="35" y="259" type="line"/>
      <point x="300" y="-6" type="line"/>
    </contour>
    <contour>
      <point x="185" y="259" type="line"/>
      <point x="300" y="374" type="line"/>
      <point x="415" y="259" type="line"/>
      <point x="300" y="144" type="line"/>
    </contour>
  </outline>
</glyph>
<glyph name="A.swsh" format="2">
  <advance width="916"/>
  <anchor x="574" y="660" name="top"/>
  <anchor x="920" y="0" name="ogonek"/>
  <anchor x="574" y="0" name="bottom"/>
  <outline>
    <contour>
      <point x="448" y="92" type="curve" smooth="yes"/>
      <point x="545" y="401" type="line"/>
      <point x="571" y="508" type="line"/>
      <point x="574" y="508" type="line"/>
      <point x="602" y="400" type="line"/>
      <point x="710" y="0" type="line"/>
      <point x="920" y="0" type="line"/>
      <point x="697" y="660" type="line"/>
      <point x="452" y="660" type="line"/>
      <point x="284" y="165" type="line" smooth="yes"/>
      <point x="255" y="76"/>
      <point x="221" y="38"/>
      <point x="162" y="38" type="curve" smooth="yes"/>
      <point x="114" y="38"/>
      <point x="83" y="52"/>
      <point x="55" y="99" type="curve"/>
      <point x="-1" y="-34" type="line"/>
      <point x="25" y="-87"/>
      <point x="91" y="-110"/>
      <point x="175" y="-110" type="curve" smooth="yes"/>
      <point x="335" y="-110"/>
      <point x="410" y="-38"/>
    </contour>
    <contour>
      <point x="761" y="137" type="line"/>
      <point x="761" y="269" type="line"/>
      <point x="389" y="269" type="line"/>
      <point x="389" y="137" type="line"/>
    </contour>
    <component base="__swash_topleft" xOffset="17"/>
  </outline>
</glyph>
<glyph name="Adieresis.titl.001" format="2">
  <advance width="684"/>
  <outline>
    <contour>
      <point x="201" y="0" type="line"/>
      <point x="312" y="401" type="line"/>
      <point x="339" y="508" type="line"/>
      <point x="341" y="508" type="line"/>
      <point x="369" y="400" type="line"/>
      <point x="477" y="0" type="line"/>
      <point x="687" y="0" type="line"/>
      <point x="464" y="660" type="line"/>
      <point x="219" y="660" type="line"/>
      <point x="-3" y="0" type="line"/>
    </contour>
    <contour>
      <point x="529" y="137" type="line"/>
      <point x="529" y="269" type="line"/>
      <point x="156" y="269" type="line"/>
      <point x="156" y="137" type="line"/>
    </contour>
    <contour>
      <point x="145" y="512" type="curve"/>
      <point x="190" y="647" type="line"/>
      <point x="177" y="657"/>
      <point x="158" y="662"/>
      <point x="137" y="662" type="curve" smooth="yes"/>
      <point x="83" y="662"/>
      <point x="52" y="634"/>
      <point x="52" y="587" type="curve" smooth="yes"/>
      <point x="52" y="539"/>
      <point x="83" y="512"/>
      <point x="137" y="512" type="curve" smooth="yes"/>
      <point x="141" y="512"/>
      <point x="144" y="512"/>
    </contour>
    <contour>
      <point x="631" y="587" type="curve" smooth="yes"/>
      <point x="631" y="634"/>
      <point x="600" y="662"/>
      <point x="546" y="662" type="curve" smooth="yes"/>
      <point x="525" y="662"/>
      <point x="506" y="657"/>
      <point x="493" y="647" type="curve"/>
      <point x="537" y="512" type="line"/>
      <point x="539" y="512"/>
      <point x="542" y="512"/>
      <point x="546" y="512" type="curve" smooth="yes"/>
      <point x="600" y="512"/>
      <point x="631" y="539"/>
    </contour>
  </outline>
</glyph>
<glyph name="Aogonek_y" format="2">
  <advance width="1201"/>
  <anchor x="581" y="0" name="bottomC"/>
  <anchor x="341" y="660" name="top"/>
  <anchor x="687" y="0" name="ogonek"/>
  <anchor x="341" y="0" name="bottom"/>
  <outline>
    <contour>
      <point x="1007" y="500" type="line"/>
      <point x="944" y="232" type="line"/>
      <point x="919" y="118" type="line"/>
      <point x="898" y="229" type="line"/>
      <point x="838" y="500" type="line"/>
      <point x="617" y="500" type="line"/>
      <point x="763" y="127" type="line"/>
      <point x="824" y="-15" type="line"/>
      <point x="816" y="-35" type="line" smooth="yes"/>
      <point x="805" y="-63"/>
      <point x="785" y="-71"/>
      <point x="752" y="-71" type="curve" smooth="yes"/>
      <point x="732" y="-71"/>
      <point x="712" y="-68"/>
      <point x="702" y="-62" type="curve"/>
      <point x="679" y="-195" type="line"/>
      <point x="703" y="-209"/>
      <point x="730" y="-215"/>
      <point x="779" y="-215" type="curve" smooth="yes"/>
      <point x="906" y="-215"/>
      <point x="981" y="-151"/>
      <point x="1040" y="24" type="curve" smooth="yes"/>
      <point x="1206" y="500" type="line"/>
    </contour>
    <contour>
      <point x="603" y="32" type="line"/>
      <point x="500" y="21"/>
      <point x="416" y="-4"/>
      <point x="416" y="-100" type="curve" smooth="yes"/>
      <point x="416" y="-169"/>
      <point x="472" y="-215"/>
      <point x="545" y="-215" type="curve" smooth="yes"/>
      <point x="584" y="-215"/>
      <point x="611" y="-209"/>
      <point x="639" y="-192" type="curve"/>
      <point x="651" y="-95" type="line"/>
      <point x="636" y="-102"/>
      <point x="616" y="-106"/>
      <point x="595" y="-106" type="curve" smooth="yes"/>
      <point x="566" y="-106"/>
      <point x="554" y="-90"/>
      <point x="554" y="-69" type="curve" smooth="yes"/>
      <point x="554" y="-30"/>
      <point x="599" y="-10"/>
      <point x="687" y="0" type="curve"/>
    </contour>
    <component base="A"/>
  </outline>
</glyph>
<glyph name="G.ss04" format="2">
  <advance width="722"/>
  <anchor x="366" y="660" name="top"/>
  <anchor x="411" y="0" name="ogonek"/>
  <anchor x="384" y="0" name="bottom"/>
  <anchor x="365" y="0" name="bottomC"/>
  <outline>
    <contour>
      <point x="682" y="279" type="curve" smooth="yes"/>
      <point x="682" y="366" type="line"/>
      <point x="369" y="366" type="line"/>
      <point x="369" y="243" type="line"/>
      <point x="600" y="243" type="line"/>
      <point x="509" y="288" type="line"/>
      <point x="509" y="236" type="line" smooth="yes"/>
      <point x="509" y="189"/>
      <point x="468" y="146"/>
      <point x="390" y="146" type="curve" smooth="yes"/>
      <point x="290" y="146"/>
      <point x="246" y="197"/>
      <point x="246" y="330" type="curve" smooth="yes"/>
      <point x="246" y="455"/>
      <point x="295" y="514"/>
      <point x="374" y="514" type="curve" smooth="yes"/>
      <point x="435" y="514"/>
      <point x="469" y="486"/>
      <point x="482" y="424" type="curve"/>
      <point x="672" y="495" type="line"/>
      <point x="618" y="619"/>
      <point x="529" y="670"/>
      <point x="372" y="670" type="curve" smooth="yes"/>
      <point x="163" y="670"/>
      <point x="36" y="543"/>
      <point x="36" y="328" type="curve" smooth="yes"/>
      <point x="36" y="106"/>
      <point x="171" y="-10"/>
      <point x="369" y="-10" type="curve" smooth="yes"/>
      <point x="553" y="-10"/>
      <point x="682" y="73"/>
    </contour>
  </outline>
</glyph>
<glyph name="Hsuperior" format="2">
  <advance width="489"/>
  <outline>
    <contour>
      <point x="311" y="730" type="line"/>
      <point x="311" y="333" type="line"/>
      <point x="453" y="333" type="line"/>
      <point x="453" y="730" type="line"/>
    </contour>
    <contour>
      <point x="36" y="730" type="line"/>
      <point x="36" y="333" type="line"/>
      <point x="178" y="333" type="line"/>
      <point x="178" y="730" type="line"/>
    </contour>
    <contour>
      <point x="102" y="587" type="line"/>
      <point x="102" y="483" type="line"/>
      <point x="386" y="483" type="line"/>
      <point x="386" y="587" type="line"/>
    </contour>
  </outline>
</glyph>
<glyph name="M.swsh.001" format="2">
  <advance width="1188"/>
  <anchor x="723" y="660" name="top"/>
  <anchor x="1128" y="0" name="ogonek"/>
  <anchor x="723" y="0" name="bottom"/>
  <anchor x="742" y="0" name="bottomC"/>
  <outline>
    <contour>
      <point x="273" y="363" type="line"/>
      <point x="221" y="367"/>
      <point x="191" y="400"/>
      <point x="191" y="441" type="curve" smooth="yes"/>
      <point x="191" y="482"/>
      <point x="215" y="513"/>
      <point x="269" y="513" type="curve" smooth="yes"/>
      <point x="509" y="513" type="line"/>
      <point x="509" y="660" type="line"/>
      <point x="266" y="660" type="line" smooth="yes"/>
      <point x="98" y="660"/>
      <point x="10" y="581"/>
      <point x="10" y="444" type="curve" smooth="yes"/>
      <point x="10" y="314"/>
      <point x="95" y="234"/>
      <point x="216" y="229" type="curve"/>
    </contour>
    <component base="M" xOffset="258"/>
  </outline>
</glyph>
<glyph name="N.swsh" format="2">
  <advance width="744"/>
  <anchor x="373" y="660" name="top"/>
  <anchor x="683" y="0" name="ogonek"/>
  <anchor x="378" y="0" name="bottom"/>
  <anchor x="540" y="0" name="bottomC"/>
  <outline>
    <contour>
      <point x="239" y="0" type="line"/>
      <point x="239" y="286" type="line"/>
      <point x="235" y="417" type="line"/>
      <point x="237" y="417" type="line"/>
      <point x="279" y="327" type="line"/>
      <point x="459" y="0" type="line"/>
      <point x="683" y="0" type="line"/>
      <point x="683" y="417" type="line"/>
      <point x="504" y="450" type="line"/>
      <point x="504" y="374" type="line"/>
      <point x="508" y="243" type="line"/>
      <point x="507" y="243" type="line"/>
      <point x="464" y="333" type="line"/>
      <point x="284" y="660" type="line"/>
      <point x="61" y="660" type="line"/>
      <point x="61" y="0" type="line"/>
    </contour>
    <contour>
      <point x="683" y="371" type="line"/>
      <point x="683" y="470" type="line" smooth="yes"/>
      <point x="683" y="538"/>
      <point x="718" y="575"/>
      <point x="777" y="575" type="curve" smooth="yes"/>
      <point x="831" y="575"/>
      <point x="857" y="557"/>
      <point x="881" y="516" type="curve"/>
      <point x="949" y="639" type="line"/>
      <point x="909" y="694"/>
      <point x="851" y="723"/>
      <point x="750" y="723" type="curve" smooth="yes"/>
      <point x="603" y="723"/>
      <point x="504" y="655"/>
      <point x="504" y="487" type="curve" smooth="yes"/>
      <point x="504" y="430" type="line"/>
    </contour>
  </outline>
</glyph>
<glyph name="S.swsh" format="2">
  <advance width="645"/>
  <anchor x="330" y="660" name="top"/>
  <anchor x="409" y="-100" name="ogonek"/>
  <anchor x="310" y="-100" name="bottom"/>
  <anchor x="298" y="-100" name="bottomC"/>
  <outline>
    <contour>
      <point x="621" y="123" type="curve" smooth="yes"/>
      <point x="621" y="246"/>
      <point x="558" y="307"/>
      <point x="388" y="343" type="curve" smooth="yes"/>
      <point x="282" y="366"/>
      <point x="248" y="391"/>
      <point x="248" y="436" type="curve" smooth="yes"/>
      <point x="248" y="484"/>
      <point x="278" y="514"/>
      <point x="331" y="514" type="curve" smooth="yes"/>
      <point x="401" y="514"/>
      <point x="430" y="466"/>
      <point x="428" y="398" type="curve"/>
      <point x="610" y="467" type="line"/>
      <point x="606" y="612"/>
      <point x="517" y="670"/>
      <point x="336" y="670" type="curve" smooth="yes"/>
      <point x="145" y="670"/>
      <point x="38" y="571"/>
      <point x="38" y="436" type="curve" smooth="yes"/>
      <point x="38" y="302"/>
      <point x="109" y="234"/>
      <point x="290" y="200" type="curve" smooth="yes"/>
      <point x="399" y="180"/>
      <point x="430" y="156"/>
      <point x="430" y="113" type="curve" smooth="yes"/>
      <point x="430" y="73"/>
      <point x="400" y="46"/>
      <point x="326" y="46" type="curve" smooth="yes"/>
      <point x="241" y="46"/>
      <point x="206" y="74"/>
      <point x="206" y="126" type="curve" smooth="yes"/>
      <point x="206" y="139"/>
      <point x="208" y="150"/>
      <point x="212" y="167" type="curve"/>
      <point x="33" y="120" type="line"/>
      <point x="30" y="107"/>
      <point x="28" y="90"/>
      <point x="28" y="64" type="curve" smooth="yes"/>
      <point x="28" y="-38"/>
      <point x="138" y="-110"/>
      <point x="308" y="-110" type="curve" smooth="yes"/>
      <point x="493" y="-110"/>
      <point x="621" y="-30"/>
    </contour>
  </outline>
</glyph>
<glyph name="T.swsh" format="2">
  <advance width="820"/>
  <anchor x="473" y="0" name="bottom"/>
  <anchor x="484" y="660" name="top"/>
  <anchor x="587" y="0" name="ogonek"/>
  <anchor x="483" y="337" name="center"/>
  <anchor x="514" y="0" name="bottomC"/>
  <outline>
    <contour>
      <point x="273" y="363" type="line"/>
      <point x="215" y="367"/>
      <point x="191" y="400"/>
      <point x="191" y="441" type="curve" smooth="yes"/>
      <point x="191" y="479"/>
      <point x="217" y="507"/>
      <point x="277" y="507" type="curve" smooth="yes"/>
      <point x="465" y="507" type="line"/>
      <point x="465" y="660" type="line"/>
      <point x="266" y="660" type="line" smooth="yes"/>
      <point x="98" y="660"/>
      <point x="10" y="581"/>
      <point x="10" y="444" type="curve" smooth="yes"/>
      <point x="10" y="319"/>
      <point x="95" y="234"/>
      <point x="216" y="229" type="curve"/>
    </contour>
    <contour>
      <point x="587" y="0" type="line"/>
      <point x="587" y="660" type="line"/>
      <point x="382" y="660" type="line"/>
      <point x="382" y="0" type="line"/>
    </contour>
    <contour>
      <point x="797" y="507" type="line"/>
      <point x="797" y="660" type="line"/>
      <point x="340" y="660" type="line"/>
      <point x="340" y="507" type="line"/>
    </contour>
  </outline>
</glyph>
<glyph name="Udieresis.titl" format="2">
  <advance width="710"/>
  <outline>
    <contour>
      <point x="438" y="484" type="curve" smooth="yes"/>
      <point x="438" y="523"/>
      <point x="412" y="547"/>
      <point x="369" y="547" type="curve" smooth="yes"/>
      <point x="327" y="547"/>
      <point x="301" y="523"/>
      <point x="301" y="484" type="curve" smooth="yes"/>
      <point x="301" y="447"/>
      <point x="327" y="424"/>
      <point x="369" y="424" type="curve" smooth="yes"/>
      <point x="412" y="424"/>
      <point x="438" y="447"/>
    </contour>
    <contour>
      <point x="411" y="601" type="curve" smooth="yes"/>
      <point x="411" y="639"/>
      <point x="385" y="662"/>
      <point x="342" y="662" type="curve" smooth="yes"/>
      <point x="300" y="662"/>
      <point x="275" y="639"/>
      <point x="275" y="601" type="curve" smooth="yes"/>
      <point x="275" y="563"/>
      <point x="300" y="539"/>
      <point x="342" y="540" type="curve" smooth="yes"/>
      <point x="385" y="539"/>
      <point x="411" y="563"/>
    </contour>
    <contour>
      <point x="458" y="660" type="line"/>
      <point x="458" y="266" type="line" smooth="yes"/>
      <point x="458" y="186"/>
      <point x="424" y="146"/>
      <point x="355" y="146" type="curve" smooth="yes"/>
      <point x="287" y="146"/>
      <point x="253" y="186"/>
      <point x="253" y="266" type="curve" smooth="yes"/>
      <point x="253" y="660" type="line"/>
      <point x="47" y="660" type="line"/>
      <point x="47" y="277" type="line" smooth="yes"/>
      <point x="47" y="85"/>
      <point x="151" y="-10"/>
      <point x="355" y="-10" type="curve" smooth="yes"/>
      <point x="560" y="-10"/>
      <point x="663" y="85"/>
      <point x="663" y="277" type="curve" smooth="yes"/>
      <point x="663" y="660" type="line"/>
    </contour>
  </outline>
</glyph>
<glyph name="__swash_topleft" format="2">
  <advance width="515"/>
  <outline>
    <contour>
      <point x="281" y="363" type="line"/>
      <point x="228" y="367"/>
      <point x="198" y="400"/>
      <point x="198" y="441" type="curve" smooth="yes"/>
      <point x="198" y="482"/>
      <point x="222" y="513"/>
      <point x="277" y="513" type="curve" smooth="yes"/>
      <point x="517" y="513" type="line"/>
      <point x="517" y="660" type="line"/>
      <point x="274" y="660" type="line" smooth="yes"/>
      <point x="105" y="660"/>
      <point x="18" y="581"/>
      <point x="18" y="444" type="curve" smooth="yes"/>
      <point x="18" y="314"/>
      <point x="102" y="234"/>
      <point x="224" y="229" type="curve"/>
    </contour>
  </outline>
</glyph>
<glyph name="ae.sc" format="2">
  <advance width="871"/>
  <anchor x="467" y="560" name="top"/>
  <anchor x="467" y="0" name="bottom"/>
  <outline>
    <contour>
      <point x="209" y="560" type="line"/>
      <point x="-5" y="0" type="line"/>
      <point x="183" y="0" type="line"/>
      <point x="367" y="560" type="line"/>
    </contour>
    <contour>
      <point x="181" y="279" type="line"/>
      <point x="119" y="149" type="line"/>
      <point x="478" y="149" type="line"/>
      <point x="478" y="279" type="line"/>
    </contour>
    <contour>
      <point x="470" y="134" type="line"/>
      <point x="470" y="0" type="line"/>
      <point x="842" y="0" type="line"/>
      <point x="842" y="134" type="line"/>
    </contour>
    <contour>
      <point x="375" y="560" type="line"/>
      <point x="375" y="0" type="line"/>
      <point x="559" y="0" type="line"/>
      <point x="559" y="560" type="line"/>
    </contour>
    <contour>
      <point x="470" y="343" type="line"/>
      <point x="470" y="213" type="line"/>
      <point x="762" y="213" type="line"/>
      <point x="762" y="343" type="line"/>
    </contour>
    <contour>
      <point x="283" y="560" type="line"/>
      <point x="240" y="430" type="line"/>
      <point x="460" y="430" type="line"/>
      <point x="502" y="426" type="line"/>
      <point x="831" y="426" type="line"/>
      <point x="831" y="560" type="line"/>
    </contour>
  </outline>
</glyph>
<glyph name="ampersand.sc" format="2">
  <advance width="588"/>
  <outline>
    <contour>
      <point x="593" y="112" type="line"/>
      <point x="525" y="111"/>
      <point x="478" y="125"/>
      <point x="365" y="240" type="curve" smooth="yes"/>
      <point x="256" y="351"/>
      <point x="236" y="374"/>
      <point x="236" y="410" type="curve" smooth="yes"/>
      <point x="236" y="435"/>
      <point x="247" y="451"/>
      <point x="272" y="451" type="curve" smooth="yes"/>
      <point x="294" y="451"/>
      <point x="307" y="440"/>
      <point x="307" y="411" type="curve" smooth="yes"/>
      <point x="307" y="373"/>
      <point x="293" y="353"/>
      <point x="227" y="308" type="curve"/>
      <point x="46" y="280"/>
      <point x="14" y="210"/>
      <point x="14" y="140" type="curve" smooth="yes"/>
      <point x="14" y="46"/>
      <point x="85" y="-7"/>
      <point x="242" y="-7" type="curve" smooth="yes"/>
      <point x="338" y="-7"/>
      <point x="404" y="19"/>
      <point x="446" y="80" type="curve"/>
      <point x="500" y="112"/>
      <point x="547" y="159"/>
      <point x="547" y="275" type="curve"/>
      <point x="434" y="278" type="line"/>
      <point x="437" y="203"/>
      <point x="421" y="171"/>
      <point x="389" y="143" type="curve"/>
      <point x="351" y="123"/>
      <point x="313" y="109"/>
      <point x="258" y="109" type="curve" smooth="yes"/>
      <point x="215" y="109"/>
      <point x="180" y="129"/>
      <point x="180" y="164" type="curve" smooth="yes"/>
      <point x="180" y="191"/>
      <point x="199" y="215"/>
      <point x="270" y="249" type="curve"/>
      <point x="413" y="295"/>
      <point x="448" y="350"/>
      <point x="448" y="429" type="curve" smooth="yes"/>
      <point x="448" y="511"/>
      <point x="388" y="568"/>
      <point x="268" y="568" type="curve" smooth="yes"/>
      <point x="128" y="568"/>
      <point x="70" y="490"/>
      <point x="70" y="417" type="curve" smooth="yes"/>
      <point x="70" y="341"/>
      <point x="114" y="294"/>
      <point x="297" y="133" type="curve" smooth="yes"/>
      <point x="434" y="11"/>
      <point x="480" y="-8"/>
      <point x="571" y="-8" type="curve"/>
    </contour>
  </outline>
</glyph>
<glyph name="aogonek_j" format="2">
  <advance width="882"/>
  <outline>
    <contour>
      <point x="30" y="340" type="curve"/>
      <point x="196" y="308" type="line"/>
      <point x="202" y="360"/>
      <point x="230" y="376"/>
      <point x="266" y="376" type="curve" smooth="yes"/>
      <point x="303" y="376"/>
      <point x="324" y="353"/>
      <point x="324" y="315" type="curve" smooth="yes"/>
      <point x="324" y="115" type="line"/>
      <point x="361" y="123" type="line" smooth="yes"/>
      <point x="361" y="49"/>
      <point x="410" y="5"/>
      <point x="502" y="5" type="curve" smooth="yes"/>
      <point x="525" y="5"/>
      <point x="535" y="8"/>
      <point x="571" y="4" type="curve"/>
      <point x="587" y="115" type="line"/>
      <point x="580" y="112"/>
      <point x="570" y="111"/>
      <point x="559" y="111" type="curve" smooth="yes"/>
      <point x="536" y="111"/>
      <point x="524" y="124"/>
      <point x="524" y="151" type="curve" smooth="yes"/>
      <point x="524" y="311" type="line" smooth="yes"/>
      <point x="524" y="444"/>
      <point x="443" y="510"/>
      <point x="276" y="510" type="curve" smooth="yes"/>
      <point x="125" y="510"/>
      <point x="43" y="445"/>
    </contour>
    <contour>
      <point x="219" y="272" type="line" smooth="yes"/>
      <point x="79" y="243"/>
      <point x="24" y="193"/>
      <point x="24" y="112" type="curve" smooth="yes"/>
      <point x="24" y="33"/>
      <point x="78" y="-10"/>
      <point x="181" y="-10" type="curve" smooth="yes"/>
      <point x="313" y="-10"/>
      <point x="379" y="68"/>
      <point x="379" y="157" type="curve"/>
      <point x="324" y="165" type="line"/>
      <point x="324" y="126"/>
      <point x="295" y="105"/>
      <point x="260" y="105" type="curve" smooth="yes"/>
      <point x="234" y="105"/>
      <point x="215" y="118"/>
      <point x="215" y="145" type="curve" smooth="yes"/>
      <point x="215" y="174"/>
      <point x="237" y="195"/>
      <point x="276" y="205" type="curve" smooth="yes"/>
      <point x="373" y="230" type="line"/>
      <point x="357" y="301" type="line"/>
    </contour>
    <contour>
      <point x="317" y="-117" type="curve" smooth="yes"/>
      <point x="317" y="-172"/>
      <point x="357" y="-215"/>
      <point x="431" y="-215" type="curve" smooth="yes"/>
      <point x="467" y="-215"/>
      <point x="490" y="-210"/>
      <point x="509" y="-198" type="curve"/>
      <point x="527" y="-99" type="line"/>
      <point x="516" y="-104"/>
      <point x="505" y="-106"/>
      <point x="491" y="-106" type="curve" smooth="yes"/>
      <point x="467" y="-106"/>
      <point x="453" y="-90"/>
      <point x="453" y="-68" type="curve" smooth="yes"/>
      <point x="453" y="-34"/>
      <point x="484" y="0"/>
      <point x="571" y="4" type="curve"/>
      <point x="490" y="31" type="line"/>
      <point x="390" y="20"/>
      <point x="317" y="-29"/>
    </contour>
    <contour>
      <point x="633" y="500" type="line"/>
      <point x="633" y="-23" type="line" smooth="yes"/>
      <point x="633" y="-63"/>
      <point x="623" y="-74"/>
      <point x="605" y="-74" type="curve" smooth="yes"/>
      <point x="593" y="-74"/>
      <point x="583" y="-72"/>
      <point x="576" y="-66" type="curve"/>
      <point x="550" y="-201" type="line"/>
      <point x="576" y="-212"/>
      <point x="595" y="-215"/>
      <point x="627" y="-215" type="curve" smooth="yes"/>
      <point x="731" y="-215"/>
      <point x="835" y="-185"/>
      <point x="835" y="-28" type="curve" smooth="yes"/>
      <point x="835" y="500" type="line"/>
    </contour>
    <contour>
      <point x="621" y="633" type="curve" smooth="yes"/>
      <point x="621" y="570"/>
      <point x="653" y="544"/>
      <point x="733" y="544" type="curve" smooth="yes"/>
      <point x="815" y="544"/>
      <point x="847" y="570"/>
      <point x="847" y="633" type="curve" smooth="yes"/>
      <point x="847" y="696"/>
      <point x="815" y="723"/>
      <point x="733" y="723" type="curve" smooth="yes"/>
      <point x="653" y="723"/>
      <point x="621" y="696"/>
    </contour>
  </outline>
</glyph>
<glyph name="aring.sc" format="2">
  <advance width="641"/>
  <anchor x="321" y="754" name="top"/>
  <anchor x="640" y="0" name="ogonek"/>
  <anchor x="321" y="0" name="bottom"/>
  <anchor x="555" y="0" name="bottomC"/>
  <outline>
    <contour>
      <point x="192" y="0" type="line"/>
      <point x="257" y="212" type="line"/>
      <point x="317" y="409" type="line"/>
      <point x="321" y="409" type="line"/>
      <point x="377" y="212" type="line"/>
      <point x="444" y="0" type="line"/>
      <point x="640" y="0" type="line"/>
      <point x="435" y="560" type="line"/>
      <point x="206" y="560" type="line"/>
      <point x="1" y="0" type="line"/>
    </contour>
    <contour>
      <point x="492" y="103" type="line"/>
      <point x="492" y="233" type="line"/>
      <point x="150" y="233" type="line"/>
      <point x="150" y="103" type="line"/>
    </contour>
    <contour>
      <point x="162" y="631" type="curve" smooth="yes"/>
      <point x="162" y="550"/>
      <point x="221" y="508"/>
      <point x="321" y="508" type="curve" smooth="yes"/>
      <point x="413" y="508"/>
      <point x="479" y="550"/>
      <point x="479" y="631" type="curve" smooth="yes"/>
      <point x="479" y="711"/>
      <point x="421" y="764"/>
      <point x="321" y="764" type="curve" smooth="yes"/>
      <point x="221" y="764"/>
      <point x="162" y="711"/>
    </contour>
    <contour>
      <point x="375" y="623" type="curve" smooth="yes"/>
      <point x="375" y="592"/>
      <point x="354" y="572"/>
      <point x="321" y="572" type="curve" smooth="yes"/>
      <point x="287" y="572"/>
      <point x="267" y="592"/>
      <point x="267" y="623" type="curve" smooth="yes"/>
      <point x="267" y="655"/>
      <point x="287" y="675"/>
      <point x="321" y="675" type="curve" smooth="yes"/>
      <point x="354" y="675"/>
      <point x="375" y="655"/>
    </contour>
  </outline>
</glyph>
<glyph name="blackSmallSquare.case" format="2">
  <advance width="813"/>
  <outline>
    <contour>
      <point x="76" y="0" type="line"/>
      <point x="736" y="0" type="line"/>
      <point x="736" y="660" type="line"/>
      <point x="76" y="660" type="line"/>
    </contour>
  </outline>
</glyph>
<glyph name="bowl" format="2">
  <advance width="603"/>
  <outline>
    <contour>
      <point x="80" y="248" type="curve" smooth="yes"/>
      <point x="80" y="85"/>
      <point x="152" y="-10"/>
      <point x="278" y="-10" type="curve" smooth="yes"/>
      <point x="393" y="-10"/>
      <point x="460" y="87"/>
      <point x="460" y="209" type="curve"/>
      <point x="424" y="246" type="line"/>
      <point x="424" y="168"/>
      <point x="398" y="134"/>
      <point x="355" y="134" type="curve" smooth="yes"/>
      <point x="311" y="134"/>
      <point x="284" y="164"/>
      <point x="284" y="250" type="curve" smooth="yes"/>
      <point x="284" y="336"/>
      <point x="311" y="365"/>
      <point x="355" y="365" type="curve" smooth="yes"/>
      <point x="401" y="365"/>
      <point x="424" y="328"/>
      <point x="424" y="254" type="curve"/>
      <point x="448" y="291" type="line"/>
      <point x="448" y="414"/>
      <point x="394" y="510"/>
      <point x="279" y="510" type="curve" smooth="yes"/>
      <point x="154" y="510"/>
      <point x="80" y="414"/>
    </contour>
  </outline>
</glyph>
<glyph name="bracketleft.case" format="2">
  <advance width="407"/>
  <outline>
    <contour>
      <point x="85" y="752" type="line"/>
      <point x="85" y="-97" type="line"/>
      <point x="257" y="-97" type="line"/>
      <point x="257" y="752" type="line"/>
    </contour>
    <contour>
      <point x="170" y="39" type="line"/>
      <point x="170" y="-97" type="line"/>
      <point x="383" y="-97" type="line"/>
      <point x="383" y="39" type="line"/>
    </contour>
    <contour>
      <point x="170" y="752" type="line"/>
      <point x="170" y="616" type="line"/>
      <point x="383" y="616" type="line"/>
      <point x="383" y="752" type="line"/>
    </contour>
  </outline>
</glyph>
<glyph name="caron.alt" format="2">
  <advance width="239"/>
  <anchor x="59" y="706" name="_topright"/>
  <outline>
    <contour>
      <point x="59" y="706" type="line"/>
      <point x="37" y="452" type="line"/>
      <point x="150" y="452" type="line"/>
      <point x="207" y="706" type="line"/>
    </contour>
  </outline>
</glyph>
<glyph name="commasuperior" format="2">
  <advance width="241"/>
  <outline>
    <contour>
      <point x="35" y="399" type="curve" smooth="yes"/>
      <point x="35" y="351"/>
      <point x="77" y="327"/>
      <point x="107" y="327" type="curve" smooth="yes"/>
      <point x="116" y="327"/>
      <point x="121" y="329"/>
      <point x="127" y="333" type="curve"/>
      <point x="130" y="330" type="line"/>
      <point x="118" y="297"/>
      <point x="79" y="271"/>
      <point x="31" y="252" type="curve"/>
      <point x="97" y="208" type="line"/>
      <point x="172" y="239"/>
      <point x="210" y="300"/>
      <point x="210" y="369" type="curve" smooth="yes"/>
      <point x="210" y="433"/>
      <point x="182" y="474"/>
      <point x="119" y="474" type="curve" smooth="yes"/>
      <point x="64" y="474"/>
      <point x="35" y="448"/>
    </contour>
  </outline>
</glyph>
<glyph name="dollar.001" format="2">
  <advance width="647"/>
  <outline>
    <contour>
      <point x="38" y="453" type="curve" smooth="yes"/>
      <point x="38" y="205"/>
      <point x="436" y="291"/>
      <point x="436" y="186" type="curve" smooth="yes"/>
      <point x="436" y="154"/>
      <point x="399" y="136"/>
      <point x="324" y="136" type="curve" smooth="yes"/>
      <point x="228" y="136"/>
      <point x="150" y="167"/>
      <point x="106" y="231" type="curve"/>
      <point x="18" y="108" type="line"/>
      <point x="86" y="38"/>
      <point x="173" y="0"/>
      <point x="336" y="0" type="curve" smooth="yes"/>
      <point x="497" y="0"/>
      <point x="624" y="69"/>
      <point x="624" y="195" type="curve" smooth="yes"/>
      <point x="624" y="447"/>
      <point x="226" y="366"/>
      <point x="226" y="466" type="curve" smooth="yes"/>
      <point x="226" y="500"/>
      <point x="269" y="524"/>
      <point x="341" y="524" type="curve" smooth="yes"/>
      <point x="428" y="524"/>
      <point x="490" y="499"/>
      <point x="539" y="432" type="curve"/>
      <point x="632" y="547" type="line"/>
      <point x="568" y="613"/>
      <point x="496" y="660"/>
      <point x="336" y="660" type="curve" smooth="yes"/>
      <point x="145" y="660"/>
      <point x="38" y="573"/>
    </contour>
    <contour>
      <point x="256" y="68" type="line"/>
      <point x="256" y="-108" type="line"/>
      <point x="411" y="-108" type="line"/>
      <point x="411" y="68" type="line"/>
    </contour>
    <contour>
      <point x="410" y="605" type="line"/>
      <point x="410" y="768" type="line"/>
      <point x="255" y="768" type="line"/>
      <point x="255" y="605" type="line"/>
    </contour>
  </outline>
</glyph>
<glyph name="eight.tf" format="2">
  <advance width="604"/>
  <outline>
    <contour>
      <point x="53" y="478" type="curve" smooth="yes"/>
      <point x="53" y="410"/>
      <point x="94" y="359"/>
      <point x="157" y="334" type="curve"/>
      <point x="157" y="333" type="line"/>
      <point x="83" y="308"/>
      <point x="38" y="257"/>
      <point x="38" y="182" type="curve" smooth="yes"/>
      <point x="38" y="61"/>
      <point x="137" y="-10"/>
      <point x="302" y="-10" type="curve" smooth="yes"/>
      <point x="467" y="-10"/>
      <point x="566" y="61"/>
      <point x="566" y="182" type="curve" smooth="yes"/>
      <point x="566" y="259"/>
      <point x="519" y="308"/>
      <point x="447" y="333" type="curve"/>
      <point x="447" y="334" type="line"/>
      <point x="511" y="360"/>
      <point x="551" y="410"/>
      <point x="551" y="478" type="curve" smooth="yes"/>
      <point x="551" y="596"/>
      <point x="457" y="667"/>
      <point x="302" y="667" type="curve" smooth="yes"/>
      <point x="147" y="667"/>
      <point x="53" y="596"/>
    </contour>
    <contour>
      <point x="373" y="461" type="curve" smooth="yes"/>
      <point x="373" y="420"/>
      <point x="346" y="396"/>
      <point x="302" y="396" type="curve" smooth="yes"/>
      <point x="258" y="396"/>
      <point x="231" y="420"/>
      <point x="231" y="461" type="curve" smooth="yes"/>
      <point x="231" y="503"/>
      <point x="257" y="526"/>
      <point x="302" y="526" type="curve" smooth="yes"/>
      <point x="347" y="526"/>
      <point x="373" y="503"/>
    </contour>
    <contour>
      <point x="226" y="199" type="curve" smooth="yes"/>
      <point x="226" y="242"/>
      <point x="254" y="267"/>
      <point x="303" y="267" type="curve" smooth="yes"/>
      <point x="352" y="267"/>
      <point x="380" y="242"/>
      <point x="380" y="199" type="curve" smooth="yes"/>
      <point x="380" y="156"/>
      <point x="352" y="131"/>
      <point x="303" y="131" type="curve" smooth="yes"/>
      <point x="254" y="131"/>
      <point x="226" y="156"/>
    </contour>
  </outline>
</glyph>
<glyph name="euro.part" format="2">
  <advance width="702"/>
  <outline>
    <contour>
      <point x="88" y="330" type="curve" smooth="yes"/>
      <point x="88" y="116"/>
      <point x="211" y="-10"/>
      <point x="413" y="-10" type="curve" smooth="yes"/>
      <point x="549" y="-10"/>
      <point x="656" y="49"/>
      <point x="684" y="176" type="curve"/>
      <point x="532" y="220" type="line"/>
      <point x="519" y="156"/>
      <point x="477" y="128"/>
      <point x="419" y="128" type="curve" smooth="yes"/>
      <point x="312" y="128"/>
      <point x="272" y="197"/>
      <point x="272" y="330" type="curve" smooth="yes"/>
      <point x="272" y="464"/>
      <point x="319" y="532"/>
      <point x="423" y="532" type="curve" smooth="yes"/>
      <point x="479" y="532"/>
      <point x="530" y="509"/>
      <point x="537" y="445" type="curve"/>
      <point x="682" y="513" type="line"/>
      <point x="653" y="612"/>
      <point x="545" y="670"/>
      <point x="413" y="670" type="curve" smooth="yes"/>
      <point x="212" y="670"/>
      <point x="88" y="544"/>
    </contour>
  </outline>
</glyph>
<glyph name="euro.part.tf" format="2">
  <advance width="604"/>
  <outline>
    <contour>
      <point x="91" y="330" type="curve" smooth="yes"/>
      <point x="91" y="114"/>
      <point x="187" y="-10"/>
      <point x="356" y="-10" type="curve" smooth="yes"/>
      <point x="482" y="-10"/>
      <point x="574" y="61"/>
      <point x="593" y="171" type="curve"/>
      <point x="446" y="210" type="line"/>
      <point x="442" y="153"/>
      <point x="413" y="128"/>
      <point x="359" y="128" type="curve" smooth="yes"/>
      <point x="292" y="128"/>
      <point x="256" y="199"/>
      <point x="256" y="330" type="curve" smooth="yes"/>
      <point x="256" y="464"/>
      <point x="296" y="532"/>
      <point x="367" y="532" type="curve" smooth="yes"/>
      <point x="413" y="532"/>
      <point x="438" y="507"/>
      <point x="444" y="453" type="curve"/>
      <point x="588" y="521" type="line"/>
      <point x="562" y="626"/>
      <point x="495" y="670"/>
      <point x="365" y="670" type="curve" smooth="yes"/>
      <point x="190" y="670"/>
      <point x="91" y="546"/>
    </contour>
  </outline>
</glyph>
<glyph name="f_idieresis" format="2">
  <advance width="729"/>
  <outline>
    <contour>
      <point x="284" y="0" type="line"/>
      <point x="284" y="431" type="line"/>
      <point x="271" y="489" type="line"/>
      <point x="255" y="502"/>
      <point x="246" y="515"/>
      <point x="246" y="540" type="curve" smooth="yes"/>
      <point x="246" y="570"/>
      <point x="267" y="587"/>
      <point x="301" y="587" type="curve" smooth="yes"/>
      <point x="325" y="587"/>
      <point x="337" y="582"/>
      <point x="350" y="571" type="curve"/>
      <point x="364" y="692" type="line"/>
      <point x="343" y="709"/>
      <point x="303" y="723"/>
      <point x="254" y="723" type="curve" smooth="yes"/>
      <point x="132" y="723"/>
      <point x="57" y="666"/>
      <point x="57" y="578" type="curve" smooth="yes"/>
      <point x="57" y="535"/>
      <point x="73" y="501"/>
      <point x="99" y="481" type="curve"/>
      <point x="82" y="446" type="line"/>
      <point x="82" y="0" type="line"/>
    </contour>
    <contour>
      <point x="407" y="361" type="line"/>
      <point x="407" y="500" type="line"/>
      <point x="8" y="500" type="line"/>
      <point x="8" y="361" type="line"/>
    </contour>
    <contour>
      <point x="680" y="0" type="line"/>
      <point x="680" y="500" type="line"/>
      <point x="478" y="500" type="line"/>
      <point x="478" y="0" type="line"/>
    </contour>
    <contour>
      <point x="566" y="631" type="curve" smooth="yes"/>
      <point x="566" y="688"/>
      <point x="535" y="718"/>
      <point x="477" y="718" type="curve" smooth="yes"/>
      <point x="418" y="718"/>
      <point x="388" y="688"/>
      <point x="388" y="631" type="curve" smooth="yes"/>
      <point x="388" y="573"/>
      <point x="418" y="544"/>
      <point x="477" y="544" type="curve" smooth="yes"/>
      <point x="535" y="544"/>
      <point x="566" y="573"/>
    </contour>
    <contour>
      <point x="769" y="631" type="curve" smooth="yes"/>
      <point x="769" y="688"/>
      <point x="739" y="718"/>
      <point x="681" y="718" type="curve" smooth="yes"/>
      <point x="622" y="718"/>
      <point x="592" y="688"/>
      <point x="592" y="631" type="curve" smooth="yes"/>
      <point x="592" y="573"/>
      <point x="622" y="544"/>
      <point x="681" y="544" type="curve" smooth="yes"/>
      <point x="739" y="544"/>
      <point x="769" y="573"/>
    </contour>
  </outline>
</glyph>
<glyph name="f_t.liga" format="2">
  <advance width="801"/>
  <anchor x="613" y="0" name="bottom"/>
  <anchor x="518" y="250" name="center"/>
  <anchor x="714" y="767" name="topright"/>
  <outline>
    <contour>
      <point x="82" y="532" type="curve" smooth="yes"/>
      <point x="82" y="0" type="line"/>
      <point x="284" y="0" type="line"/>
      <point x="284" y="431" type="line"/>
      <point x="271" y="459" type="line"/>
      <point x="271" y="521" type="line" smooth="yes"/>
      <point x="271" y="570"/>
      <point x="301" y="587"/>
      <point x="337" y="587" type="curve" smooth="yes"/>
      <point x="361" y="587"/>
      <point x="373" y="583"/>
      <point x="387" y="575" type="curve"/>
      <point x="396" y="694" type="line"/>
      <point x="374" y="711"/>
      <point x="337" y="724"/>
      <point x="285" y="724" type="curve" smooth="yes"/>
      <point x="182" y="724"/>
      <point x="82" y="672"/>
    </contour>
    <contour>
      <point x="8" y="500" type="line"/>
      <point x="8" y="361" type="line"/>
      <point x="417" y="361" type="line"/>
      <point x="417" y="500" type="line"/>
    </contour>
    <contour>
      <point x="449" y="609" type="line"/>
      <point x="449" y="160" type="line" smooth="yes"/>
      <point x="449" y="36"/>
      <point x="521" y="-10"/>
      <point x="649" y="-10" type="curve" smooth="yes"/>
      <point x="700" y="-10"/>
      <point x="761" y="4"/>
      <point x="794" y="26" type="curve"/>
      <point x="781" y="144" type="line"/>
      <point x="762" y="133"/>
      <point x="742" y="127"/>
      <point x="714" y="127" type="curve" smooth="yes"/>
      <point x="672" y="127"/>
      <point x="651" y="145"/>
      <point x="651" y="192" type="curve" smooth="yes"/>
      <point x="651" y="665" type="line"/>
    </contour>
    <contour>
      <point x="367" y="500" type="line"/>
      <point x="367" y="361" type="line"/>
      <point x="788" y="361" type="line"/>
      <point x="788" y="500" type="line"/>
    </contour>
  </outline>
</glyph>
<glyph name="five.osf" format="2">
  <advance width="579"/>
  <outline>
    <contour>
      <point x="212" y="279" type="curve"/>
      <point x="211" y="279" type="line"/>
      <point x="213" y="285"/>
      <point x="215" y="293"/>
      <point x="216" y="305" type="curve"/>
      <point x="229" y="412" type="line"/>
      <point x="514" y="412" type="line"/>
      <point x="514" y="560" type="line"/>
      <point x="87" y="560" type="line"/>
      <point x="44" y="188" type="line"/>
      <point x="190" y="159" type="line"/>
      <point x="210" y="178"/>
      <point x="232" y="193"/>
      <point x="278" y="193" type="curve" smooth="yes"/>
      <point x="329" y="193"/>
      <point x="359" y="164"/>
      <point x="359" y="112" type="curve" smooth="yes"/>
      <point x="359" y="57"/>
      <point x="330" y="28"/>
      <point x="276" y="28" type="curve" smooth="yes"/>
      <point x="222" y="28"/>
      <point x="192" y="66"/>
      <point x="185" y="117" type="curve"/>
      <point x="17" y="33" type="line"/>
      <point x="67" y="-82"/>
      <point x="170" y="-110"/>
      <point x="285" y="-110" type="curve" smooth="yes"/>
      <point x="422" y="-110"/>
      <point x="537" y="-38"/>
      <point x="537" y="127" type="curve" smooth="yes"/>
      <point x="537" y="245"/>
      <point x="474" y="327"/>
      <point x="343" y="327" type="curve" smooth="yes"/>
      <point x="286" y="327"/>
      <point x="234" y="308"/>
    </contour>
  </outline>
</glyph>
<glyph name="five.sc" format="2">
  <advance width="557"/>
  <outline>
    <contour>
      <point x="216" y="313" type="curve"/>
      <point x="214" y="314" type="line"/>
      <point x="219" y="325"/>
      <point x="222" y="340"/>
      <point x="224" y="351" type="curve"/>
      <point x="233" y="423" type="line"/>
      <point x="495" y="423" type="line"/>
      <point x="495" y="560" type="line"/>
      <point x="89" y="560" type="line"/>
      <point x="52" y="235" type="line"/>
      <point x="200" y="215" type="line"/>
      <point x="217" y="236"/>
      <point x="239" y="245"/>
      <point x="272" y="245" type="curve" smooth="yes"/>
      <point x="313" y="245"/>
      <point x="342" y="228"/>
      <point x="342" y="191" type="curve" smooth="yes"/>
      <point x="343" y="158"/>
      <point x="319" y="133"/>
      <point x="276" y="133" type="curve" smooth="yes"/>
      <point x="226" y="133"/>
      <point x="209" y="151"/>
      <point x="194" y="181" type="curve"/>
      <point x="33" y="100" type="line"/>
      <point x="82" y="20"/>
      <point x="169" y="-8"/>
      <point x="283" y="-8" type="curve" smooth="yes"/>
      <point x="433" y="-8"/>
      <point x="518" y="70"/>
      <point x="518" y="192" type="curve" smooth="yes"/>
      <point x="518" y="293"/>
      <point x="449" y="359"/>
      <point x="349" y="359" type="curve" smooth="yes"/>
      <point x="275" y="359"/>
      <point x="238" y="339"/>
    </contour>
  </outline>
</glyph>
<glyph name="g.sc.ss04" format="2">
  <advance width="640"/>
  <anchor x="346" y="560" name="top"/>
  <anchor x="418" y="0" name="ogonek"/>
  <anchor x="379" y="0" name="bottom"/>
  <anchor x="351" y="0" name="bottomC"/>
  <outline>
    <contour>
      <point x="602" y="233" type="curve" smooth="yes"/>
      <point x="602" y="305" type="line"/>
      <point x="337" y="305" type="line"/>
      <point x="337" y="204" type="line"/>
      <point x="559" y="204" type="line"/>
      <point x="438" y="241" type="line"/>
      <point x="438" y="199" type="line" smooth="yes"/>
      <point x="438" y="165"/>
      <point x="410" y="131"/>
      <point x="347" y="131" type="curve" smooth="yes"/>
      <point x="272" y="131"/>
      <point x="238" y="180"/>
      <point x="238" y="280" type="curve" smooth="yes"/>
      <point x="238" y="374"/>
      <point x="279" y="423"/>
      <point x="345" y="423" type="curve" smooth="yes"/>
      <point x="398" y="423"/>
      <point x="420" y="398"/>
      <point x="431" y="352" type="curve"/>
      <point x="605" y="397" type="line"/>
      <point x="573" y="516"/>
      <point x="464" y="568"/>
      <point x="339" y="568" type="curve" smooth="yes"/>
      <point x="146" y="568"/>
      <point x="37" y="460"/>
      <point x="37" y="278" type="curve" smooth="yes"/>
      <point x="37" y="92"/>
      <point x="149" y="-8"/>
      <point x="339" y="-8" type="curve" smooth="yes"/>
      <point x="511" y="-8"/>
      <point x="602" y="79"/>
    </contour>
  </outline>
</glyph>
<glyph name="g_idieresis" format="2">
  <advance width="870"/>
  <anchor x="719" y="500" name="top"/>
  <anchor x="805" y="8" name="ogonek"/>
  <anchor x="719" y="0" name="bottom"/>
  <anchor x="719" y="0" name="bottomC"/>
  <outline>
    <contour>
      <point x="368" y="471" type="curve"/>
      <point x="424" y="451" type="line"/>
      <point x="424" y="497"/>
      <point x="461" y="534"/>
      <point x="528" y="520" type="curve"/>
      <point x="501" y="649" type="line"/>
      <point x="387" y="661"/>
      <point x="360" y="562"/>
    </contour>
    <component base="gbase" xOffset="-7"/>
    <component base="idieresis" xOffset="569"/>
  </outline>
</glyph>
<glyph name="h.sc" format="2">
  <advance width="688"/>
  <anchor x="344" y="560" name="top"/>
  <anchor x="627" y="0" name="ogonek"/>
  <anchor x="344" y="0" name="bottom"/>
  <anchor x="525" y="0" name="bottomC"/>
  <outline>
    <contour>
      <point x="429" y="560" type="line"/>
      <point x="429" y="0" type="line"/>
      <point x="627" y="0" type="line"/>
      <point x="627" y="560" type="line"/>
    </contour>
    <contour>
      <point x="61" y="560" type="line"/>
      <point x="61" y="0" type="line"/>
      <point x="259" y="0" type="line"/>
      <point x="259" y="560" type="line"/>
    </contour>
    <contour>
      <point x="160" y="359" type="line"/>
      <point x="160" y="209" type="line"/>
      <point x="530" y="209" type="line"/>
      <point x="530" y="359" type="line"/>
    </contour>
  </outline>
</glyph>
<glyph name="hyphensuperior" format="2">
  <advance width="357"/>
  <outline>
    <contour>
      <point x="51" y="585" type="line"/>
      <point x="51" y="478" type="line"/>
      <point x="306" y="478" type="line"/>
      <point x="306" y="585" type="line"/>
    </contour>
  </outline>
</glyph>
<glyph name="i.sc" format="2">
  <advance width="323"/>
  <anchor x="162" y="560" name="top"/>
  <anchor x="263" y="0" name="ogonek"/>
  <anchor x="162" y="0" name="bottom"/>
  <anchor x="162" y="0" name="bottomC"/>
  <outline>
    <contour>
      <point x="61" y="560" type="line"/>
      <point x="61" y="0" type="line"/>
      <point x="263" y="0" type="line"/>
      <point x="263" y="560" type="line"/>
    </contour>
  </outline>
</glyph>
<glyph name="iacute_j.loclNLD" format="2">
  <advance width="599"/>
  <anchor x="150" y="500" name="top"/>
  <anchor x="236" y="8" name="ogonek"/>
  <anchor x="150" y="0" name="bottom"/>
  <anchor x="150" y="0" name="bottomC"/>
  <outline>
    <contour>
      <point x="349" y="500" type="line"/>
      <point x="349" y="-2" type="line" smooth="yes"/>
      <point x="349" y="-57"/>
      <point x="326" y="-78"/>
      <point x="284" y="-78" type="curve" smooth="yes"/>
      <point x="261" y="-78"/>
      <point x="239" y="-71"/>
      <point x="227" y="-61" type="curve"/>
      <point x="201" y="-184" type="line"/>
      <point x="238" y="-205"/>
      <point x="284" y="-215"/>
      <point x="343" y="-215" type="curve" smooth="yes"/>
      <point x="482" y="-215"/>
      <point x="551" y="-159"/>
      <point x="551" y="-20" type="curve" smooth="yes"/>
      <point x="551" y="500" type="line"/>
    </contour>
    <component base="iacute"/>
    <component base="acute" xOffset="199"/>
  </outline>
</glyph>
<glyph name="ij.sc.ss05" format="2">
  <advance width="619"/>
  <outline>
    <contour>
      <point x="50" y="560" type="line"/>
      <point x="50" y="263" type="line"/>
      <point x="252" y="263" type="line"/>
      <point x="252" y="560" type="line"/>
    </contour>
    <contour>
      <point x="368" y="560" type="line"/>
      <point x="368" y="229" type="line" smooth="yes"/>
      <point x="368" y="164"/>
      <point x="348" y="143"/>
      <point x="306" y="143" type="curve" smooth="yes"/>
      <point x="264" y="143"/>
      <point x="242" y="163"/>
      <point x="248" y="215" type="curve"/>
      <point x="51" y="215" type="line"/>
      <point x="34" y="70"/>
      <point x="131" y="-8"/>
      <point x="303" y="-8" type="curve" smooth="yes"/>
      <point x="463" y="-8"/>
      <point x="570" y="78"/>
      <point x="570" y="230" type="curve" smooth="yes"/>
      <point x="570" y="560" type="line"/>
    </contour>
  </outline>
</glyph>
<glyph name="indexring" format="2">
  <advance width="910"/>
  <anchor x="455" y="330" name="indexring"/>
  <outline>
    <contour>
      <point x="838" y="330" type="curve" smooth="yes"/>
      <point x="838" y="551"/>
      <point x="684" y="700"/>
      <point x="455" y="700" type="curve" smooth="yes"/>
      <point x="226" y="700"/>
      <point x="72" y="551"/>
      <point x="72" y="330" type="curve" smooth="yes"/>
      <point x="72" y="109"/>
      <point x="226" y="-40"/>
      <point x="455" y="-40" type="curve" smooth="yes"/>
      <point x="684" y="-40"/>
      <point x="838" y="109"/>
    </contour>
    <contour>
      <point x="169" y="330" type="curve" smooth="yes"/>
      <point x="169" y="500"/>
      <point x="284" y="615"/>
      <point x="455" y="615" type="curve" smooth="yes"/>
      <point x="626" y="615"/>
      <point x="741" y="500"/>
      <point x="741" y="330" type="curve" smooth="yes"/>
      <point x="741" y="160"/>
      <point x="626" y="45"/>
      <point x="455" y="45" type="curve" smooth="yes"/>
      <point x="284" y="45"/>
      <point x="169" y="160"/>
    </contour>
  </outline>
</glyph>
<glyph name="iogonek_j" format="2">
  <advance width="598"/>
  <anchor x="236" y="8" name="ogonek_1"/>
  <anchor x="426" y="-204" name="ogonek_2"/>
  <anchor x="150" y="0" name="bottomC_1"/>
  <anchor x="404" y="-210" name="bottomC_2"/>
  <anchor x="150" y="0" name="bottom_1"/>
  <anchor x="404" y="-210" name="bottom_2"/>
  <anchor x="150" y="713" name="top_1"/>
  <anchor x="449" y="713" name="top_2"/>
  <outline>
    <contour>
      <point x="216" y="-194" type="curve"/>
      <point x="231" y="-95" type="line"/>
      <point x="219" y="-103"/>
      <point x="201" y="-106"/>
      <point x="181" y="-106" type="curve" smooth="yes"/>
      <point x="155" y="-106"/>
      <point x="139" y="-91"/>
      <point x="139" y="-69" type="curve" smooth="yes"/>
      <point x="139" y="-37"/>
      <point x="166" y="-8"/>
      <point x="250" y="0" type="curve"/>
      <point x="167" y="25" type="line"/>
      <point x="60" y="17"/>
      <point x="3" y="-32"/>
      <point x="3" y="-104" type="curve" smooth="yes"/>
      <point x="3" y="-168"/>
      <point x="49" y="-215"/>
      <point x="131" y="-215" type="curve" smooth="yes"/>
      <point x="166" y="-215"/>
      <point x="196" y="-209"/>
    </contour>
    <component base="i"/>
    <component base="j.ogonek" xOffset="253"/>
  </outline>
</glyph>
<glyph name="j.sc" format="2">
  <advance width="591"/>
  <anchor x="440" y="560" name="top"/>
  <anchor x="366" y="0" name="ogonek"/>
  <anchor x="287" y="0" name="bottom"/>
  <anchor x="297" y="0" name="bottomC"/>
  <outline>
    <contour>
      <point x="339" y="560" type="line"/>
      <point x="339" y="236" type="line" smooth="yes"/>
      <point x="339" y="172"/>
      <point x="323" y="143"/>
      <point x="276" y="143" type="curve" smooth="yes"/>
      <point x="232" y="143"/>
      <point x="207" y="171"/>
      <point x="222" y="279" type="curve"/>
      <point x="33" y="248" type="line"/>
      <point x="4" y="101"/>
      <point x="83" y="-8"/>
      <point x="278" y="-8" type="curve" smooth="yes"/>
      <point x="451" y="-8"/>
      <point x="541" y="61"/>
      <point x="541" y="222" type="curve" smooth="yes"/>
      <point x="541" y="560" type="line"/>
    </contour>
  </outline>
</glyph>
<glyph name="l.sc" format="2">
  <advance width="577"/>
  <anchor x="317" y="0" name="bottom"/>
  <anchor x="162" y="560" name="top"/>
  <anchor x="541" y="0" name="ogonek"/>
  <anchor x="351" y="560" name="topright"/>
  <anchor x="317" y="0" name="bottomC"/>
  <outline>
    <contour>
      <point x="61" y="560" type="line"/>
      <point x="61" y="0" type="line"/>
      <point x="263" y="0" type="line"/>
      <point x="263" y="560" type="line"/>
    </contour>
    <contour>
      <point x="162" y="150" type="line"/>
      <point x="162" y="0" type="line"/>
      <point x="541" y="0" type="line"/>
      <point x="541" y="150" type="line"/>
    </contour>
  </outline>
</glyph>
<glyph name="l.ss02" format="2">
  <advance width="301"/>
  <anchor x="150" y="0" name="bottom"/>
  <anchor x="150" y="706" name="top"/>
  <anchor x="236" y="8" name="ogonek"/>
  <anchor x="308" y="706" name="topright"/>
  <anchor x="150" y="0" name="bottomC"/>
  <outline>
    <contour>
      <point x="49" y="706" type="line"/>
      <point x="49" y="0" type="line"/>
      <point x="251" y="0" type="line"/>
      <point x="251" y="706" type="line"/>
    </contour>
  </outline>
</glyph>
<glyph name="longs_l" format="2">
  <advance width="683"/>
  <anchor x="652" y="353" name="center"/>
  <anchor x="530" y="0" name="bottom"/>
  <anchor x="490" y="706" name="top"/>
  <anchor x="565" y="0" name="bottomC"/>
  <anchor x="652" y="706" name="topright"/>
  <anchor x="624" y="0" name="ogonek"/>
  <outline>
    <contour>
      <point x="244" y="0" type="line"/>
      <point x="244" y="518" type="line" smooth="yes"/>
      <point x="244" y="568"/>
      <point x="273" y="587"/>
      <point x="313" y="587" type="curve" smooth="yes"/>
      <point x="331" y="587"/>
      <point x="343" y="585"/>
      <point x="355" y="576" type="curve"/>
      <point x="363" y="697" type="line"/>
      <point x="338" y="716"/>
      <point x="308" y="723"/>
      <point x="259" y="723" type="curve" smooth="yes"/>
      <point x="147" y="723"/>
      <point x="48" y="672"/>
      <point x="48" y="532" type="curve" smooth="yes"/>
      <point x="48" y="0" type="line"/>
    </contour>
    <component base="l" xOffset="349"/>
  </outline>
</glyph>
<glyph name="lslash.sc" format="2">
  <advance width="615"/>
  <anchor x="354" y="0" name="bottom"/>
  <anchor x="200" y="560" name="top"/>
  <anchor x="579" y="0" name="ogonek"/>
  <anchor x="389" y="560" name="topright"/>
  <anchor x="354" y="0" name="bottomC"/>
  <outline>
    <contour>
      <point x="3" y="248" type="line"/>
      <point x="3" y="126" type="line"/>
      <point x="448" y="340" type="line"/>
      <point x="448" y="462" type="line"/>
    </contour>
    <component base="l.sc" xOffset="38"/>
  </outline>
</glyph>
<glyph name="m.sc" format="2">
  <advance width="864"/>
  <anchor x="433" y="560" name="top"/>
  <anchor x="804" y="0" name="ogonek"/>
  <anchor x="433" y="0" name="bottom"/>
  <anchor x="451" y="0" name="bottomC"/>
  <outline>
    <contour>
      <point x="242" y="0" type="line"/>
      <point x="242" y="170" type="line"/>
      <point x="232" y="382" type="line"/>
      <point x="233" y="382" type="line"/>
      <point x="359" y="0" type="line"/>
      <point x="505" y="0" type="line"/>
      <point x="632" y="382" type="line"/>
      <point x="633" y="382" type="line"/>
      <point x="623" y="170" type="line"/>
      <point x="623" y="0" type="line"/>
      <point x="804" y="0" type="line"/>
      <point x="804" y="560" type="line"/>
      <point x="533" y="560" type="line"/>
      <point x="466" y="332" type="line"/>
      <point x="435" y="219" type="line"/>
      <point x="432" y="219" type="line"/>
      <point x="400" y="332" type="line"/>
      <point x="332" y="560" type="line"/>
      <point x="61" y="560" type="line"/>
      <point x="61" y="0" type="line"/>
    </contour>
  </outline>
</glyph>
<glyph name="nine.osf" format="2">
  <advance width="611"/>
  <outline>
    <contour>
      <point x="40" y="350" type="curve" smooth="yes"/>
      <point x="40" y="223"/>
      <point x="130" y="139"/>
      <point x="254" y="139" type="curve" smooth="yes"/>
      <point x="344" y="139"/>
      <point x="384" y="172"/>
      <point x="400" y="215" type="curve"/>
      <point x="403" y="215" type="line"/>
      <point x="403" y="203"/>
      <point x="403" y="196"/>
      <point x="403" y="189" type="curve" smooth="yes"/>
      <point x="403" y="79"/>
      <point x="368" y="28"/>
      <point x="303" y="28" type="curve" smooth="yes"/>
      <point x="245" y="28"/>
      <point x="224" y="55"/>
      <point x="218" y="107" type="curve"/>
      <point x="46" y="47" type="line"/>
      <point x="91" y="-81"/>
      <point x="183" y="-110"/>
      <point x="297" y="-110" type="curve" smooth="yes"/>
      <point x="473" y="-110"/>
      <point x="580" y="12"/>
      <point x="580" y="225" type="curve" smooth="yes"/>
      <point x="580" y="460"/>
      <point x="471" y="570"/>
      <point x="300" y="570" type="curve" smooth="yes"/>
      <point x="141" y="570"/>
      <point x="40" y="486"/>
    </contour>
    <contour>
      <point x="373" y="349" type="curve" smooth="yes"/>
      <point x="373" y="302"/>
      <point x="345" y="273"/>
      <point x="296" y="273" type="curve" smooth="yes"/>
      <point x="246" y="273"/>
      <point x="219" y="301"/>
      <point x="219" y="349" type="curve" smooth="yes"/>
      <point x="219" y="398"/>
      <point x="246" y="426"/>
      <point x="296" y="426" type="curve" smooth="yes"/>
      <point x="345" y="426"/>
      <point x="373" y="397"/>
    </contour>
  </outline>
</glyph>
<glyph name="nine.sc" format="2">
  <advance width="571"/>
  <outline>
    <contour>
      <point x="537" y="277" type="curve" smooth="yes"/>
      <point x="537" y="470"/>
      <point x="440" y="568"/>
      <point x="274" y="568" type="curve" smooth="yes"/>
      <point x="113" y="568"/>
      <point x="30" y="487"/>
      <point x="31" y="377" type="curve" smooth="yes"/>
      <point x="33" y="263"/>
      <point x="127" y="208"/>
      <point x="219" y="208" type="curve" smooth="yes"/>
      <point x="292" y="208"/>
      <point x="342" y="233"/>
      <point x="359" y="276" type="curve"/>
      <point x="361" y="276" type="line"/>
      <point x="361" y="273"/>
      <point x="361" y="268"/>
      <point x="361" y="266" type="curve" smooth="yes"/>
      <point x="361" y="162"/>
      <point x="323" y="129"/>
      <point x="266" y="129" type="curve" smooth="yes"/>
      <point x="221" y="129"/>
      <point x="194" y="149"/>
      <point x="190" y="188" type="curve"/>
      <point x="35" y="114" type="line"/>
      <point x="82" y="25"/>
      <point x="154" y="-8"/>
      <point x="271" y="-8" type="curve" smooth="yes"/>
      <point x="446" y="-8"/>
      <point x="537" y="89"/>
    </contour>
    <contour>
      <point x="212" y="376" type="curve" smooth="yes"/>
      <point x="212" y="411"/>
      <point x="233" y="431"/>
      <point x="272" y="431" type="curve" smooth="yes"/>
      <point x="309" y="431"/>
      <point x="332" y="410"/>
      <point x="332" y="375" type="curve" smooth="yes"/>
      <point x="332" y="342"/>
      <point x="309" y="320"/>
      <point x="272" y="320" type="curve" smooth="yes"/>
      <point x="233" y="320"/>
      <point x="212" y="341"/>
    </contour>
  </outline>
</glyph>
<glyph name="numbersign.tf" format="2">
  <advance width="604"/>
  <outline>
    <contour>
      <point x="419" y="660" type="line"/>
      <point x="316" y="0" type="line"/>
      <point x="425" y="0" type="line"/>
      <point x="528" y="660" type="line"/>
    </contour>
    <contour>
      <point x="12" y="267" type="line"/>
      <point x="12" y="150" type="line"/>
      <point x="563" y="150" type="line"/>
      <point x="563" y="267" type="line"/>
    </contour>
    <contour>
      <point x="184" y="660" type="line"/>
      <point x="81" y="0" type="line"/>
      <point x="190" y="0" type="line"/>
      <point x="293" y="660" type="line"/>
    </contour>
    <contour>
      <point x="40" y="511" type="line"/>
      <point x="40" y="394" type="line"/>
      <point x="591" y="394" type="line"/>
      <point x="591" y="511" type="line"/>
    </contour>
  </outline>
</glyph>
<glyph name="o.sc" format="2">
  <advance width="662"/>
  <anchor x="331" y="560" name="top"/>
  <anchor x="409" y="0" name="ogonek"/>
  <anchor x="331" y="0" name="bottom"/>
  <anchor x="331" y="0" name="bottomC"/>
  <outline>
    <contour>
      <point x="32" y="280" type="curve" smooth="yes"/>
      <point x="32" y="99"/>
      <point x="145" y="-8"/>
      <point x="331" y="-8" type="curve" smooth="yes"/>
      <point x="517" y="-8"/>
      <point x="630" y="99"/>
      <point x="630" y="280" type="curve" smooth="yes"/>
      <point x="630" y="461"/>
      <point x="517" y="568"/>
      <point x="331" y="568" type="curve" smooth="yes"/>
      <point x="145" y="568"/>
      <point x="32" y="461"/>
    </contour>
    <contour>
      <point x="427" y="280" type="curve" smooth="yes"/>
      <point x="427" y="183"/>
      <point x="397" y="143"/>
      <point x="331" y="143" type="curve" smooth="yes"/>
      <point x="266" y="143"/>
      <point x="235" y="183"/>
      <point x="235" y="280" type="curve" smooth="yes"/>
      <point x="235" y="377"/>
      <point x="266" y="417"/>
      <point x="331" y="417" type="curve" smooth="yes"/>
      <point x="397" y="417"/>
      <point x="427" y="377"/>
    </contour>
  </outline>
</glyph>
<glyph name="oe.sc" format="2">
  <advance width="929"/>
  <anchor x="518" y="560" name="top"/>
  <anchor x="518" y="0" name="bottom"/>
  <outline>
    <contour>
      <point x="510" y="280" type="curve"/>
      <point x="505" y="500"/>
      <point x="450" y="568"/>
      <point x="300" y="568" type="curve" smooth="yes"/>
      <point x="153" y="568"/>
      <point x="32" y="461"/>
      <point x="32" y="280" type="curve" smooth="yes"/>
      <point x="32" y="99"/>
      <point x="153" y="-8"/>
      <point x="300" y="-8" type="curve" smooth="yes"/>
      <point x="449" y="-8"/>
      <point x="505" y="60"/>
    </contour>
    <contour>
      <point x="230" y="280" type="curve" smooth="yes"/>
      <point x="230" y="377"/>
      <point x="263" y="417"/>
      <point x="328" y="417" type="curve" smooth="yes"/>
      <point x="392" y="417"/>
      <point x="424" y="377"/>
      <point x="424" y="280" type="curve" smooth="yes"/>
      <point x="424" y="183"/>
      <point x="392" y="143"/>
      <point x="328" y="143" type="curve" smooth="yes"/>
      <point x="263" y="143"/>
      <point x="230" y="183"/>
    </contour>
    <contour>
      <point x="901" y="0" type="line"/>
      <point x="901" y="137" type="line"/>
      <point x="533" y="137" type="line"/>
      <point x="533" y="0" type="line"/>
    </contour>
    <contour>
      <point x="612" y="0" type="line"/>
      <point x="612" y="560" type="line"/>
      <point x="481" y="560" type="line"/>
      <point x="481" y="0" type="line"/>
    </contour>
    <contour>
      <point x="839" y="216" type="line"/>
      <point x="839" y="346" type="line"/>
      <point x="533" y="346" type="line"/>
      <point x="533" y="216" type="line"/>
    </contour>
    <contour>
      <point x="897" y="423" type="line"/>
      <point x="897" y="560" type="line"/>
      <point x="533" y="560" type="line"/>
      <point x="533" y="423" type="line"/>
    </contour>
  </outline>
</glyph>
<glyph name="ogonek.A" format="2">
  <advance width="702"/>
  <anchor x="699" y="0" name="_ogonek"/>
  <outline>
    <contour>
      <point x="616" y="32" type="line"/>
      <point x="514" y="21"/>
      <point x="447" y="-22"/>
      <point x="447" y="-99" type="curve" smooth="yes"/>
      <point x="447" y="-179"/>
      <point x="512" y="-215"/>
      <point x="593" y="-215" type="curve" smooth="yes"/>
      <point x="639" y="-215"/>
      <point x="674" y="-209"/>
      <point x="704" y="-190" type="curve"/>
      <point x="679" y="-97" type="line"/>
      <point x="668" y="-104"/>
      <point x="651" y="-106"/>
      <point x="636" y="-106" type="curve" smooth="yes"/>
      <point x="603" y="-106"/>
      <point x="584" y="-91"/>
      <point x="584" y="-65" type="curve" smooth="yes"/>
      <point x="584" y="-33"/>
      <point x="611" y="-10"/>
      <point x="699" y="0" type="curve"/>
    </contour>
  </outline>
</glyph>
<glyph name="ogonek.I" format="2">
  <advance width="327"/>
  <anchor x="270" y="0" name="_ogonek"/>
  <outline>
    <contour>
      <point x="186" y="30" type="line"/>
      <point x="87" y="20"/>
      <point x="21" y="-25"/>
      <point x="21" y="-100" type="curve" smooth="yes"/>
      <point x="21" y="-179"/>
      <point x="85" y="-215"/>
      <point x="166" y="-215" type="curve" smooth="yes"/>
      <point x="213" y="-215"/>
      <point x="248" y="-209"/>
      <point x="278" y="-190" type="curve"/>
      <point x="252" y="-96" type="line"/>
      <point x="241" y="-103"/>
      <point x="226" y="-106"/>
      <point x="209" y="-106" type="curve" smooth="yes"/>
      <point x="176" y="-106"/>
      <point x="158" y="-91"/>
      <point x="158" y="-65" type="curve" smooth="yes"/>
      <point x="158" y="-34"/>
      <point x="184" y="-12"/>
      <point x="270" y="0" type="curve"/>
    </contour>
  </outline>
</glyph>
<glyph name="one.sc" format="2">
  <advance width="431"/>
  <outline>
    <contour>
      <point x="369" y="560" type="line"/>
      <point x="203" y="560" type="line"/>
      <point x="180" y="460"/>
      <point x="167" y="348"/>
      <point x="167" y="272" type="curve" smooth="yes"/>
      <point x="167" y="0" type="line"/>
      <point x="369" y="0" type="line"/>
      <point x="369" y="406" type="line"/>
    </contour>
    <contour>
      <point x="287" y="521" type="curve"/>
      <point x="203" y="560" type="line"/>
      <point x="162" y="520"/>
      <point x="90" y="487"/>
      <point x="19" y="478" type="curve"/>
      <point x="36" y="324" type="line"/>
      <point x="153" y="335"/>
      <point x="253" y="434"/>
    </contour>
  </outline>
</glyph>
<glyph name="periodsuperior" format="2">
  <advance width="241"/>
  <outline>
    <contour>
      <point x="35" y="400" type="curve" smooth="yes"/>
      <point x="35" y="353"/>
      <point x="65" y="327"/>
      <point x="121" y="327" type="curve" smooth="yes"/>
      <point x="176" y="327"/>
      <point x="206" y="353"/>
      <point x="206" y="400" type="curve" smooth="yes"/>
      <point x="206" y="448"/>
      <point x="176" y="474"/>
      <point x="121" y="474" type="curve" smooth="yes"/>
      <point x="65" y="474"/>
      <point x="35" y="448"/>
    </contour>
  </outline>
</glyph>
<glyph name="question.sc" format="2">
  <advance width="548"/>
  <outline>
    <contour>
      <point x="7" y="417" type="curve"/>
      <point x="193" y="362" type="line"/>
      <point x="199" y="409"/>
      <point x="225" y="426"/>
      <point x="275" y="426" type="curve" smooth="yes"/>
      <point x="319" y="426"/>
      <point x="340" y="410"/>
      <point x="340" y="383" type="curve" smooth="yes"/>
      <point x="340" y="348"/>
      <point x="315" y="329"/>
      <point x="172" y="316" type="curve"/>
      <point x="176" y="203" type="line"/>
      <point x="354" y="203" type="line"/>
      <point x="363" y="273" type="line"/>
      <point x="442" y="277"/>
      <point x="533" y="316"/>
      <point x="533" y="412" type="curve" smooth="yes"/>
      <point x="533" y="522"/>
      <point x="427" y="568"/>
      <point x="277" y="568" type="curve" smooth="yes"/>
      <point x="110" y="568"/>
      <point x="26" y="520"/>
    </contour>
    <component base="period" xScale="0.9074666666666666" yScale="0.8630666666666666" xOffset="129"/>
  </outline>
</glyph>
<glyph name="quotesingle.sc" format="2">
  <advance width="256"/>
  <outline>
    <contour>
      <point x="56" y="590" type="line"/>
      <point x="56" y="303" type="line"/>
      <point x="187" y="303" type="line"/>
      <point x="218" y="590" type="line"/>
    </contour>
  </outline>
</glyph>
<glyph name="r.swsh" format="2">
  <advance width="648"/>
  <anchor x="287" y="500" name="top"/>
  <anchor x="251" y="0" name="ogonek"/>
  <anchor x="144" y="0" name="bottom"/>
  <anchor x="150" y="0" name="bottomC"/>
  <outline>
    <contour>
      <point x="650" y="419" type="line"/>
      <point x="532" y="436"/>
      <point x="520" y="510"/>
      <point x="398" y="510" type="curve" smooth="yes"/>
      <point x="304" y="510"/>
      <point x="220" y="453"/>
      <point x="220" y="250" type="curve"/>
      <point x="251" y="229" type="line"/>
      <point x="251" y="287"/>
      <point x="285" y="349"/>
      <point x="369" y="349" type="curve" smooth="yes"/>
      <point x="437" y="349"/>
      <point x="469" y="293"/>
      <point x="559" y="276" type="curve"/>
    </contour>
    <contour>
      <point x="251" y="0" type="line"/>
      <point x="251" y="298" type="line"/>
      <point x="239" y="321" type="line"/>
      <point x="230" y="500" type="line"/>
      <point x="49" y="500" type="line"/>
      <point x="49" y="0" type="line"/>
    </contour>
  </outline>
</glyph>
<glyph name="registeredsuperior" format="2">
  <advance width="601"/>
  <outline>
    <contour>
      <point x="580" y="396" type="curve" smooth="yes"/>
      <point x="580" y="562"/>
      <point x="470" y="670"/>
      <point x="301" y="670" type="curve" smooth="yes"/>
      <point x="131" y="670"/>
      <point x="21" y="562"/>
      <point x="21" y="396" type="curve" smooth="yes"/>
      <point x="21" y="229"/>
      <point x="131" y="120"/>
      <point x="301" y="120" type="curve" smooth="yes"/>
      <point x="470" y="120"/>
      <point x="580" y="229"/>
    </contour>
    <contour>
      <point x="272" y="250" type="line"/>
      <point x="272" y="547" type="line"/>
      <point x="196" y="547" type="line"/>
      <point x="196" y="250" type="line"/>
    </contour>
    <contour>
      <point x="433" y="250" type="line"/>
      <point x="346" y="385" type="line"/>
      <point x="292" y="355" type="line"/>
      <point x="350" y="250" type="line"/>
    </contour>
    <contour>
      <point x="100" y="396" type="curve" smooth="yes"/>
      <point x="100" y="517"/>
      <point x="180" y="598"/>
      <point x="301" y="598" type="curve" smooth="yes"/>
      <point x="420" y="598"/>
      <point x="500" y="517"/>
      <point x="500" y="396" type="curve" smooth="yes"/>
      <point x="500" y="273"/>
      <point x="420" y="193"/>
      <point x="301" y="193" type="curve" smooth="yes"/>
      <point x="180" y="193"/>
      <point x="100" y="273"/>
    </contour>
    <contour>
      <point x="318" y="342" type="line" smooth="yes"/>
      <point x="387" y="342"/>
      <point x="429" y="378"/>
      <point x="429" y="441" type="curve" smooth="yes"/>
      <point x="429" y="504"/>
      <point x="379" y="547"/>
      <point x="309" y="547" type="curve" smooth="yes"/>
      <point x="241" y="547" type="line"/>
      <point x="241" y="483" type="line"/>
      <point x="305" y="483" type="line" smooth="yes"/>
      <point x="336" y="483"/>
      <point x="350" y="469"/>
      <point x="350" y="441" type="curve" smooth="yes"/>
      <point x="350" y="413"/>
      <point x="336" y="401"/>
      <point x="305" y="401" type="curve" smooth="yes"/>
      <point x="241" y="401" type="line"/>
      <point x="241" y="342" type="line"/>
    </contour>
  </outline>
</glyph>
<glyph name="seven.osf" format="2">
  <advance width="612"/>
  <outline>
    <contour>
      <point x="21" y="409" type="line"/>
      <point x="489" y="409" type="line"/>
      <point x="465" y="473" type="line"/>
      <point x="261" y="306"/>
      <point x="174" y="118"/>
      <point x="174" y="-100" type="curve"/>
      <point x="375" y="-100" type="line"/>
      <point x="375" y="87"/>
      <point x="427" y="267"/>
      <point x="585" y="421" type="curve"/>
      <point x="585" y="560" type="line"/>
      <point x="21" y="560" type="line"/>
    </contour>
  </outline>
</glyph>
<glyph name="seven.tosf" format="2">
  <advance width="604"/>
  <outline>
    <contour>
      <point x="36" y="409" type="line"/>
      <point x="480" y="409" type="line"/>
      <point x="436" y="457" type="line"/>
      <point x="247" y="293"/>
      <point x="166" y="114"/>
      <point x="166" y="-100" type="curve"/>
      <point x="366" y="-100" type="line"/>
      <point x="366" y="95"/>
      <point x="411" y="266"/>
      <point x="576" y="421" type="curve"/>
      <point x="576" y="560" type="line"/>
      <point x="36" y="560" type="line"/>
    </contour>
  </outline>
</glyph>
<glyph name="six.tf" format="2">
  <advance width="604"/>
  <outline>
    <contour>
      <point x="43" y="330" type="curve" smooth="yes"/>
      <point x="43" y="107"/>
      <point x="144" y="-10"/>
      <point x="329" y="-10" type="curve" smooth="yes"/>
      <point x="485" y="-10"/>
      <point x="579" y="75"/>
      <point x="579" y="206" type="curve" smooth="yes"/>
      <point x="579" y="329"/>
      <point x="498" y="408"/>
      <point x="380" y="408" type="curve" smooth="yes"/>
      <point x="304" y="408"/>
      <point x="247" y="380"/>
      <point x="227" y="334" type="curve"/>
      <point x="225" y="334" type="line"/>
      <point x="225" y="343"/>
      <point x="225" y="347"/>
      <point x="225" y="351" type="curve" smooth="yes"/>
      <point x="225" y="457"/>
      <point x="265" y="512"/>
      <point x="322" y="512" type="curve" smooth="yes"/>
      <point x="369" y="512"/>
      <point x="397" y="487"/>
      <point x="406" y="444" type="curve"/>
      <point x="572" y="521" type="line"/>
      <point x="531" y="631"/>
      <point x="439" y="670"/>
      <point x="333" y="670" type="curve" smooth="yes"/>
      <point x="168" y="670"/>
      <point x="43" y="569"/>
    </contour>
    <contour>
      <point x="397" y="208" type="curve" smooth="yes"/>
      <point x="397" y="163"/>
      <point x="371" y="137"/>
      <point x="325" y="137" type="curve" smooth="yes"/>
      <point x="280" y="137"/>
      <point x="253" y="163"/>
      <point x="253" y="208" type="curve" smooth="yes"/>
      <point x="253" y="252"/>
      <point x="280" y="279"/>
      <point x="325" y="279" type="curve" smooth="yes"/>
      <point x="371" y="279"/>
      <point x="397" y="253"/>
    </contour>
  </outline>
</glyph>
<glyph name="t.sc" format="2">
  <advance width="627"/>
  <anchor x="313" y="0" name="bottom"/>
  <anchor x="313" y="560" name="top"/>
  <anchor x="414" y="0" name="ogonek"/>
  <anchor x="310" y="232" name="center"/>
  <anchor x="342" y="0" name="bottomC"/>
  <outline>
    <contour>
      <point x="213" y="518" type="line"/>
      <point x="213" y="0" type="line"/>
      <point x="414" y="0" type="line"/>
      <point x="414" y="518" type="line"/>
    </contour>
    <contour>
      <point x="28" y="560" type="line"/>
      <point x="28" y="410" type="line"/>
      <point x="600" y="410" type="line"/>
      <point x="600" y="560" type="line"/>
    </contour>
  </outline>
</glyph>
<glyph name="thorn.sc" format="2">
  <advance width="634"/>
  <anchor x="162" y="560" name="top"/>
  <anchor x="162" y="0" name="bottom"/>
  <outline>
    <contour>
      <point x="368" y="86" type="line" smooth="yes"/>
      <point x="516" y="86"/>
      <point x="601" y="160"/>
      <point x="601" y="281" type="curve" smooth="yes"/>
      <point x="601" y="402"/>
      <point x="516" y="476"/>
      <point x="368" y="476" type="curve" smooth="yes"/>
      <point x="186" y="476" type="line"/>
      <point x="186" y="343" type="line"/>
      <point x="332" y="343" type="line" smooth="yes"/>
      <point x="379" y="343"/>
      <point x="404" y="324"/>
      <point x="404" y="281" type="curve" smooth="yes"/>
      <point x="404" y="238"/>
      <point x="379" y="219"/>
      <point x="332" y="219" type="curve" smooth="yes"/>
      <point x="186" y="219" type="line"/>
      <point x="186" y="86" type="line"/>
    </contour>
    <contour>
      <point x="259" y="0" type="line"/>
      <point x="259" y="560" type="line"/>
      <point x="61" y="560" type="line"/>
      <point x="61" y="0" type="line"/>
    </contour>
  </outline>
</glyph>
<glyph name="three.sc" format="2">
  <advance width="561"/>
  <outline>
    <contour>
      <point x="36" y="415" type="curve"/>
      <point x="208" y="365" type="line"/>
      <point x="207" y="404"/>
      <point x="230" y="427"/>
      <point x="269" y="427" type="curve" smooth="yes"/>
      <point x="309" y="427"/>
      <point x="324" y="406"/>
      <point x="323" y="382" type="curve" smooth="yes"/>
      <point x="323" y="349"/>
      <point x="304" y="331"/>
      <point x="262" y="331" type="curve" smooth="yes"/>
      <point x="227" y="331" type="line"/>
      <point x="227" y="225" type="line"/>
      <point x="277" y="225" type="line" smooth="yes"/>
      <point x="315" y="225"/>
      <point x="335" y="214"/>
      <point x="335" y="183" type="curve" smooth="yes"/>
      <point x="335" y="152"/>
      <point x="311" y="133"/>
      <point x="273" y="133" type="curve" smooth="yes"/>
      <point x="222" y="133"/>
      <point x="201" y="153"/>
      <point x="199" y="202" type="curve"/>
      <point x="20" y="136" type="line"/>
      <point x="56" y="28"/>
      <point x="143" y="-8"/>
      <point x="285" y="-8" type="curve" smooth="yes"/>
      <point x="422" y="-8"/>
      <point x="524" y="59"/>
      <point x="524" y="161" type="curve" smooth="yes"/>
      <point x="524" y="259"/>
      <point x="441" y="283"/>
      <point x="401" y="280" type="curve"/>
      <point x="401" y="283" type="line"/>
      <point x="438" y="283"/>
      <point x="512" y="305"/>
      <point x="512" y="409" type="curve" smooth="yes"/>
      <point x="512" y="495"/>
      <point x="433" y="568"/>
      <point x="284" y="568" type="curve" smooth="yes"/>
      <point x="156" y="568"/>
      <point x="47" y="517"/>
    </contour>
  </outline>
</glyph>
<glyph name="three.tf" format="2">
  <advance width="604"/>
  <outline>
    <contour>
      <point x="43" y="488" type="curve"/>
      <point x="218" y="431" type="line"/>
      <point x="217" y="496"/>
      <point x="252" y="517"/>
      <point x="293" y="517" type="curve" smooth="yes"/>
      <point x="328" y="517"/>
      <point x="354" y="493"/>
      <point x="354" y="452" type="curve" smooth="yes"/>
      <point x="353" y="409"/>
      <point x="328" y="388"/>
      <point x="282" y="388" type="curve" smooth="yes"/>
      <point x="251" y="388" type="line"/>
      <point x="251" y="267" type="line"/>
      <point x="291" y="267" type="line" smooth="yes"/>
      <point x="341" y="267"/>
      <point x="366" y="250"/>
      <point x="367" y="210" type="curve" smooth="yes"/>
      <point x="368" y="167"/>
      <point x="336" y="143"/>
      <point x="295" y="143" type="curve" smooth="yes"/>
      <point x="249" y="143"/>
      <point x="213" y="160"/>
      <point x="212" y="233" type="curve"/>
      <point x="31" y="156" type="line"/>
      <point x="66" y="36"/>
      <point x="154" y="-10"/>
      <point x="303" y="-10" type="curve" smooth="yes"/>
      <point x="451" y="-10"/>
      <point x="563" y="64"/>
      <point x="563" y="181" type="curve" smooth="yes"/>
      <point x="563" y="310"/>
      <point x="460" y="329"/>
      <point x="426" y="329" type="curve"/>
      <point x="426" y="333" type="line"/>
      <point x="454" y="333"/>
      <point x="550" y="363"/>
      <point x="550" y="480" type="curve" smooth="yes"/>
      <point x="550" y="600"/>
      <point x="462" y="670"/>
      <point x="309" y="670" type="curve" smooth="yes"/>
      <point x="171" y="670"/>
      <point x="62" y="624"/>
    </contour>
  </outline>
</glyph>
<glyph name="two.sc" format="2">
  <advance width="572"/>
  <outline>
    <contour>
      <point x="31" y="362" type="curve"/>
      <point x="204" y="319" type="line"/>
      <point x="202" y="379"/>
      <point x="226" y="417"/>
      <point x="275" y="417" type="curve" smooth="yes"/>
      <point x="314" y="417"/>
      <point x="335" y="393"/>
      <point x="335" y="357" type="curve" smooth="yes"/>
      <point x="335" y="297"/>
      <point x="279" y="232"/>
      <point x="49" y="118" type="curve"/>
      <point x="49" y="0" type="line"/>
      <point x="533" y="0" type="line"/>
      <point x="533" y="143" type="line"/>
      <point x="412" y="143" type="line" smooth="yes"/>
      <point x="383" y="143"/>
      <point x="333" y="142"/>
      <point x="304" y="139" type="curve"/>
      <point x="304" y="141" type="line"/>
      <point x="408" y="182"/>
      <point x="528" y="245"/>
      <point x="528" y="391" type="curve" smooth="yes"/>
      <point x="528" y="473"/>
      <point x="464" y="568"/>
      <point x="286" y="568" type="curve" smooth="yes"/>
      <point x="97" y="568"/>
      <point x="28" y="465"/>
    </contour>
  </outline>
</glyph>
<glyph name="uni0123.ss01" format="2">
  <advance width="628"/>
  <anchor x="297" y="-210" name="bottomC"/>
  <anchor x="318" y="500" name="top"/>
  <anchor x="416" y="-199" name="ogonek"/>
  <anchor x="313" y="-210" name="bottom"/>
  <outline>
    <contour>
      <point x="315" y="770" type="line"/>
      <point x="244" y="554" type="line"/>
      <point x="405" y="554" type="line"/>
      <point x="439" y="770" type="line"/>
    </contour>
    <component base="g.ss01"/>
  </outline>
</glyph>
<glyph name="uni0162.sc" format="2">
  <advance width="627"/>
  <anchor x="313" y="-210" name="bottom"/>
  <anchor x="313" y="560" name="top"/>
  <anchor x="350" y="-210" name="ogonek"/>
  <anchor x="310" y="232" name="center"/>
  <anchor x="329" y="-210" name="bottomC"/>
  <outline>
    <contour>
      <point x="341" y="-60" type="curve" smooth="yes"/>
      <point x="341" y="-95"/>
      <point x="315" y="-111"/>
      <point x="285" y="-111" type="curve" smooth="yes"/>
      <point x="251" y="-111"/>
      <point x="234" y="-99"/>
      <point x="218" y="-80" type="curve"/>
      <point x="167" y="-172" type="line"/>
      <point x="192" y="-195"/>
      <point x="233" y="-215"/>
      <point x="301" y="-215" type="curve" smooth="yes"/>
      <point x="386" y="-215"/>
      <point x="454" y="-180"/>
      <point x="454" y="-88" type="curve" smooth="yes"/>
      <point x="454" y="-10"/>
      <point x="401" y="33"/>
      <point x="288" y="42" type="curve"/>
      <point x="266" y="0" type="line"/>
      <point x="314" y="-7"/>
      <point x="341" y="-26"/>
    </contour>
    <component base="t.sc"/>
  </outline>
</glyph>
<glyph name="uni0163.swsh" format="2">
  <advance width="585"/>
  <anchor x="157" y="250" name="center"/>
  <anchor x="252" y="0" name="bottom"/>
  <anchor x="189" y="730" name="top"/>
  <anchor x="287" y="0" name="bottomC"/>
  <anchor x="353" y="767" name="topright"/>
  <anchor x="401" y="11" name="ogonek"/>
  <outline>
    <contour>
      <point x="315" y="-66" type="curve" smooth="yes"/>
      <point x="315" y="-97"/>
      <point x="293" y="-114"/>
      <point x="257" y="-114" type="curve" smooth="yes"/>
      <point x="227" y="-114"/>
      <point x="203" y="-101"/>
      <point x="188" y="-85" type="curve"/>
      <point x="145" y="-173" type="line"/>
      <point x="170" y="-197"/>
      <point x="206" y="-215"/>
      <point x="275" y="-215" type="curve" smooth="yes"/>
      <point x="360" y="-215"/>
      <point x="427" y="-180"/>
      <point x="427" y="-93" type="curve" smooth="yes"/>
      <point x="427" y="-26"/>
      <point x="365" y="21"/>
      <point x="252" y="48" type="curve"/>
      <point x="218" y="5" type="line"/>
      <point x="292" y="-12"/>
      <point x="315" y="-31"/>
    </contour>
    <component base="t.swsh"/>
  </outline>
</glyph>
<glyph name="uni20BA.tf" format="2">
  <advance width="604"/>
  <outline>
    <contour>
      <point x="409" y="292" type="line"/>
      <point x="409" y="200"/>
      <point x="377" y="145"/>
      <point x="301" y="145" type="curve" smooth="yes"/>
      <point x="165" y="145" type="line"/>
      <point x="165" y="0" type="line"/>
      <point x="322" y="0" type="line" smooth="yes"/>
      <point x="496" y="0"/>
      <point x="578" y="122"/>
      <point x="580" y="292" type="curve"/>
    </contour>
    <contour>
      <point x="90" y="660" type="line"/>
      <point x="90" y="0" type="line"/>
      <point x="285" y="0" type="line"/>
      <point x="285" y="660" type="line"/>
    </contour>
    <contour>
      <point x="1" y="303" type="line"/>
      <point x="1" y="239" type="line"/>
      <point x="448" y="363" type="line"/>
      <point x="448" y="427" type="line"/>
    </contour>
    <contour>
      <point x="1" y="440" type="line"/>
      <point x="1" y="377" type="line"/>
      <point x="448" y="501" type="line"/>
      <point x="448" y="564" type="line"/>
    </contour>
  </outline>
</glyph>
<glyph name="x.sc" format="2">
  <advance width="614"/>
  <anchor x="307" y="560" name="top"/>
  <anchor x="616" y="0" name="ogonek"/>
  <anchor x="307" y="0" name="bottom"/>
  <anchor x="616" y="0" name="bottomC"/>
  <outline>
    <contour>
      <point x="203" y="0" type="line"/>
      <point x="333" y="218" type="line"/>
      <point x="378" y="241" type="line"/>
      <point x="609" y="560" type="line"/>
      <point x="405" y="560" type="line"/>
      <point x="277" y="345" type="line"/>
      <point x="231" y="322" type="line"/>
      <point x="-2" y="0" type="line"/>
    </contour>
    <contour>
      <point x="612" y="0" type="line"/>
      <point x="380" y="326" type="line"/>
      <point x="362" y="344" type="line"/>
      <point x="230" y="560" type="line"/>
      <point x="1" y="560" type="line"/>
      <point x="230" y="237" type="line"/>
      <point x="248" y="219" type="line"/>
      <point x="383" y="0" type="line"/>
    </contour>
  </outline>
</glyph>
<glyph name="y.sc" format="2">
  <advance width="619"/>
  <anchor x="309" y="560" name="top"/>
  <anchor x="410" y="0" name="ogonek"/>
  <anchor x="309" y="0" name="bottom"/>
  <anchor x="410" y="0" name="bottomC"/>
  <outline>
    <contour>
      <point x="208" y="0" type="line"/>
      <point x="410" y="0" type="line"/>
      <point x="410" y="203" type="line"/>
      <point x="619" y="560" type="line"/>
      <point x="421" y="560" type="line"/>
      <point x="350" y="418" type="line"/>
      <point x="313" y="336" type="line"/>
      <point x="276" y="418" type="line"/>
      <point x="204" y="560" type="line"/>
      <point x="0" y="560" type="line"/>
      <point x="208" y="203" type="line"/>
    </contour>
  </outline>
</glyph>
<glyph name="yen.tf" format="2">
  <advance width="604"/>
  <outline>
    <contour>
      <point x="15" y="660" type="line"/>
      <point x="206" y="273" type="line"/>
      <point x="398" y="273" type="line"/>
      <point x="589" y="660" type="line"/>
      <point x="405" y="660" type="line"/>
      <point x="332" y="464" type="line"/>
      <point x="303" y="359" type="line"/>
      <point x="301" y="359" type="line"/>
      <point x="272" y="463" type="line"/>
      <point x="199" y="660" type="line"/>
    </contour>
    <contour>
      <point x="397" y="0" type="line"/>
      <point x="397" y="272" type="line"/>
      <point x="207" y="272" type="line"/>
      <point x="207" y="0" type="line"/>
    </contour>
    <contour>
      <point x="560" y="127" type="line"/>
      <point x="560" y="185" type="line"/>
      <point x="44" y="185" type="line"/>
      <point x="44" y="127" type="line"/>
    </contour>
    <contour>
      <point x="560" y="248" type="line"/>
      <point x="560" y="308" type="line"/>
      <point x="463" y="308" type="line"/>
      <point x="302" y="306" type="line"/>
      <point x="141" y="308" type="line"/>
      <point x="44" y="308" type="line"/>
      <point x="44" y="248" type="line"/>
    </contour>
  </outline>
</glyph>
